{
.appVersion = "3410";
.formatVersion = 3;
axes = (
{
name = Weight;
tag = wght;
},
{
name = Width;
tag = wdth;
}
);
classes = (
{
automatic = 1;
code = "A Adieresis B C D E F G H I J K L M N O Odieresis P Q R S T U Udieresis V W X Y Z";
name = Uppercase;
}
);
date = "2025-02-16 11:19:15 +0000";
familyName = OHamburgC;
featurePrefixes = (
{
automatic = 1;
code = "languagesystem DFLT dflt;
";
name = Languagesystems;
}
);
features = (
{
automatic = 1;
code = "feature case;
";
tag = aalt;
},
{
automatic = 1;
code = "lookup ccmp_Other_1 {
	lookupflag 0;
	@Markscomb = [dieresiscomb];
	@MarkscombCase = [dieresiscomb.case];
	sub @Markscomb @Markscomb' by @MarkscombCase;
	sub @Uppercase @Markscomb' by @MarkscombCase;
} ccmp_Other_1;

lookup ccmp_Other_2 {
	lookupflag 0;
	sub @Markscomb' @MarkscombCase by @MarkscombCase;
	sub @MarkscombCase @Markscomb' by @MarkscombCase;
} ccmp_Other_2;
";
tag = ccmp;
},
{
automatic = 1;
code = "sub dieresiscomb by dieresiscomb.case;
";
tag = case;
}
);
fontMaster = (
{
axesValues = (
300,
100
);
customParameters = (
{
name = unitizerUnit;
value = "18";
}
);
iconName = SemiLight;
id = m003;
metricValues = (
{
over = 11;
pos = 637;
},
{
over = 11;
pos = 616;
},
{
over = 11;
pos = 402;
},
{
over = -8;
},
{
over = -8;
pos = -230;
},
{
pos = 15;
},
{
}
);
name = Italic;
stemValues = (
28,
81
);
userData = {
GSCornerRadius = 25;
GSOffsetHorizontal = 2;
GSOffsetVertical = 2;
};
},
{
axesValues = (
900,
100
);
customParameters = (
{
name = unitizerUnit;
value = "18";
}
);
iconName = Bold;
id = m005;
metricValues = (
{
over = 11;
pos = 637;
},
{
over = 11;
pos = 616;
},
{
over = 11;
pos = 402;
},
{
over = -8;
},
{
over = -8;
pos = -230;
},
{
pos = 15;
},
{
}
);
name = "Black Italic";
stemValues = (
28,
81
);
userData = {
GSCornerRadius = 25;
GSOffsetHorizontal = 2;
GSOffsetVertical = 2;
};
},
{
axesValues = (
300,
110
);
customParameters = (
{
name = unitizerUnit;
value = "18";
}
);
iconName = SemiLight_Extended;
id = m006;
metricValues = (
{

glyphs = (
{
glyphname = A;
lastChange = "2025-04-15 19:32:03 +0000";
layers = (
{
anchors = (
{
name = bottom;
pos = (285,0);
},
{
name = ogonek;
pos = (562,10);
},
{
name = top;
pos = (495,616);
}
);
color = 4;
layerId = m003;
shapes = (
{
closed = 1;
nodes = (
(612,0,l),
(618,22,l),
(553,36,o),
(539,61,o),
(528,132,cs),
(506,303,o),
(484,477,o),
(462,648,c),
(402,576,l),
(403,550,l),
(453,136,ls),
(465,39,o),
(447,40,o),
(366,22,c),
(360,0,l)
);
},
{
closed = 1;
nodes = (
(198,0,l),
(204,22,l),
(132,28,o),
(112,54,o),
(158,127,cs),
(432,564,l),
(402,576,l),
(291,404,o),
(169,195,o),
(76,80,cs),
(48,46,o),
(-3,22,o),
(-48,22,c),
(-54,0,l)
);
},
{
closed = 1;
nodes = (
(466,258,l),
(462,298,l),
(239,298,l),
(212,258,l)
);
}
);
width = 666;
},
{
anchors = (
{
name = bottom;
pos = (285,0);
},
{
name = ogonek;
pos = (562,10);
},
{
name = top;
pos = (495,616);
}
);
color = 4;
layerId = m005;
shapes = (
{
closed = 1;
nodes = (
(612,0,l),
(618,22,l),
(553,36,o),
(539,61,o),
(528,132,cs),
(506,303,o),
(484,477,o),
(462,648,c),
(402,576,l),
(403,550,l),
(453,136,ls),
(465,39,o),
(447,40,o),
(366,22,c),
(360,0,l)
);
},
{
closed = 1;
nodes = (
(198,0,l),
(204,22,l),
(132,28,o),
(112,54,o),
(158,127,cs),
(432,564,l),
(402,576,l),
(291,404,o),
(169,195,o),
(76,80,cs),
(48,46,o),
(-3,22,o),
(-48,22,c),
(-54,0,l)
);
},
{
closed = 1;
nodes = (
(466,258,l),
(462,298,l),
(239,298,l),
(212,258,l)
);
}
);
width = 666;
},
{
anchors = (
{
name = bottom;
pos = (285,0);
},
{
name = ogonek;
pos = (562,10);
},
{
name = top;
pos = (495,616);
}
);
color = 4;
layerId = m006;
shapes = (
{
closed = 1;
nodes = (
(612,0,l),
(618,22,l),
(553,36,o),
(539,61,o),
(528,132,cs),
(506,303,o),
(484,477,o),
(462,648,c),
(402,576,l),
(403,550,l),
(453,136,ls),
(465,39,o),
(447,40,o),
(366,22,c),
(360,0,l)
);
},
{
closed = 1;
nodes = (
(198,0,l),
(204,22,l),
(132,28,o),
(112,54,o),
(158,127,cs),
(432,564,l),
(402,576,l),
(291,404,o),
(169,195,o),
(76,80,cs),
(48,46,o),
(-3,22,o),
(-48,22,c),
(-54,0,l)
);
},
{
closed = 1;
nodes = (
(466,258,l),
(462,298,l),
(239,298,l),
(212,258,l)
);
}
);
width = 666;
},
{
anchors = (
{
name = bottom;
pos = (285,0);
},
{
name = ogonek;
pos = (562,10);
},
{
name = top;
pos = (495,616);
}
);
color = 4;
layerId = m004;
shapes = (
{
closed = 1;
nodes = (
(612,0,l),
(618,22,l),
(553,36,o),
(539,61,o),
(528,132,cs),
(506,303,o),
(484,477,o),
(462,648,c),
(402,576,l),
(403,550,l),
(453,136,ls),
(465,39,o),
(447,40,o),
(366,22,c),
(360,0,l)
);
},
{
closed = 1;
nodes = (
(198,0,l),
(204,22,l),
(132,28,o),
(112,54,o),
(158,127,cs),
(432,564,l),
(402,576,l),
(291,404,o),
(169,195,o),
(76,80,cs),
(48,46,o),
(-3,22,o),
(-48,22,c),
(-54,0,l)
);
},
{
closed = 1;
nodes = (
(466,258,l),
(462,298,l),
(239,298,l),
(212,258,l)
);
}
);
width = 666;
}
);
unicode = 65;
},
{
glyphname = B;
lastChange = "2025-04-15 19:32:03 +0000";
layers = (
{
anchors = (
{
name = bottom;
pos = (232,0);
},
{
name = center;
pos = (133,154);
},
{
name = top;
pos = (442,616);
}
);
color = 2;
guides = (
{
angle = 270;
pos = (-20,13);
}
);
layerId = m003;
shapes = (
{
closed = 1;
nodes = (
(-23,0,l),
(248,0,l),
(257,37,l),
(209,37,o),
(174,41,o),
(166,47,cs),
(156,55,o),
(153,73,o),
(157,88,cs),
(174,152,o),
(230,358,o),
(288,577,c),
(318,578,o),
(357,579,o),
(382,579,c),
(392,616,l),
(141,616,l),
(135,594,l),
(167,591,o),
(191,581,o),
(199,575,cs),
(206,570,o),
(211,549,o),
(205,525,cs),
(182,431,o),
(159,338,o),
(149,302,cs),
(109,160,o),
(84,71,o),
(89,88,cs),
(83,67,o),
(73,47,o),
(62,40,cs),
(52,33,o),
(26,28,o),
(-17,22,c)
);
},
{
closed = 1;
nodes = (
(231,308,o),
(258,308,o),
(258,308,cs),
(420,319,o),
(531,383,o),
(540,476,cs),
(547,552,o),
(492,616,o),
(392,616,c),
(382,579,l),
(445,579,o),
(474,523,o),
(465,457,cs),
(455,381,o),
(376,338,o),
(259,338,cs),
(199,338,l),
(192,308,l)
);
},
{
closed = 1;
nodes = (
(390,0,o),
(513,82,o),
(510,201,cs),
(508,269,o),
(459,322,o),
(363,328,cs),
(181,340,l),
(172,304,l),
(214,304,o),
(243,304,o),
(243,304,cs),
(366,309,o),
(433,259,o),
(432,181,cs),
(431,97,o),
(351,37,o),
(257,37,c),
(248,0,l)
);
}
);
width = 540;
},
{
anchors = (
{
name = bottom;
pos = (232,0);
},
{
name = center;
pos = (133,154);
},
{
name = top;
pos = (442,616);
}
);
color = 2;
guides = (
{
angle = 270;
pos = (-20,13);
}
);
layerId = m005;
shapes = (
{
closed = 1;
nodes = (
(-23,0,l),
(248,0,l),
(257,37,l),
(209,37,o),
(174,41,o),
(166,47,cs),
(156,55,o),
(153,73,o),
(157,88,cs),
(174,152,o),
(230,358,o),
(288,577,c),
(318,578,o),
(357,579,o),
(382,579,c),
(392,616,l),
(141,616,l),
(135,594,l),
(167,591,o),
(191,581,o),
(199,575,cs),
(206,570,o),
(211,549,o),
(205,525,cs),
(182,431,o),
(159,338,o),
(149,302,cs),
(109,160,o),
(84,71,o),
(89,88,cs),
(83,67,o),
(73,47,o),
(62,40,cs),
(52,33,o),
(26,28,o),
(-17,22,c)
);
},
{
closed = 1;
nodes = (
(231,308,o),
(258,308,o),
(258,308,cs),
(420,319,o),
(531,383,o),
(540,476,cs),
(547,552,o),
(492,616,o),
(392,616,c),
(382,579,l),
(445,579,o),
(474,523,o),
(465,457,cs),
(455,381,o),
(376,338,o),
(259,338,cs),
(199,338,l),
(192,308,l)
);
},
{
closed = 1;
nodes = (
(390,0,o),
(513,82,o),
(510,201,cs),
(508,269,o),
(459,322,o),
(363,328,cs),
(181,340,l),
(172,304,l),
(214,304,o),
(243,304,o),
(243,304,cs),
(366,309,o),
(433,259,o),
(432,181,cs),
(431,97,o),
(351,37,o),
(257,37,c),
(248,0,l)
);
}
);
width = 540;
},
{
anchors = (
{
name = bottom;
pos = (232,0);
},
{
name = center;
pos = (133,154);
},
{
name = top;
pos = (442,616);
}
);
color = 2;
guides = (
{
angle = 270;
pos = (-20,13);
}
);
layerId = m006;
shapes = (
{
closed = 1;
nodes = (
(-23,0,l),
(248,0,l),
(257,37,l),
(209,37,o),
(174,41,o),
(166,47,cs),
(156,55,o),
(153,73,o),
(157,88,cs),
(174,152,o),
(230,358,o),
(288,577,c),
(318,578,o),
(357,579,o),
(382,579,c),
(392,616,l),
(141,616,l),
(135,594,l),
(167,591,o),
(191,581,o),
(199,575,cs),
(206,570,o),
(211,549,o),
(205,525,cs),
(182,431,o),
(159,338,o),
(149,302,cs),
(109,160,o),
(84,71,o),
(89,88,cs),
(83,67,o),
(73,47,o),
(62,40,cs),
(52,33,o),
(26,28,o),
(-17,22,c)
);
},
{
closed = 1;
nodes = (
(231,308,o),
(258,308,o),
(258,308,cs),
(420,319,o),
(531,383,o),
(540,476,cs),
(547,552,o),
(492,616,o),
(392,616,c),
(382,579,l),
(445,579,o),
(474,523,o),
(465,457,cs),
(455,381,o),
(376,338,o),
(259,338,cs),
(199,338,l),
(192,308,l)
);
},
{
closed = 1;
nodes = (
(390,0,o),
(513,82,o),
(510,201,cs),
(508,269,o),
(459,322,o),
(363,328,cs),
(181,340,l),
(172,304,l),
(214,304,o),
(243,304,o),
(243,304,cs),
(366,309,o),
(433,259,o),
(432,181,cs),
(431,97,o),
(351,37,o),
(257,37,c),
(248,0,l)
);
}
);
width = 540;
},
{
anchors = (
{
name = bottom;
pos = (232,0);
},
{
name = center;
pos = (133,154);
},
{
name = top;
pos = (442,616);
}
);
color = 2;
guides = (
{
angle = 270;
pos = (-20,13);
}
);
layerId = m004;
shapes = (
{
closed = 1;
nodes = (
(-23,0,l),
(248,0,l),
(257,37,l),
(209,37,o),
(174,41,o),
(166,47,cs),
(156,55,o),
(153,73,o),
(157,88,cs),
(174,152,o),
(230,358,o),
(288,577,c),
(318,578,o),
(357,579,o),
(382,579,c),
(392,616,l),
(141,616,l),
(135,594,l),
(167,591,o),
(191,581,o),
(199,575,cs),
(206,570,o),
(211,549,o),
(205,525,cs),
(182,431,o),
(159,338,o),
(149,302,cs),
(109,160,o),
(84,71,o),
(89,88,cs),
(83,67,o),
(73,47,o),
(62,40,cs),
(52,33,o),
(26,28,o),
(-17,22,c)
);
},
{
closed = 1;
nodes = (
(231,308,o),
(258,308,o),
(258,308,cs),
(420,319,o),
(531,383,o),
(540,476,cs),
(547,552,o),
(492,616,o),
(392,616,c),
(382,579,l),
(445,579,o),
(474,523,o),
(465,457,cs),
(455,381,o),
(376,338,o),
(259,338,cs),
(199,338,l),
(192,308,l)
);
},
{
closed = 1;
nodes = (
(390,0,o),
(513,82,o),
(510,201,cs),
(508,269,o),
(459,322,o),
(363,328,cs),
(181,340,l),
(172,304,l),
(214,304,o),
(243,304,o),
(243,304,cs),
(366,309,o),
(433,259,o),
(432,181,cs),
(431,97,o),
(351,37,o),
(257,37,c),
(248,0,l)
);
}
);
width = 540;
}
);
metricLeft = H;
unicode = 66;
},
{
glyphname = C;
lastChange = "2025-04-17 06:14:22 +0000";
layers = (
{
anchors = (
{
name = bottom;
pos = (268,0);
},
{
name = top;
pos = (478,616);
}
);
background = {
shapes = (
{
closed = 1;
nodes = (
(509,-8,o),
(659,123,o),
(689,308,cs),
(723,507,o),
(620,648,o),
(440,648,cs),
(258,648,o),
(108,518,o),
(77,334,cs),
(44,134,o),
(147,-8,o),
(326,-8,cs)
);
},
{
closed = 1;
nodes = (
(232,30,o),
(146,139,o),
(154,275,cs),
(165,462,o),
(283,610,o),
(420,610,cs),
(534,610,o),
(618,502,o),
(609,366,cs),
(599,179,o),
(483,30,o),
(347,30,cs)
);
}
);
};
backgroundImage = {
imagePath = "../../Desktop/Bildschirmfoto 2024-12-24 um 08.52.09.png";
pos = (633,-952);
scale = (-1.4,1.4);
slant = (2,0);
};
color = 4;
layerId = m003;
shapes = (
{
closed = 1;
nodes = (
(400,-8,o),
(495,11,o),
(556,38,c),
(565,53,o),
(594,121,o),
(627,201,c),
(595,200,l),
(549,100,o),
(446,30,o),
(347,30,cs),
(225,30,o),
(145,132,o),
(154,275,cs),
(166,471,o),
(276,610,o),
(420,610,cs),
(526,610,o),
(595,531,o),
(588,420,c),
(615,420,l),
(638,503,o),
(656,566,o),
(658,571,c),
(600,616,o),
(510,648,o),
(440,648,cs),
(258,648,o),
(108,518,o),
(77,334,cs),
(43,134,o),
(146,-8,o),
(326,-8,cs)
);
}
);
width = 648;
},
{
anchors = (
{
name = bottom;
pos = (408,0);
},
{
name = top;
pos = (407,616);
}
);
associatedMasterId = m003;
background = {
shapes = (
{
closed = 1;
nodes = (
(418,588,l),
(514,588,o),
(584,528,o),
(589,444,c),
(620,444,l),
(622,495,o),
(629,558,o),
(636,595,c),
(586,614,o),
(492,627,o),
(410,627,c)
);
}
);
};
backgroundImage = {
imagePath = "../../Desktop/Bildschirmfoto 2024-12-24 um 08.52.09.png";
pos = (714,-952);
scale = (-1.4,1.4);
};
color = 4;
layerId = "A8205263-60D0-4B63-B521-8F6B441CF343";
name = "11. Jan. 25, 13:19";
shapes = (
{
closed = 1;
nodes = (
(479,-11,o),
(572,9,o),
(628,38,c),
(646,106,o),
(662,174,o),
(666,201,c),
(630,200,l),
(606,102,o),
(520,33,o),
(422,33,cs),
(268,33,o),
(156,158,o),
(156,335,cs),
(156,482,o),
(265,586,o),
(414,586,cs),
(506,586,o),
(582,522,o),
(597,432,c),
(637,432,l),
(634,599,l),
(584,573,l),
(551,605,o),
(477,627,o),
(404,627,cs),
(197,627,o),
(54,496,o),
(54,312,cs),
(54,123,o),
(197,-11,o),
(404,-11,cs)
);
}
);
width = 720;
},
{
anchors = (
{
name = bottom;
pos = (268,0);
},
{
name = top;
pos = (478,616);
}
);
background = {
shapes = (
{
closed = 1;
nodes = (
(337,588,l),
(433,588,o),
(503,528,o),
(508,444,c),
(539,444,l),
(541,495,o),
(548,558,o),
(555,595,c),
(505,614,o),
(411,627,o),
(329,627,c)
);
},
{
closed = 1;
nodes = (
(348,-8,cs),
(521,-8,o),
(662,108,o),
(688,272,cs),
(728,481,o),
(613,628,o),
(410,628,cs),
(237,628,o),
(96,512,o),
(70,348,cs),
(30,139,o),
(145,-8,o)
);
},
{
closed = 1;
nodes = (
(225,32,o),
(128,173,o),
(148,372,cs),
(158,499,o),
(258,588,o),
(390,588,cs),
(538,588,o),
(629,447,o),
(609,248,cs),
(599,121,o),
(505,32,o),
(381,32,cs)
);
}
);
};
backgroundImage = {
imagePath = "../../Desktop/Bildschirmfoto 2024-12-24 um 08.52.09.png";
pos = (633,-952);
scale = (-1.4,1.4);
};
color = 4;
layerId = m005;
shapes = (
{
closed = 1;
nodes = (
(408,-8,o),
(495,11,o),
(556,38,c),
(569,62,o),
(598,130,o),
(627,201,c),
(595,200,l),
(550,102,o),
(461,32,o),
(381,32,cs),
(225,32,o),
(128,173,o),
(148,372,cs),
(161,499,o),
(261,588,o),
(390,588,cs),
(513,588,o),
(595,510,o),
(588,400,c),
(615,400,l),
(635,472,o),
(653,535,o),
(658,551,c),
(600,596,o),
(497,628,o),
(410,628,cs),
(242,628,o),
(101,512,o),
(70,348,cs),
(30,139,o),
(145,-8,o),
(348,-8,cs)
);
}
);
width = 648;
},
{
anchors = (
{
name = bottom;
pos = (408,0);
},
{
name = top;
pos = (407,616);
}
);
associatedMasterId = m005;
background = {
shapes = (
{
closed = 1;
nodes = (
(418,588,l),
(514,588,o),
(584,528,o),
(589,444,c),
(620,444,l),
(622,495,o),
(629,558,o),
(636,595,c),
(586,614,o),
(492,627,o),
(410,627,c)
);
}
);
};
backgroundImage = {
imagePath = "../../Desktop/Bildschirmfoto 2024-12-24 um 08.52.09.png";
pos = (714,-952);
scale = (-1.4,1.4);
};
color = 4;
layerId = "7B8EC43E-E829-4C73-A073-7A2C9761AD98";
name = "11. Jan. 25, 13:19";
shapes = (
{
closed = 1;
nodes = (
(479,-11,o),
(572,9,o),
(628,38,c),
(646,106,o),
(662,174,o),
(666,201,c),
(630,200,l),
(606,102,o),
(520,33,o),
(422,33,cs),
(268,33,o),
(156,158,o),
(156,335,cs),
(156,482,o),
(265,586,o),
(414,586,cs),
(506,586,o),
(582,522,o),
(597,432,c),
(637,432,l),
(634,599,l),
(584,573,l),
(551,605,o),
(477,627,o),
(404,627,cs),
(197,627,o),
(54,496,o),
(54,312,cs),
(54,123,o),
(197,-11,o),
(404,-11,cs)
);
}
);
width = 720;
},
{
anchors = (
{
name = bottom;
pos = (268,0);
},
{
name = top;
pos = (478,616);
}
);
background = {
shapes = (
{
closed = 1;
nodes = (
(337,588,l),
(433,588,o),
(503,528,o),
(508,444,c),
(539,444,l),
(541,495,o),
(548,558,o),
(555,595,c),
(505,614,o),
(411,627,o),
(329,627,c)
);
},
{
closed = 1;
nodes = (
(348,-8,cs),
(521,-8,o),
(662,108,o),
(688,272,cs),
(728,481,o),
(613,628,o),
(410,628,cs),
(237,628,o),
(96,512,o),
(70,348,cs),
(30,139,o),
(145,-8,o)
);
},
{
closed = 1;
nodes = (
(225,32,o),
(128,173,o),
(148,372,cs),
(158,499,o),
(258,588,o),
(390,588,cs),
(538,588,o),
(629,447,o),
(609,248,cs),
(599,121,o),
(505,32,o),
(381,32,cs)
);
}
);
};
backgroundImage = {
imagePath = "../../Desktop/Bildschirmfoto 2024-12-24 um 08.52.09.png";
pos = (633,-952);
scale = (-1.4,1.4);
};
color = 4;
layerId = m006;
shapes = (
{
closed = 1;
nodes = (
(408,-8,o),
(495,11,o),
(556,38,c),
(569,62,o),
(598,130,o),
(627,201,c),
(595,200,l),
(550,102,o),
(461,32,o),
(381,32,cs),
(225,32,o),
(128,173,o),
(148,372,cs),
(161,499,o),
(261,588,o),
(390,588,cs),
(513,588,o),
(595,510,o),
(588,400,c),
(615,400,l),
(635,472,o),
(653,535,o),
(658,551,c),
(600,596,o),
(497,628,o),
(410,628,cs),
(242,628,o),
(101,512,o),
(70,348,cs),
(30,139,o),
(145,-8,o),
(348,-8,cs)
);
}
);
width = 648;
},
{
anchors = (
{
name = bottom;
pos = (408,0);
},
{
name = top;
pos = (407,616);
}
);
associatedMasterId = m006;
background = {
shapes = (
{
closed = 1;
nodes = (
(418,588,l),
(514,588,o),
(584,528,o),
(589,444,c),
(620,444,l),
(622,495,o),
(629,558,o),
(636,595,c),
(586,614,o),
(492,627,o),
(410,627,c)
);
}
);
};
backgroundImage = {
imagePath = "../../Desktop/Bildschirmfoto 2024-12-24 um 08.52.09.png";
pos = (714,-952);
scale = (-1.4,1.4);
};
color = 4;
layerId = "9D4A0B2B-280C-459B-B0CC-D87FC70FE8CF";
name = "11. Jan. 25, 13:19";
shapes = (
{
closed = 1;
nodes = (
(479,-11,o),
(572,9,o),
(628,38,c),
(646,106,o),
(662,174,o),
(666,201,c),
(630,200,l),
(606,102,o),
(520,33,o),
(422,33,cs),
(268,33,o),
(156,158,o),
(156,335,cs),
(156,482,o),
(265,586,o),
(414,586,cs),
(506,586,o),
(582,522,o),
(597,432,c),
(637,432,l),
(634,599,l),
(584,573,l),
(551,605,o),
(477,627,o),
(404,627,cs),
(197,627,o),
(54,496,o),
(54,312,cs),
(54,123,o),
(197,-11,o),
(404,-11,cs)
);
}
);
width = 720;
},
{
anchors = (
{
name = bottom;
pos = (268,0);
},
{
name = top;
pos = (478,616);
}
);
background = {
shapes = (
{
closed = 1;
nodes = (
(337,588,l),
(433,588,o),
(503,528,o),
(508,444,c),
(539,444,l),
(541,495,o),
(548,558,o),
(555,595,c),
(505,614,o),
(411,627,o),
(329,627,c)
);
},
{
closed = 1;
nodes = (
(348,-8,cs),
(521,-8,o),
(662,108,o),
(688,272,cs),
(728,481,o),
(613,628,o),
(410,628,cs),
(237,628,o),
(96,512,o),
(70,348,cs),
(30,139,o),
(145,-8,o)
);
},
{
closed = 1;
nodes = (
(225,32,o),
(128,173,o),
(148,372,cs),
(158,499,o),
(258,588,o),
(390,588,cs),
(538,588,o),
(629,447,o),
(609,248,cs),
(599,121,o),
(505,32,o),
(381,32,cs)
);
}
);
};
backgroundImage = {
imagePath = "../../Desktop/Bildschirmfoto 2024-12-24 um 08.52.09.png";
pos = (633,-952);
scale = (-1.4,1.4);
};
color = 4;
layerId = m004;
shapes = (
{
closed = 1;
nodes = (
(408,-8,o),
(495,11,o),
(556,38,c),
(569,62,o),
(598,130,o),
(627,201,c),
(595,200,l),
(550,102,o),
(461,32,o),
(381,32,cs),
(225,32,o),
(128,173,o),
(148,372,cs),
(161,499,o),
(261,588,o),
(390,588,cs),
(513,588,o),
(595,510,o),
(588,400,c),
(615,400,l),
(635,472,o),
(653,535,o),
(658,551,c),
(600,596,o),
(497,628,o),
(410,628,cs),
(242,628,o),
(101,512,o),
(70,348,cs),
(30,139,o),
(145,-8,o),
(348,-8,cs)
);
}
);
width = 648;
},
{
anchors = (
{
name = bottom;
pos = (408,0);
},
{
name = top;
pos = (407,616);
}
);
associatedMasterId = m004;
background = {
shapes = (
{
closed = 1;
nodes = (
(418,588,l),
(514,588,o),
(584,528,o),
(589,444,c),
(620,444,l),
(622,495,o),
(629,558,o),
(636,595,c),
(586,614,o),
(492,627,o),
(410,627,c)
);
}
);
};
backgroundImage = {
imagePath = "../../Desktop/Bildschirmfoto 2024-12-24 um 08.52.09.png";
pos = (714,-952);
scale = (-1.4,1.4);
};
color = 4;
layerId = "48FEF181-2BA0-4797-BA6A-B399A2CC7205";
name = "11. Jan. 25, 13:19";
shapes = (
{
closed = 1;
nodes = (
(479,-11,o),
(572,9,o),
(628,38,c),
(646,106,o),
(662,174,o),
(666,201,c),
(630,200,l),
(606,102,o),
(520,33,o),
(422,33,cs),
(268,33,o),
(156,158,o),
(156,335,cs),
(156,482,o),
(265,586,o),
(414,586,cs),
(506,586,o),
(582,522,o),
(597,432,c),
(637,432,l),
(634,599,l),
(584,573,l),
(551,605,o),
(477,627,o),
(404,627,cs),
(197,627,o),
(54,496,o),
(54,312,cs),
(54,123,o),
(197,-11,o),
(404,-11,cs)
);
}
);
width = 720;
}
);
metricLeft = O;
metricRight = H;
unicode = 67;
},
{
glyphname = D;
lastChange = "2025-04-17 06:16:11 +0000";
layers = (
{
anchors = (
{
name = bottom;
pos = (291,0);
},
{
name = center;
pos = (214,308);
},
{
name = top;
pos = (501,616);
}
);
background = {
anchors = (
{
name = bottom;
pos = (226,0);
},
{
name = center;
pos = (291,308);
},
{
name = ogonek;
pos = (486,10);
},
{
name = top;
pos = (456,617);
},
{
name = topleft;
pos = (45,616);
},
{
name = topright;
pos = (747,616);
}
);
shapes = (
{
closed = 1;
nodes = (
(509,-8,o),
(659,123,o),
(689,308,cs),
(723,507,o),
(620,648,o),
(440,648,cs),
(258,648,o),
(108,518,o),
(77,334,cs),
(44,134,o),
(147,-8,o),
(326,-8,cs)
);
},
{
closed = 1;
nodes = (
(232,30,o),
(146,139,o),
(154,275,cs),
(165,462,o),
(283,610,o),
(420,610,cs),
(534,610,o),
(618,502,o),
(609,366,cs),
(599,179,o),
(483,30,o),
(347,30,cs)
);
}
);
};
backgroundImage = {
imagePath = "../../Desktop/Bildschirmfoto 2024-12-24 um 13.06.05.png";
pos = (717,-1011);
scale = (-1.4,1.4);
slant = (2,0);
};
color = 2;
layerId = m003;
shapes = (
{
closed = 1;
nodes = (
(-25,0,l),
(-2,0,o),
(60,0,o),
(102,0,cs),
(102,0,o),
(183,1,o),
(320,-3,c),
(335,36,l),
(244,36,o),
(174,43,o),
(166,53,cs),
(160,60,o),
(159,75,o),
(163,89,cs),
(190,187,o),
(266,478,o),
(293,576,c),
(371,578,o),
(414,580,o),
(395,580,c),
(413,619,l),
(340,617,o),
(269,616,o),
(269,616,c),
(223,616,o),
(170,616,o),
(139,616,c),
(132,592,l),
(168,585,o),
(197,578,o),
(201,574,cs),
(208,569,o),
(209,549,o),
(203,527,cs),
(145,307,o),
(123,217,o),
(149,312,cs),
(158,347,o),
(132,255,o),
(88,89,cs),
(82,69,o),
(71,49,o),
(61,41,cs),
(53,36,o),
(20,28,o),
(-18,23,c)
);
},
{
closed = 1;
nodes = (
(320,-3,l),
(505,-2,o),
(658,127,o),
(689,308,cs),
(720,490,o),
(606,619,o),
(413,619,c),
(395,580,l),
(529,580,o),
(617,491,o),
(609,366,cs),
(596,173,o),
(483,36,o),
(335,36,c)
);
}
);
width = 684;
},
{
anchors = (
{
name = bottom;
pos = (291,0);
},
{
name = center;
pos = (214,308);
},
{
name = top;
pos = (501,616);
}
);
background = {
anchors = (
{
name = bottom;
pos = (316,0);
},
{
name = center;
pos = (381,308);
},
{
name = ogonek;
pos = (576,10);
},
{
name = top;
pos = (484,617);
},
{
name = topleft;
pos = (135,616);
},
{
name = topright;
pos = (837,616);
}
);
shapes = (
{
closed = 1;
nodes = (
(329,-8,cs),
(502,-8,o),
(643,108,o),
(669,272,cs),
(709,481,o),
(594,628,o),
(391,628,cs),
(218,628,o),
(77,512,o),
(51,348,cs),
(11,139,o),
(126,-8,o)
);
},
{
closed = 1;
nodes = (
(206,32,o),
(109,173,o),
(129,372,cs),
(139,499,o),
(239,588,o),
(371,588,cs),
(519,588,o),
(610,447,o),
(590,248,cs),
(580,121,o),
(486,32,o),
(362,32,cs)
);
}
);
};
backgroundImage = {
imagePath = "../../Desktop/Bildschirmfoto 2024-12-24 um 13.06.05.png";
pos = (717,-1011);
scale = (-1.4,1.4);
};
color = 2;
layerId = m005;
shapes = (
{
closed = 1;
nodes = (
(-25,0,l),
(-2,0,o),
(60,0,o),
(102,0,cs),
(102,0,o),
(163,1,o),
(300,-3,c),
(315,36,l),
(236,36,o),
(174,43,o),
(166,53,cs),
(160,60,o),
(159,75,o),
(163,89,cs),
(190,187,o),
(266,478,o),
(293,576,c),
(360,578,o),
(394,580,o),
(375,580,c),
(393,619,l),
(320,617,o),
(269,616,o),
(269,616,c),
(223,616,o),
(170,616,o),
(139,616,c),
(132,592,l),
(168,585,o),
(197,578,o),
(201,574,cs),
(208,569,o),
(209,549,o),
(203,527,cs),
(145,307,o),
(123,217,o),
(149,312,cs),
(158,347,o),
(132,255,o),
(88,89,cs),
(82,69,o),
(71,49,o),
(61,41,cs),
(53,36,o),
(20,28,o),
(-18,23,c)
);
},
{
closed = 1;
nodes = (
(300,-3,l),
(483,-2,o),
(636,120,o),
(669,292,cs),
(706,484,o),
(591,619,o),
(393,619,c),
(375,580,l),
(520,580,o),
(609,451,o),
(590,268,cs),
(576,132,o),
(462,36,o),
(315,36,c)
);
}
);
width = 684;
},
{
anchors = (
{
name = bottom;
pos = (291,0);
},
{
name = center;
pos = (214,308);
},
{
name = top;
pos = (501,616);
}
);
background = {
anchors = (
{
name = bottom;
pos = (316,0);
},
{
name = center;
pos = (381,308);
},
{
name = ogonek;
pos = (576,10);
},
{
name = top;
pos = (484,617);
},
{
name = topleft;
pos = (135,616);
},
{
name = topright;
pos = (837,616);
}
);
shapes = (
{
closed = 1;
nodes = (
(329,-8,cs),
(502,-8,o),
(643,108,o),
(669,272,cs),
(709,481,o),
(594,628,o),
(391,628,cs),
(218,628,o),
(77,512,o),
(51,348,cs),
(11,139,o),
(126,-8,o)
);
},
{
closed = 1;
nodes = (
(206,32,o),
(109,173,o),
(129,372,cs),
(139,499,o),
(239,588,o),
(371,588,cs),
(519,588,o),
(610,447,o),
(590,248,cs),
(580,121,o),
(486,32,o),
(362,32,cs)
);
}
);
};
backgroundImage = {
imagePath = "../../Desktop/Bildschirmfoto 2024-12-24 um 13.06.05.png";
pos = (717,-1011);
scale = (-1.4,1.4);
};
color = 2;
layerId = m006;
shapes = (
{
closed = 1;
nodes = (
(-25,0,l),
(-2,0,o),
(60,0,o),
(102,0,cs),
(102,0,o),
(163,1,o),
(300,-3,c),
(315,36,l),
(236,36,o),
(174,43,o),
(166,53,cs),
(160,60,o),
(159,75,o),
(163,89,cs),
(190,187,o),
(266,478,o),
(293,576,c),
(360,578,o),
(394,580,o),
(375,580,c),
(393,619,l),
(320,617,o),
(269,616,o),
(269,616,c),
(223,616,o),
(170,616,o),
(139,616,c),
(132,592,l),
(168,585,o),
(197,578,o),
(201,574,cs),
(208,569,o),
(209,549,o),
(203,527,cs),
(145,307,o),
(123,217,o),
(149,312,cs),
(158,347,o),
(132,255,o),
(88,89,cs),
(82,69,o),
(71,49,o),
(61,41,cs),
(53,36,o),
(20,28,o),
(-18,23,c)
);
},
{
closed = 1;
nodes = (
(300,-3,l),
(483,-2,o),
(636,120,o),
(669,292,cs),
(706,484,o),
(591,619,o),
(393,619,c),
(375,580,l),
(520,580,o),
(609,451,o),
(590,268,cs),
(576,132,o),
(462,36,o),
(315,36,c)
);
}
);
width = 684;
},
{
anchors = (
{
name = bottom;
pos = (291,0);
},
{
name = center;
pos = (214,308);
},
{
name = top;
pos = (501,616);
}
);
background = {
anchors = (
{
name = bottom;
pos = (316,0);
},
{
name = center;
pos = (381,308);
},
{
name = ogonek;
pos = (576,10);
},
{
name = top;
pos = (484,617);
},
{
name = topleft;
pos = (135,616);
},
{
name = topright;
pos = (837,616);
}
);
shapes = (
{
closed = 1;
nodes = (
(329,-8,cs),
(502,-8,o),
(643,108,o),
(669,272,cs),
(709,481,o),
(594,628,o),
(391,628,cs),
(218,628,o),
(77,512,o),
(51,348,cs),
(11,139,o),
(126,-8,o)
);
},
{
closed = 1;
nodes = (
(206,32,o),
(109,173,o),
(129,372,cs),
(139,499,o),
(239,588,o),
(371,588,cs),
(519,588,o),
(610,447,o),
(590,248,cs),
(580,121,o),
(486,32,o),
(362,32,cs)
);
}
);
};
backgroundImage = {
imagePath = "../../Desktop/Bildschirmfoto 2024-12-24 um 13.06.05.png";
pos = (717,-1011);
scale = (-1.4,1.4);
};
color = 2;
layerId = m004;
shapes = (
{
closed = 1;
nodes = (
(-25,0,l),
(-2,0,o),
(60,0,o),
(102,0,cs),
(102,0,o),
(163,1,o),
(300,-3,c),
(315,36,l),
(236,36,o),
(174,43,o),
(166,53,cs),
(160,60,o),
(159,75,o),
(163,89,cs),
(190,187,o),
(266,478,o),
(293,576,c),
(360,578,o),
(394,580,o),
(375,580,c),
(393,619,l),
(320,617,o),
(269,616,o),
(269,616,c),
(223,616,o),
(170,616,o),
(139,616,c),
(132,592,l),
(168,585,o),
(197,578,o),
(201,574,cs),
(208,569,o),
(209,549,o),
(203,527,cs),
(145,307,o),
(123,217,o),
(149,312,cs),
(158,347,o),
(132,255,o),
(88,89,cs),
(82,69,o),
(71,49,o),
(61,41,cs),
(53,36,o),
(20,28,o),
(-18,23,c)
);
},
{
closed = 1;
nodes = (
(300,-3,l),
(483,-2,o),
(636,120,o),
(669,292,cs),
(706,484,o),
(591,619,o),
(393,619,c),
(375,580,l),
(520,580,o),
(609,451,o),
(590,268,cs),
(576,132,o),
(462,36,o),
(315,36,c)
);
}
);
width = 684;
}
);
metricLeft = H;
metricRight = O;
unicode = 68;
},
{
glyphname = E;
lastChange = "2025-04-15 19:32:03 +0000";
layers = (
{
anchors = (
{
name = bottom;
pos = (216,0);
},
{
name = ogonek;
pos = (449,10);
},
{
name = top;
pos = (426,616);
},
{
name = topleft;
pos = (158,616);
}
);
color = 2;
guides = (
{
angle = 77.035;
lockAngle = 1;
pos = (52,-67);
}
);
layerId = m003;
shapes = (
{
closed = 1;
nodes = (
(1,-1,o),
(49,0,o),
(94,0,c),
(237,0,o),
(385,-1,o),
(461,-3,c),
(486,44,o),
(513,110,o),
(527,157,c),
(498,157,l),
(469,90,o),
(418,43,o),
(373,40,cs),
(341,38,o),
(287,37,o),
(230,37,cs),
(196,37,o),
(171,42,o),
(163,52,cs),
(155,62,o),
(157,76,o),
(161,96,cs),
(206,265,o),
(246,416,o),
(290,576,c),
(327,578,o),
(366,578,o),
(388,578,cs),
(416,578,o),
(449,578,o),
(481,576,cs),
(506,574,o),
(521,544,o),
(516,499,c),
(542,499,l),
(554,536,o),
(571,586,o),
(588,619,c),
(522,617,o),
(389,616,o),
(268,616,c),
(219,616,o),
(167,617,o),
(139,618,c),
(131,589,l),
(164,584,o),
(187,581,o),
(199,567,cs),
(205,558,o),
(208,544,o),
(201,521,c),
(87,91,l),
(80,67,o),
(72,52,o),
(59,42,cs),
(42,29,o),
(18,26,o),
(-20,23,c),
(-26,-2,l)
);
},
{
closed = 1;
nodes = (
(395,206,l),
(407,272,o),
(432,364,o),
(454,430,c),
(432,430,l),
(430,424,o),
(421,410,o),
(412,396,c),
(386,360,o),
(357,336,o),
(297,336,cs),
(177,336,l),
(165,296,l),
(285,296,ls),
(352,296,o),
(369,274,o),
(372,242,cs),
(374,206,l)
);
}
);
width = 558;
},
{
anchors = (
{
name = bottom;
pos = (216,0);
},
{
name = ogonek;
pos = (449,10);
},
{
name = top;
pos = (426,616);
},
{
name = topleft;
pos = (158,616);
}
);
color = 2;
guides = (
{
angle = 77.035;
lockAngle = 1;
pos = (52,-67);
}
);
layerId = m005;
shapes = (
{
closed = 1;
nodes = (
(1,-1,o),
(49,0,o),
(94,0,c),
(237,0,o),
(385,-1,o),
(461,-3,c),
(486,44,o),
(513,110,o),
(527,157,c),
(498,157,l),
(469,90,o),
(418,43,o),
(373,40,cs),
(341,38,o),
(287,37,o),
(230,37,cs),
(196,37,o),
(171,42,o),
(163,52,cs),
(155,62,o),
(157,76,o),
(161,96,cs),
(206,265,o),
(246,416,o),
(290,576,c),
(327,578,o),
(366,578,o),
(388,578,cs),
(416,578,o),
(449,578,o),
(481,576,cs),
(506,574,o),
(521,544,o),
(516,499,c),
(542,499,l),
(554,536,o),
(571,586,o),
(588,619,c),
(522,617,o),
(389,616,o),
(268,616,c),
(219,616,o),
(167,617,o),
(139,618,c),
(131,589,l),
(164,584,o),
(187,581,o),
(199,567,cs),
(205,558,o),
(208,544,o),
(201,521,c),
(87,91,l),
(80,67,o),
(72,52,o),
(59,42,cs),
(42,29,o),
(18,26,o),
(-20,23,c),
(-26,-2,l)
);
},
{
closed = 1;
nodes = (
(395,206,l),
(407,272,o),
(432,364,o),
(454,430,c),
(432,430,l),
(430,424,o),
(421,410,o),
(412,396,c),
(386,360,o),
(357,336,o),
(297,336,cs),
(177,336,l),
(165,296,l),
(285,296,ls),
(352,296,o),
(369,274,o),
(372,242,cs),
(374,206,l)
);
}
);
width = 558;
},
{
anchors = (
{
name = bottom;
pos = (216,0);
},
{
name = ogonek;
pos = (449,10);
},
{
name = top;
pos = (426,616);
},
{
name = topleft;
pos = (158,616);
}
);
color = 2;
guides = (
{
angle = 77.035;
lockAngle = 1;
pos = (52,-67);
}
);
layerId = m006;
shapes = (
{
closed = 1;
nodes = (
(1,-1,o),
(49,0,o),
(94,0,c),
(237,0,o),
(385,-1,o),
(461,-3,c),
(486,44,o),
(513,110,o),
(527,157,c),
(498,157,l),
(469,90,o),
(418,43,o),
(373,40,cs),
(341,38,o),
(287,37,o),
(230,37,cs),
(196,37,o),
(171,42,o),
(163,52,cs),
(155,62,o),
(157,76,o),
(161,96,cs),
(206,265,o),
(246,416,o),
(290,576,c),
(327,578,o),
(366,578,o),
(388,578,cs),
(416,578,o),
(449,578,o),
(481,576,cs),
(506,574,o),
(521,544,o),
(516,499,c),
(542,499,l),
(554,536,o),
(571,586,o),
(588,619,c),
(522,617,o),
(389,616,o),
(268,616,c),
(219,616,o),
(167,617,o),
(139,618,c),
(131,589,l),
(164,584,o),
(187,581,o),
(199,567,cs),
(205,558,o),
(208,544,o),
(201,521,c),
(87,91,l),
(80,67,o),
(72,52,o),
(59,42,cs),
(42,29,o),
(18,26,o),
(-20,23,c),
(-26,-2,l)
);
},
{
closed = 1;
nodes = (
(395,206,l),
(407,272,o),
(432,364,o),
(454,430,c),
(432,430,l),
(430,424,o),
(421,410,o),
(412,396,c),
(386,360,o),
(357,336,o),
(297,336,cs),
(177,336,l),
(165,296,l),
(285,296,ls),
(352,296,o),
(369,274,o),
(372,242,cs),
(374,206,l)
);
}
);
width = 558;
},
{
anchors = (
{
name = bottom;
pos = (216,0);
},
{
name = ogonek;
pos = (449,10);
},
{
name = top;
pos = (426,616);
},
{
name = topleft;
pos = (158,616);
}
);
color = 2;
guides = (
{
angle = 77.035;
lockAngle = 1;
pos = (52,-67);
}
);
layerId = m004;
shapes = (
{
closed = 1;
nodes = (
(1,-1,o),
(49,0,o),
(94,0,c),
(237,0,o),
(385,-1,o),
(461,-3,c),
(486,44,o),
(513,110,o),
(527,157,c),
(498,157,l),
(469,90,o),
(418,43,o),
(373,40,cs),
(341,38,o),
(287,37,o),
(230,37,cs),
(196,37,o),
(171,42,o),
(163,52,cs),
(155,62,o),
(157,76,o),
(161,96,cs),
(206,265,o),
(246,416,o),
(290,576,c),
(327,578,o),
(366,578,o),
(388,578,cs),
(416,578,o),
(449,578,o),
(481,576,cs),
(506,574,o),
(521,544,o),
(516,499,c),
(542,499,l),
(554,536,o),
(571,586,o),
(588,619,c),
(522,617,o),
(389,616,o),
(268,616,c),
(219,616,o),
(167,617,o),
(139,618,c),
(131,589,l),
(164,584,o),
(187,581,o),
(199,567,cs),
(205,558,o),
(208,544,o),
(201,521,c),
(87,91,l),
(80,67,o),
(72,52,o),
(59,42,cs),
(42,29,o),
(18,26,o),
(-20,23,c),
(-26,-2,l)
);
},
{
closed = 1;
nodes = (
(395,206,l),
(407,272,o),
(432,364,o),
(454,430,c),
(432,430,l),
(430,424,o),
(421,410,o),
(412,396,c),
(386,360,o),
(357,336,o),
(297,336,cs),
(177,336,l),
(165,296,l),
(285,296,ls),
(352,296,o),
(369,274,o),
(372,242,cs),
(374,206,l)
);
}
);
width = 558;
}
);
metricLeft = H;
metricRight = H;
unicode = 69;
},
{
glyphname = F;
lastChange = "2025-04-15 19:32:03 +0000";
layers = (
{
anchors = (
{
name = bottom;
pos = (188,0);
},
{
name = top;
pos = (398,616);
}
);
background = {
shapes = (
{
closed = 1;
nodes = (
(-24,0,l),
(259,0,l),
(259,40,l),
(214,40,o),
(179,38,o),
(160,54,cs),
(151,62,o),
(146,73,o),
(146,91,cs),
(144,307,o),
(143,377,o),
(147,574,c),
(164,576,o),
(216,576,o),
(239,576,c),
(239,616,l),
(-24,616,l),
(-24,591,l),
(10,581,o),
(34,582,o),
(48,572,cs),
(58,565,o),
(63,552,o),
(63,525,cs),
(64,341,o),
(65,253,o),
(65,312,cs),
(65,373,o),
(64,282,o),
(63,91,cs),
(63,65,o),
(57,51,o),
(48,43,cs),
(32,29,o),
(6,31,o),
(-24,25,c)
);
}
);
};
color = 2;
layerId = m003;
shapes = (
{
closed = 1;
nodes = (
(0,0,o),
(206,0,o),
(261,0,c),
(259,29,l),
(208,35,o),
(175,35,o),
(162,54,cs),
(156,64,o),
(155,79,o),
(162,103,cs),
(201,260,o),
(245,421,o),
(289,578,c),
(311,579,o),
(370,580,o),
(392,580,cs),
(420,580,o),
(450,580,o),
(481,578,cs),
(506,576,o),
(520,544,o),
(515,499,c),
(539,499,l),
(552,536,o),
(571,586,o),
(588,619,c),
(522,617,o),
(387,616,o),
(267,616,c),
(218,616,o),
(167,617,o),
(139,618,c),
(132,592,l),
(164,586,o),
(187,584,o),
(199,572,cs),
(206,563,o),
(208,550,o),
(201,525,cs),
(165,380,o),
(126,236,o),
(86,91,cs),
(79,67,o),
(72,53,o),
(61,44,cs),
(44,30,o),
(20,27,o),
(-21,23,c),
(-27,-1,l)
);
},
{
closed = 1;
nodes = (
(399,206,l),
(410,272,o),
(435,364,o),
(458,430,c),
(437,430,l),
(435,424,o),
(426,410,o),
(417,396,c),
(391,360,o),
(362,336,o),
(320,336,cs),
(186,336,l),
(174,296,l),
(308,296,ls),
(357,296,o),
(374,274,o),
(377,242,cs),
(379,206,l)
);
}
);
width = 504;
},
{
anchors = (
{
name = bottom;
pos = (188,0);
},
{
name = top;
pos = (398,616);
}
);
background = {
shapes = (
{
closed = 1;
nodes = (
(-24,0,l),
(259,0,l),
(259,40,l),
(214,40,o),
(179,38,o),
(160,54,cs),
(151,62,o),
(146,73,o),
(146,91,cs),
(144,307,o),
(143,377,o),
(147,574,c),
(164,576,o),
(216,576,o),
(239,576,c),
(239,616,l),
(-24,616,l),
(-24,591,l),
(10,581,o),
(34,582,o),
(48,572,cs),
(58,565,o),
(63,552,o),
(63,525,cs),
(64,341,o),
(65,253,o),
(65,312,cs),
(65,373,o),
(64,282,o),
(63,91,cs),
(63,65,o),
(57,51,o),
(48,43,cs),
(32,29,o),
(6,31,o),
(-24,25,c)
);
}
);
};
color = 2;
layerId = m005;
shapes = (
{
closed = 1;
nodes = (
(0,0,o),
(206,0,o),
(261,0,c),
(259,29,l),
(208,35,o),
(175,35,o),
(162,54,cs),
(156,64,o),
(155,79,o),
(162,103,cs),
(201,260,o),
(245,421,o),
(289,578,c),
(311,579,o),
(370,580,o),
(392,580,cs),
(420,580,o),
(450,580,o),
(481,578,cs),
(506,576,o),
(520,544,o),
(515,499,c),
(539,499,l),
(552,536,o),
(571,586,o),
(588,619,c),
(522,617,o),
(387,616,o),
(267,616,c),
(218,616,o),
(167,617,o),
(139,618,c),
(132,592,l),
(164,586,o),
(187,584,o),
(199,572,cs),
(206,563,o),
(208,550,o),
(201,525,cs),
(165,380,o),
(126,236,o),
(86,91,cs),
(79,67,o),
(72,53,o),
(61,44,cs),
(44,30,o),
(20,27,o),
(-21,23,c),
(-27,-1,l)
);
},
{
closed = 1;
nodes = (
(399,206,l),
(410,272,o),
(435,364,o),
(458,430,c),
(437,430,l),
(435,424,o),
(426,410,o),
(417,396,c),
(391,360,o),
(362,336,o),
(320,336,cs),
(186,336,l),
(174,296,l),
(308,296,ls),
(357,296,o),
(374,274,o),
(377,242,cs),
(379,206,l)
);
}
);
width = 504;
},
{
anchors = (
{
name = bottom;
pos = (188,0);
},
{
name = top;
pos = (398,616);
}
);
background = {
shapes = (
{
closed = 1;
nodes = (
(-24,0,l),
(259,0,l),
(259,40,l),
(214,40,o),
(179,38,o),
(160,54,cs),
(151,62,o),
(146,73,o),
(146,91,cs),
(144,307,o),
(143,377,o),
(147,574,c),
(164,576,o),
(216,576,o),
(239,576,c),
(239,616,l),
(-24,616,l),
(-24,591,l),
(10,581,o),
(34,582,o),
(48,572,cs),
(58,565,o),
(63,552,o),
(63,525,cs),
(64,341,o),
(65,253,o),
(65,312,cs),
(65,373,o),
(64,282,o),
(63,91,cs),
(63,65,o),
(57,51,o),
(48,43,cs),
(32,29,o),
(6,31,o),
(-24,25,c)
);
}
);
};
color = 2;
layerId = m006;
shapes = (
{
closed = 1;
nodes = (
(0,0,o),
(206,0,o),
(261,0,c),
(259,29,l),
(208,35,o),
(175,35,o),
(162,54,cs),
(156,64,o),
(155,79,o),
(162,103,cs),
(201,260,o),
(245,421,o),
(289,578,c),
(311,579,o),
(370,580,o),
(392,580,cs),
(420,580,o),
(450,580,o),
(481,578,cs),
(506,576,o),
(520,544,o),
(515,499,c),
(539,499,l),
(552,536,o),
(571,586,o),
(588,619,c),
(522,617,o),
(387,616,o),
(267,616,c),
(218,616,o),
(167,617,o),
(139,618,c),
(132,592,l),
(164,586,o),
(187,584,o),
(199,572,cs),
(206,563,o),
(208,550,o),
(201,525,cs),
(165,380,o),
(126,236,o),
(86,91,cs),
(79,67,o),
(72,53,o),
(61,44,cs),
(44,30,o),
(20,27,o),
(-21,23,c),
(-27,-1,l)
);
},
{
closed = 1;
nodes = (
(399,206,l),
(410,272,o),
(435,364,o),
(458,430,c),
(437,430,l),
(435,424,o),
(426,410,o),
(417,396,c),
(391,360,o),
(362,336,o),
(320,336,cs),
(186,336,l),
(174,296,l),
(308,296,ls),
(357,296,o),
(374,274,o),
(377,242,cs),
(379,206,l)
);
}
);
width = 504;
},
{
anchors = (
{
name = bottom;
pos = (188,0);
},
{
name = top;
pos = (398,616);
}
);
background = {
shapes = (
{
closed = 1;
nodes = (
(-24,0,l),
(259,0,l),
(259,40,l),
(214,40,o),
(179,38,o),
(160,54,cs),
(151,62,o),
(146,73,o),
(146,91,cs),
(144,307,o),
(143,377,o),
(147,574,c),
(164,576,o),
(216,576,o),
(239,576,c),
(239,616,l),
(-24,616,l),
(-24,591,l),
(10,581,o),
(34,582,o),
(48,572,cs),
(58,565,o),
(63,552,o),
(63,525,cs),
(64,341,o),
(65,253,o),
(65,312,cs),
(65,373,o),
(64,282,o),
(63,91,cs),
(63,65,o),
(57,51,o),
(48,43,cs),
(32,29,o),
(6,31,o),
(-24,25,c)
);
}
);
};
color = 2;
layerId = m004;
shapes = (
{
closed = 1;
nodes = (
(0,0,o),
(206,0,o),
(261,0,c),
(259,29,l),
(208,35,o),
(175,35,o),
(162,54,cs),
(156,64,o),
(155,79,o),
(162,103,cs),
(201,260,o),
(245,421,o),
(289,578,c),
(311,579,o),
(370,580,o),
(392,580,cs),
(420,580,o),
(450,580,o),
(481,578,cs),
(506,576,o),
(520,544,o),
(515,499,c),
(539,499,l),
(552,536,o),
(571,586,o),
(588,619,c),
(522,617,o),
(387,616,o),
(267,616,c),
(218,616,o),
(167,617,o),
(139,618,c),
(132,592,l),
(164,586,o),
(187,584,o),
(199,572,cs),
(206,563,o),
(208,550,o),
(201,525,cs),
(165,380,o),
(126,236,o),
(86,91,cs),
(79,67,o),
(72,53,o),
(61,44,cs),
(44,30,o),
(20,27,o),
(-21,23,c),
(-27,-1,l)
);
},
{
closed = 1;
nodes = (
(399,206,l),
(410,272,o),
(435,364,o),
(458,430,c),
(437,430,l),
(435,424,o),
(426,410,o),
(417,396,c),
(391,360,o),
(362,336,o),
(320,336,cs),
(186,336,l),
(174,296,l),
(308,296,ls),
(357,296,o),
(374,274,o),
(377,242,cs),
(379,206,l)
);
}
);
width = 504;
}
);
metricLeft = H;
metricRight = O;
unicode = 70;
},
{
glyphname = G;
lastChange = "2025-04-17 06:15:19 +0000";
layers = (
{
anchors = (
{
name = bottom;
pos = (282,0);
},
{
name = top;
pos = (492,616);
}
);
background = {
anchors = (
{
name = bottom;
pos = (268,0);
},
{
name = top;
pos = (478,616);
}
);
shapes = (
{
closed = 1;
nodes = (
(400,-8,o),
(495,11,o),
(556,38,c),
(565,53,o),
(594,121,o),
(627,201,c),
(595,200,l),
(549,100,o),
(446,30,o),
(347,30,cs),
(225,30,o),
(145,132,o),
(154,275,cs),
(166,471,o),
(276,610,o),
(420,610,cs),
(526,610,o),
(595,531,o),
(588,420,c),
(615,420,l),
(638,503,o),
(656,566,o),
(658,571,c),
(600,616,o),
(510,648,o),
(440,648,cs),
(258,648,o),
(108,518,o),
(77,334,cs),
(43,134,o),
(146,-8,o),
(326,-8,cs)
);
}
);
};
backgroundImage = {
imagePath = "../../Desktop/Bildschirmfoto 2024-12-23 um 19.38.00.png";
pos = (635,-876);
scale = (-1.37,1.3692);
slant = (1.9988,0);
};
color = 3;
layerId = m003;
shapes = (
{
closed = 1;
nodes = (
(412,-8,o),
(515,13,o),
(575,43,c),
(574,56,l),
(557,57,o),
(548,67,o),
(552,79,c),
(584,200,l),
(591,226,o),
(612,247,o),
(634,252,c),
(672,258,l),
(679,287,l),
(437,287,l),
(428,253,l),
(483,244,o),
(516,217,o),
(508,188,c),
(479,76,l),
(471,49,o),
(416,30,o),
(347,30,cs),
(225,30,o),
(145,132,o),
(154,275,cs),
(166,471,o),
(276,610,o),
(420,610,cs),
(527,610,o),
(596,531,o),
(587,420,c),
(615,420,l),
(636,498,o),
(654,560,o),
(658,571,c),
(599,616,o),
(509,648,o),
(440,648,cs),
(258,648,o),
(108,518,o),
(77,334,cs),
(43,134,o),
(146,-8,o),
(326,-8,cs)
);
}
);
width = 684;
},
{
anchors = (
{
name = bottom;
pos = (282,0);
},
{
name = top;
pos = (492,616);
}
);
background = {
anchors = (
{
name = bottom;
pos = (268,0);
},
{
name = top;
pos = (478,616);
}
);
shapes = (
{
closed = 1;
nodes = (
(408,-8,o),
(495,11,o),
(556,38,c),
(569,62,o),
(598,130,o),
(627,201,c),
(595,200,l),
(550,102,o),
(461,32,o),
(381,32,cs),
(225,32,o),
(128,173,o),
(148,372,cs),
(161,499,o),
(261,588,o),
(390,588,cs),
(513,588,o),
(595,510,o),
(588,400,c),
(615,400,l),
(635,472,o),
(653,535,o),
(658,551,c),
(600,596,o),
(497,628,o),
(410,628,cs),
(242,628,o),
(101,512,o),
(70,348,cs),
(30,139,o),
(145,-8,o),
(348,-8,cs)
);
}
);
};
backgroundImage = {
imagePath = "../../Desktop/Bildschirmfoto 2024-12-23 um 19.38.00.png";
pos = (635,-876);
scale = (-1.37,1.3692);
};
color = 3;
layerId = m005;
shapes = (
{
closed = 1;
nodes = (
(421,-8,o),
(515,13,o),
(575,43,c),
(574,56,l),
(557,57,o),
(548,66,o),
(552,79,c),
(584,200,l),
(591,226,o),
(611,247,o),
(634,252,c),
(672,258,l),
(679,287,l),
(437,287,l),
(428,253,l),
(483,244,o),
(516,217,o),
(508,188,c),
(479,76,l),
(471,50,o),
(431,32,o),
(381,32,cs),
(224,32,o),
(128,175,o),
(148,376,cs),
(161,500,o),
(261,588,o),
(390,588,cs),
(514,588,o),
(596,510,o),
(587,400,c),
(615,400,l),
(636,478,o),
(654,541,o),
(658,551,c),
(599,596,o),
(497,628,o),
(410,628,cs),
(242,628,o),
(101,514,o),
(70,352,cs),
(30,141,o),
(145,-8,o),
(348,-8,cs)
);
}
);
width = 684;
},
{
anchors = (
{
name = bottom;
pos = (282,0);
},
{
name = top;
pos = (492,616);
}
);
background = {
anchors = (
{
name = bottom;
pos = (268,0);
},
{
name = top;
pos = (478,616);
}
);
shapes = (
{
closed = 1;
nodes = (
(408,-8,o),
(495,11,o),
(556,38,c),
(569,62,o),
(598,130,o),
(627,201,c),
(595,200,l),
(550,102,o),
(461,32,o),
(381,32,cs),
(225,32,o),
(128,173,o),
(148,372,cs),
(161,499,o),
(261,588,o),
(390,588,cs),
(513,588,o),
(595,510,o),
(588,400,c),
(615,400,l),
(635,472,o),
(653,535,o),
(658,551,c),
(600,596,o),
(497,628,o),
(410,628,cs),
(242,628,o),
(101,512,o),
(70,348,cs),
(30,139,o),
(145,-8,o),
(348,-8,cs)
);
}
);
};
backgroundImage = {
imagePath = "../../Desktop/Bildschirmfoto 2024-12-23 um 19.38.00.png";
pos = (635,-876);
scale = (-1.37,1.3692);
};
color = 3;
layerId = m006;
shapes = (
{
closed = 1;
nodes = (
(421,-8,o),
(515,13,o),
(575,43,c),
(574,56,l),
(557,57,o),
(548,66,o),
(552,79,c),
(584,200,l),
(591,226,o),
(611,247,o),
(634,252,c),
(672,258,l),
(679,287,l),
(437,287,l),
(428,253,l),
(483,244,o),
(516,217,o),
(508,188,c),
(479,76,l),
(471,50,o),
(431,32,o),
(381,32,cs),
(224,32,o),
(128,175,o),
(148,376,cs),
(161,500,o),
(261,588,o),
(390,588,cs),
(514,588,o),
(596,510,o),
(587,400,c),
(615,400,l),
(636,478,o),
(654,541,o),
(658,551,c),
(599,596,o),
(497,628,o),
(410,628,cs),
(242,628,o),
(101,514,o),
(70,352,cs),
(30,141,o),
(145,-8,o),
(348,-8,cs)
);
}
);
width = 684;
},
{
anchors = (
{
name = bottom;
pos = (282,0);
},
{
name = top;
pos = (492,616);
}
);
background = {
anchors = (
{
name = bottom;
pos = (268,0);
},
{
name = top;
pos = (478,616);
}
);
shapes = (
{
closed = 1;
nodes = (
(408,-8,o),
(495,11,o),
(556,38,c),
(569,62,o),
(598,130,o),
(627,201,c),
(595,200,l),
(550,102,o),
(461,32,o),
(381,32,cs),
(225,32,o),
(128,173,o),
(148,372,cs),
(161,499,o),
(261,588,o),
(390,588,cs),
(513,588,o),
(595,510,o),
(588,400,c),
(615,400,l),
(635,472,o),
(653,535,o),
(658,551,c),
(600,596,o),
(497,628,o),
(410,628,cs),
(242,628,o),
(101,512,o),
(70,348,cs),
(30,139,o),
(145,-8,o),
(348,-8,cs)
);
}
);
};
backgroundImage = {
imagePath = "../../Desktop/Bildschirmfoto 2024-12-23 um 19.38.00.png";
pos = (635,-876);
scale = (-1.37,1.3692);
};
color = 3;
layerId = m004;
shapes = (
{
closed = 1;
nodes = (
(421,-8,o),
(515,13,o),
(575,43,c),
(574,56,l),
(557,57,o),
(548,66,o),
(552,79,c),
(584,200,l),
(591,226,o),
(611,247,o),
(634,252,c),
(672,258,l),
(679,287,l),
(437,287,l),
(428,253,l),
(483,244,o),
(516,217,o),
(508,188,c),
(479,76,l),
(471,50,o),
(431,32,o),
(381,32,cs),
(224,32,o),
(128,175,o),
(148,376,cs),
(161,500,o),
(261,588,o),
(390,588,cs),
(514,588,o),
(596,510,o),
(587,400,c),
(615,400,l),
(636,478,o),
(654,541,o),
(658,551,c),
(599,596,o),
(497,628,o),
(410,628,cs),
(242,628,o),
(101,514,o),
(70,352,cs),
(30,141,o),
(145,-8,o),
(348,-8,cs)
);
}
);
width = 684;
}
);
metricLeft = O;
metricRight = O;
unicode = 71;
},
{
glyphname = H;
lastChange = "2025-04-15 19:32:03 +0000";
layers = (
{
anchors = (
{
name = bottom;
pos = (321,0);
},
{
name = center;
pos = (478,462);
},
{
name = top;
pos = (531,616);
},
{
name = topleft;
pos = (158,616);
}
);
background = {
shapes = (
{
closed = 1;
nodes = (
(138,609,l,{
"Letterink-NibData" = {
AngleInDegrees = "0";
};
}),
(134,616,l,{
"Letterink-NibData" = {
AngleInDegrees = "360";
};
}),
(65,576,l),
(65,7,l,{
"Letterink-NibData" = {
AngleInDegrees = "360";
};
}),
(69,0,l,{
"Letterink-NibData" = {
AngleInDegrees = "360";
};
}),
(138,40,l),
(138,304,l),
(552,304,l),
(552,7,l,{
"Letterink-NibData" = {
AngleInDegrees = "360";
};
}),
(556,0,l,{
"Letterink-NibData" = {
AngleInDegrees = "360";
};
}),
(626,40,l),
(626,609,l,{
"Letterink-NibData" = {
AngleInDegrees = "0";
};
}),
(622,616,l,{
"Letterink-NibData" = {
AngleInDegrees = "359.99999";
};
}),
(552,576,l),
(552,351,l),
(138,351,l)
);
},
{
closed = 0;
nodes = (
(210,616,l),
(210,591,l),
(182,583,o),
(164,576,o),
(153,564,cs),
(144,553,o),
(140,538,o),
(140,512,cs)
);
}
);
};
color = 1;
layerId = m003;
shapes = (
{
closed = 1;
nodes = (
(54,2,o),
(155,2,o),
(245,0,c),
(253,23,l),
(224,31,o),
(182,37,o),
(175,49,cs),
(167,59,o),
(157,75,o),
(164,102,cs),
(182,176,o),
(202,250,o),
(219,326,cs),
(233,389,o),
(254,452,o),
(272,514,cs),
(280,541,o),
(299,560,o),
(311,567,cs),
(335,582,o),
(370,585,o),
(403,593,c),
(409,616,l),
(318,614,o),
(218,614,o),
(129,616,c),
(123,593,l),
(153,587,o),
(192,574,o),
(200,562,cs),
(206,551,o),
(208,540,o),
(201,514,cs),
(186,452,o),
(167,390,o),
(152,327,cs),
(134,251,o),
(113,176,o),
(93,102,cs),
(86,76,o),
(78,61,o),
(66,50,cs),
(51,38,o),
(-6,31,o),
(-30,23,c),
(-36,0,l)
);
},
{
closed = 1;
nodes = (
(515,2,o),
(612,2,o),
(702,0,c),
(708,23,l),
(689,29,o),
(647,38,o),
(640,50,cs),
(632,60,o),
(628,75,o),
(635,102,cs),
(653,177,o),
(674,253,o),
(694,330,cs),
(710,391,o),
(728,453,o),
(745,514,cs),
(752,541,o),
(758,556,o),
(772,567,cs),
(786,579,o),
(838,588,o),
(861,593,c),
(867,616,l),
(776,614,o),
(678,614,o),
(589,616,c),
(583,593,l),
(613,585,o),
(651,576,o),
(665,566,cs),
(677,557,o),
(681,540,o),
(674,514,cs),
(659,453,o),
(642,390,o),
(626,329,cs),
(606,252,o),
(589,176,o),
(564,102,cs),
(552,66,o),
(539,58,o),
(519,44,cs),
(501,31,o),
(467,28,o),
(433,23,c),
(425,0,l)
);
},
{
closed = 1;
nodes = (
(639,304,l),
(653,349,l),
(204,349,l),
(192,304,l)
);
}
);
width = 774;
},
{
anchors = (
{
name = bottom;
pos = (321,0);
},
{
name = center;
pos = (478,462);
},
{
name = top;
pos = (531,616);
},
{
name = topleft;
pos = (158,616);
}
);
background = {
shapes = (
{
closed = 1;
nodes = (
(138,609,l,{
"Letterink-NibData" = {
AngleInDegrees = "0";
};
}),
(134,616,l,{
"Letterink-NibData" = {
AngleInDegrees = "360";
};
}),
(65,576,l),
(65,7,l,{
"Letterink-NibData" = {
AngleInDegrees = "360";
};
}),
(69,0,l,{
"Letterink-NibData" = {
AngleInDegrees = "360";
};
}),
(138,40,l),
(138,304,l),
(552,304,l),
(552,7,l,{
"Letterink-NibData" = {
AngleInDegrees = "360";
};
}),
(556,0,l,{
"Letterink-NibData" = {
AngleInDegrees = "360";
};
}),
(626,40,l),
(626,609,l,{
"Letterink-NibData" = {
AngleInDegrees = "0";
};
}),
(622,616,l,{
"Letterink-NibData" = {
AngleInDegrees = "359.99999";
};
}),
(552,576,l),
(552,351,l),
(138,351,l)
);
},
{
closed = 0;
nodes = (
(210,616,l),
(210,591,l),
(182,583,o),
(164,576,o),
(153,564,cs),
(144,553,o),
(140,538,o),
(140,512,cs)
);
}
);
};
color = 1;
layerId = m005;
shapes = (
{
closed = 1;
nodes = (
(54,2,o),
(155,2,o),
(245,0,c),
(253,23,l),
(224,31,o),
(182,37,o),
(175,49,cs),
(167,59,o),
(157,75,o),
(164,102,cs),
(182,176,o),
(202,250,o),
(219,326,cs),
(233,389,o),
(254,452,o),
(272,514,cs),
(280,541,o),
(299,560,o),
(311,567,cs),
(335,582,o),
(370,585,o),
(403,593,c),
(409,616,l),
(318,614,o),
(218,614,o),
(129,616,c),
(123,593,l),
(153,587,o),
(192,574,o),
(200,562,cs),
(206,551,o),
(208,540,o),
(201,514,cs),
(186,452,o),
(167,390,o),
(152,327,cs),
(134,251,o),
(113,176,o),
(93,102,cs),
(86,76,o),
(78,61,o),
(66,50,cs),
(51,38,o),
(-6,31,o),
(-30,23,c),
(-36,0,l)
);
},
{
closed = 1;
nodes = (
(515,2,o),
(612,2,o),
(702,0,c),
(708,23,l),
(689,29,o),
(647,38,o),
(640,50,cs),
(632,60,o),
(628,75,o),
(635,102,cs),
(653,177,o),
(674,253,o),
(694,330,cs),
(710,391,o),
(728,453,o),
(745,514,cs),
(752,541,o),
(758,556,o),
(772,567,cs),
(786,579,o),
(838,588,o),
(861,593,c),
(867,616,l),
(776,614,o),
(678,614,o),
(589,616,c),
(583,593,l),
(613,585,o),
(651,576,o),
(665,566,cs),
(677,557,o),
(681,540,o),
(674,514,cs),
(659,453,o),
(642,390,o),
(626,329,cs),
(606,252,o),
(589,176,o),
(564,102,cs),
(552,66,o),
(539,58,o),
(519,44,cs),
(501,31,o),
(467,28,o),
(433,23,c),
(425,0,l)
);
},
{
closed = 1;
nodes = (
(639,304,l),
(653,349,l),
(204,349,l),
(192,304,l)
);
}
);
width = 774;
},
{
anchors = (
{
name = bottom;
pos = (321,0);
},
{
name = center;
pos = (478,462);
},
{
name = top;
pos = (531,616);
},
{
name = topleft;
pos = (158,616);
}
);
background = {
shapes = (
{
closed = 1;
nodes = (
(138,609,l,{
"Letterink-NibData" = {
AngleInDegrees = "0";
};
}),
(134,616,l,{
"Letterink-NibData" = {
AngleInDegrees = "360";
};
}),
(65,576,l),
(65,7,l,{
"Letterink-NibData" = {
AngleInDegrees = "360";
};
}),
(69,0,l,{
"Letterink-NibData" = {
AngleInDegrees = "360";
};
}),
(138,40,l),
(138,304,l),
(552,304,l),
(552,7,l,{
"Letterink-NibData" = {
AngleInDegrees = "360";
};
}),
(556,0,l,{
"Letterink-NibData" = {
AngleInDegrees = "360";
};
}),
(626,40,l),
(626,609,l,{
"Letterink-NibData" = {
AngleInDegrees = "0";
};
}),
(622,616,l,{
"Letterink-NibData" = {
AngleInDegrees = "359.99999";
};
}),
(552,576,l),
(552,351,l),
(138,351,l)
);
},
{
closed = 0;
nodes = (
(210,616,l),
(210,591,l),
(182,583,o),
(164,576,o),
(153,564,cs),
(144,553,o),
(140,538,o),
(140,512,cs)
);
}
);
};
color = 1;
layerId = m006;
shapes = (
{
closed = 1;
nodes = (
(54,2,o),
(155,2,o),
(245,0,c),
(253,23,l),
(224,31,o),
(182,37,o),
(175,49,cs),
(167,59,o),
(157,75,o),
(164,102,cs),
(182,176,o),
(202,250,o),
(219,326,cs),
(233,389,o),
(254,452,o),
(272,514,cs),
(280,541,o),
(299,560,o),
(311,567,cs),
(335,582,o),
(370,585,o),
(403,593,c),
(409,616,l),
(318,614,o),
(218,614,o),
(129,616,c),
(123,593,l),
(153,587,o),
(192,574,o),
(200,562,cs),
(206,551,o),
(208,540,o),
(201,514,cs),
(186,452,o),
(167,390,o),
(152,327,cs),
(134,251,o),
(113,176,o),
(93,102,cs),
(86,76,o),
(78,61,o),
(66,50,cs),
(51,38,o),
(-6,31,o),
(-30,23,c),
(-36,0,l)
);
},
{
closed = 1;
nodes = (
(515,2,o),
(612,2,o),
(702,0,c),
(708,23,l),
(689,29,o),
(647,38,o),
(640,50,cs),
(632,60,o),
(628,75,o),
(635,102,cs),
(653,177,o),
(674,253,o),
(694,330,cs),
(710,391,o),
(728,453,o),
(745,514,cs),
(752,541,o),
(758,556,o),
(772,567,cs),
(786,579,o),
(838,588,o),
(861,593,c),
(867,616,l),
(776,614,o),
(678,614,o),
(589,616,c),
(583,593,l),
(613,585,o),
(651,576,o),
(665,566,cs),
(677,557,o),
(681,540,o),
(674,514,cs),
(659,453,o),
(642,390,o),
(626,329,cs),
(606,252,o),
(589,176,o),
(564,102,cs),
(552,66,o),
(539,58,o),
(519,44,cs),
(501,31,o),
(467,28,o),
(433,23,c),
(425,0,l)
);
},
{
closed = 1;
nodes = (
(639,304,l),
(653,349,l),
(204,349,l),
(192,304,l)
);
}
);
width = 774;
},
{
anchors = (
{
name = bottom;
pos = (321,0);
},
{
name = center;
pos = (478,462);
},
{
name = top;
pos = (531,616);
},
{
name = topleft;
pos = (158,616);
}
);
background = {
shapes = (
{
closed = 1;
nodes = (
(138,609,l,{
"Letterink-NibData" = {
AngleInDegrees = "0";
};
}),
(134,616,l,{
"Letterink-NibData" = {
AngleInDegrees = "360";
};
}),
(65,576,l),
(65,7,l,{
"Letterink-NibData" = {
AngleInDegrees = "360";
};
}),
(69,0,l,{
"Letterink-NibData" = {
AngleInDegrees = "360";
};
}),
(138,40,l),
(138,304,l),
(552,304,l),
(552,7,l,{
"Letterink-NibData" = {
AngleInDegrees = "360";
};
}),
(556,0,l,{
"Letterink-NibData" = {
AngleInDegrees = "360";
};
}),
(626,40,l),
(626,609,l,{
"Letterink-NibData" = {
AngleInDegrees = "0";
};
}),
(622,616,l,{
"Letterink-NibData" = {
AngleInDegrees = "359.99999";
};
}),
(552,576,l),
(552,351,l),
(138,351,l)
);
},
{
closed = 0;
nodes = (
(210,616,l),
(210,591,l),
(182,583,o),
(164,576,o),
(153,564,cs),
(144,553,o),
(140,538,o),
(140,512,cs)
);
}
);
};
color = 1;
layerId = m004;
shapes = (
{
closed = 1;
nodes = (
(54,2,o),
(155,2,o),
(245,0,c),
(253,23,l),
(224,31,o),
(182,37,o),
(175,49,cs),
(167,59,o),
(157,75,o),
(164,102,cs),
(182,176,o),
(202,250,o),
(219,326,cs),
(233,389,o),
(254,452,o),
(272,514,cs),
(280,541,o),
(299,560,o),
(311,567,cs),
(335,582,o),
(370,585,o),
(403,593,c),
(409,616,l),
(318,614,o),
(218,614,o),
(129,616,c),
(123,593,l),
(153,587,o),
(192,574,o),
(200,562,cs),
(206,551,o),
(208,540,o),
(201,514,cs),
(186,452,o),
(167,390,o),
(152,327,cs),
(134,251,o),
(113,176,o),
(93,102,cs),
(86,76,o),
(78,61,o),
(66,50,cs),
(51,38,o),
(-6,31,o),
(-30,23,c),
(-36,0,l)
);
},
{
closed = 1;
nodes = (
(515,2,o),
(612,2,o),
(702,0,c),
(708,23,l),
(689,29,o),
(647,38,o),
(640,50,cs),
(632,60,o),
(628,75,o),
(635,102,cs),
(653,177,o),
(674,253,o),
(694,330,cs),
(710,391,o),
(728,453,o),
(745,514,cs),
(752,541,o),
(758,556,o),
(772,567,cs),
(786,579,o),
(838,588,o),
(861,593,c),
(867,616,l),
(776,614,o),
(678,614,o),
(589,616,c),
(583,593,l),
(613,585,o),
(651,576,o),
(665,566,cs),
(677,557,o),
(681,540,o),
(674,514,cs),
(659,453,o),
(642,390,o),
(626,329,cs),
(606,252,o),
(589,176,o),
(564,102,cs),
(552,66,o),
(539,58,o),
(519,44,cs),
(501,31,o),
(467,28,o),
(433,23,c),
(425,0,l)
);
},
{
closed = 1;
nodes = (
(639,304,l),
(653,349,l),
(204,349,l),
(192,304,l)
);
}
);
width = 774;
}
);
note = H;
unicode = 72;
},
{
glyphname = I;
lastChange = "2025-04-15 19:32:03 +0000";
layers = (
{
anchors = (
{
name = bottom;
pos = (87,0);
},
{
name = ogonek;
pos = (217,10);
},
{
name = top;
pos = (272,616);
},
{
name = topleft;
pos = (158,616);
}
);
color = 1;
layerId = m003;
shapes = (
{
closed = 1;
nodes = (
(-35,0,l),
(234,0,l),
(240,24,l),
(198,28,o),
(171,35,o),
(163,42,cs),
(154,51,o),
(154,68,o),
(159,90,c),
(275,525,l),
(281,547,o),
(294,565,o),
(316,575,cs),
(330,581,o),
(356,587,o),
(392,591,c),
(399,616,l),
(130,616,l),
(124,593,l),
(166,589,o),
(194,582,o),
(203,573,cs),
(211,564,o),
(212,547,o),
(207,525,c),
(92,93,l),
(86,68,o),
(74,50,o),
(61,43,cs),
(48,34,o),
(16,27,o),
(-29,24,c)
);
}
);
width = 306;
},
{
anchors = (
{
name = bottom;
pos = (87,0);
},
{
name = ogonek;
pos = (217,10);
},
{
name = top;
pos = (272,616);
},
{
name = topleft;
pos = (158,616);
}
);
color = 1;
layerId = m005;
shapes = (
{
closed = 1;
nodes = (
(-35,0,l),
(234,0,l),
(240,24,l),
(198,28,o),
(171,35,o),
(163,42,cs),
(154,51,o),
(154,68,o),
(159,90,c),
(275,525,l),
(281,547,o),
(294,565,o),
(316,575,cs),
(330,581,o),
(356,587,o),
(392,591,c),
(399,616,l),
(130,616,l),
(124,593,l),
(166,589,o),
(194,582,o),
(203,573,cs),
(211,564,o),
(212,547,o),
(207,525,c),
(92,93,l),
(86,68,o),
(74,50,o),
(61,43,cs),
(48,34,o),
(16,27,o),
(-29,24,c)
);
}
);
width = 306;
},
{
anchors = (
{
name = bottom;
pos = (87,0);
},
{
name = ogonek;
pos = (217,10);
},
{
name = top;
pos = (272,616);
},
{
name = topleft;
pos = (158,616);
}
);
color = 1;
layerId = m006;
shapes = (
{
closed = 1;
nodes = (
(-35,0,l),
(234,0,l),
(240,24,l),
(198,28,o),
(171,35,o),
(163,42,cs),
(154,51,o),
(154,68,o),
(159,90,c),
(275,525,l),
(281,547,o),
(294,565,o),
(316,575,cs),
(330,581,o),
(356,587,o),
(392,591,c),
(399,616,l),
(130,616,l),
(124,593,l),
(166,589,o),
(194,582,o),
(203,573,cs),
(211,564,o),
(212,547,o),
(207,525,c),
(92,93,l),
(86,68,o),
(74,50,o),
(61,43,cs),
(48,34,o),
(16,27,o),
(-29,24,c)
);
}
);
width = 306;
},
{
anchors = (
{
name = bottom;
pos = (87,0);
},
{
name = ogonek;
pos = (217,10);
},
{
name = top;
pos = (272,616);
},
{
name = topleft;
pos = (158,616);
}
);
color = 1;
layerId = m004;
shapes = (
{
closed = 1;
nodes = (
(-35,0,l),
(234,0,l),
(240,24,l),
(198,28,o),
(171,35,o),
(163,42,cs),
(154,51,o),
(154,68,o),
(159,90,c),
(275,525,l),
(281,547,o),
(294,565,o),
(316,575,cs),
(330,581,o),
(356,587,o),
(392,591,c),
(399,616,l),
(130,616,l),
(124,593,l),
(166,589,o),
(194,582,o),
(203,573,cs),
(211,564,o),
(212,547,o),
(207,525,c),
(92,93,l),
(86,68,o),
(74,50,o),
(61,43,cs),
(48,34,o),
(16,27,o),
(-29,24,c)
);
}
);
width = 306;
}
);
metricLeft = H;
metricRight = H;
note = I;
unicode = 73;
},
{
glyphname = J;
lastChange = "2025-04-15 19:32:03 +0000";
layers = (
{
anchors = (
{
name = bottom;
pos = (52,0);
},
{
name = top;
pos = (262,616);
}
);
color = 1;
layerId = m003;
shapes = (
{
closed = 1;
nodes = (
(-91,-232,o),
(-28,-188,o),
(0,-164,cs),
(66,-108,o),
(136,29,o),
(165,148,cs),
(215,341,o),
(213,332,o),
(265,525,cs),
(273,555,o),
(278,569,o),
(293,577,cs),
(309,584,o),
(332,585,o),
(368,591,c),
(375,616,l),
(123,616,l),
(116,591,l),
(150,587,o),
(183,586,o),
(196,574,cs),
(204,565,o),
(205,551,o),
(198,525,cs),
(81,81,ls),
(68,33,o),
(23,-90,o),
(-19,-138,cs),
(-30,-150,o),
(-40,-157,o),
(-52,-157,cs),
(-72,-158,o),
(-68,-135,o),
(-87,-134,cs),
(-120,-134,o),
(-151,-163,o),
(-161,-205,cs),
(-166,-220,o),
(-151,-232,o),
(-125,-232,cs)
);
}
);
width = 270;
},
{
anchors = (
{
name = bottom;
pos = (52,0);
},
{
name = top;
pos = (262,616);
}
);
color = 1;
layerId = m005;
shapes = (
{
closed = 1;
nodes = (
(-91,-232,o),
(-28,-188,o),
(0,-164,cs),
(66,-108,o),
(136,29,o),
(165,148,cs),
(215,341,o),
(213,332,o),
(265,525,cs),
(273,555,o),
(278,569,o),
(293,577,cs),
(309,584,o),
(332,585,o),
(368,591,c),
(375,616,l),
(123,616,l),
(116,591,l),
(150,587,o),
(183,586,o),
(196,574,cs),
(204,565,o),
(205,551,o),
(198,525,cs),
(81,81,ls),
(68,33,o),
(23,-90,o),
(-19,-138,cs),
(-30,-150,o),
(-40,-157,o),
(-52,-157,cs),
(-72,-158,o),
(-68,-135,o),
(-87,-134,cs),
(-120,-134,o),
(-151,-163,o),
(-161,-205,cs),
(-166,-220,o),
(-151,-232,o),
(-125,-232,cs)
);
}
);
width = 270;
},
{
anchors = (
{
name = bottom;
pos = (52,0);
},
{
name = top;
pos = (262,616);
}
);
color = 1;
layerId = m006;
shapes = (
{
closed = 1;
nodes = (
(-91,-232,o),
(-28,-188,o),
(0,-164,cs),
(66,-108,o),
(136,29,o),
(165,148,cs),
(215,341,o),
(213,332,o),
(265,525,cs),
(273,555,o),
(278,569,o),
(293,577,cs),
(309,584,o),
(332,585,o),
(368,591,c),
(375,616,l),
(123,616,l),
(116,591,l),
(150,587,o),
(183,586,o),
(196,574,cs),
(204,565,o),
(205,551,o),
(198,525,cs),
(81,81,ls),
(68,33,o),
(23,-90,o),
(-19,-138,cs),
(-30,-150,o),
(-40,-157,o),
(-52,-157,cs),
(-72,-158,o),
(-68,-135,o),
(-87,-134,cs),
(-120,-134,o),
(-151,-163,o),
(-161,-205,cs),
(-166,-220,o),
(-151,-232,o),
(-125,-232,cs)
);
}
);
width = 270;
},
{
anchors = (
{
name = bottom;
pos = (52,0);
},
{
name = top;
pos = (262,616);
}
);
color = 1;
layerId = m004;
shapes = (
{
closed = 1;
nodes = (
(-91,-232,o),
(-28,-188,o),
(0,-164,cs),
(66,-108,o),
(136,29,o),
(165,148,cs),
(215,341,o),
(213,332,o),
(265,525,cs),
(273,555,o),
(278,569,o),
(293,577,cs),
(309,584,o),
(332,585,o),
(368,591,c),
(375,616,l),
(123,616,l),
(116,591,l),
(150,587,o),
(183,586,o),
(196,574,cs),
(204,565,o),
(205,551,o),
(198,525,cs),
(81,81,ls),
(68,33,o),
(23,-90,o),
(-19,-138,cs),
(-30,-150,o),
(-40,-157,o),
(-52,-157,cs),
(-72,-158,o),
(-68,-135,o),
(-87,-134,cs),
(-120,-134,o),
(-151,-163,o),
(-161,-205,cs),
(-166,-220,o),
(-151,-232,o),
(-125,-232,cs)
);
}
);
width = 270;
}
);
metricLeft = H;
metricRight = H;
unicode = 74;
},
{
glyphname = K;
lastChange = "2025-04-15 19:32:03 +0000";
layers = (
{
anchors = (
{
name = bottom;
pos = (247,0);
},
{
name = top;
pos = (457,616);
}
);
background = {
shapes = (
{
closed = 0;
nodes = (
(429,91,l),
(429,55,o),
(423,41,o),
(402,31,cs),
(391,26,o),
(373,25,o),
(346,18,c),
(346,0,l),
(591,0,l),
(591,18,l),
(545,31,o),
(522,33,o),
(513,51,cs),
(509,60,o),
(507,73,o),
(507,91,c)
);
},
{
closed = 0;
nodes = (
(451,525,l),
(451,561,o),
(457,575,o),
(478,585,cs),
(489,590,o),
(507,591,o),
(534,598,c),
(534,616,l),
(289,616,l),
(289,598,l),
(335,585,o),
(358,583,o),
(367,565,cs),
(371,556,o),
(373,543,o),
(373,525,cs)
);
}
);
};
color = 2;
layerId = m003;
shapes = (
{
closed = 1;
nodes = (
(-25,0,l),
(227,0,l),
(232,18,l),
(199,27,o),
(170,29,o),
(160,36,cs),
(151,44,o),
(146,58,o),
(155,91,cs),
(171,156,o),
(244,424,o),
(271,525,cs),
(279,556,o),
(290,572,o),
(305,581,cs),
(321,590,o),
(353,594,o),
(386,598,c),
(391,616,l),
(139,616,l),
(133,592,l),
(181,585,o),
(204,583,o),
(208,565,cs),
(209,556,o),
(208,543,o),
(203,525,cs),
(167,382,o),
(128,234,o),
(88,91,cs),
(81,66,o),
(73,52,o),
(61,44,cs),
(44,33,o),
(20,33,o),
(-18,25,c)
);
},
{
closed = 1;
nodes = (
(508,503,l),
(554,540,o),
(608,574,o),
(638,586,cs),
(655,592,o),
(686,597,o),
(692,598,c),
(697,616,l),
(473,616,l),
(468,598,l),
(491,593,o),
(511,580,o),
(505,557,cs),
(501,543,o),
(477,526,o),
(455,505,c),
(166,267,l),
(181,240,l)
);
},
{
closed = 1;
nodes = (
(592,18,l),
(533,34,o),
(500,42,o),
(463,93,c),
(299,356,l),
(240,301,l),
(290,217,o),
(380,72,o),
(399,40,cs),
(420,8,o),
(443,-4,o),
(486,-3,cs),
(587,0,l)
);
}
);
width = 612;
},
{
anchors = (
{
name = bottom;
pos = (247,0);
},
{
name = top;
pos = (457,616);
}
);
background = {
shapes = (
{
closed = 0;
nodes = (
(429,91,l),
(429,55,o),
(423,41,o),
(402,31,cs),
(391,26,o),
(373,25,o),
(346,18,c),
(346,0,l),
(591,0,l),
(591,18,l),
(545,31,o),
(522,33,o),
(513,51,cs),
(509,60,o),
(507,73,o),
(507,91,c)
);
},
{
closed = 0;
nodes = (
(451,525,l),
(451,561,o),
(457,575,o),
(478,585,cs),
(489,590,o),
(507,591,o),
(534,598,c),
(534,616,l),
(289,616,l),
(289,598,l),
(335,585,o),
(358,583,o),
(367,565,cs),
(371,556,o),
(373,543,o),
(373,525,cs)
);
}
);
};
color = 2;
layerId = m005;
shapes = (
{
closed = 1;
nodes = (
(-25,0,l),
(227,0,l),
(232,18,l),
(199,27,o),
(170,29,o),
(160,36,cs),
(151,44,o),
(146,58,o),
(155,91,cs),
(171,156,o),
(244,424,o),
(271,525,cs),
(279,556,o),
(290,572,o),
(305,581,cs),
(321,590,o),
(353,594,o),
(386,598,c),
(391,616,l),
(139,616,l),
(133,592,l),
(181,585,o),
(204,583,o),
(208,565,cs),
(209,556,o),
(208,543,o),
(203,525,cs),
(167,382,o),
(128,234,o),
(88,91,cs),
(81,66,o),
(73,52,o),
(61,44,cs),
(44,33,o),
(20,33,o),
(-18,25,c)
);
},
{
closed = 1;
nodes = (
(508,503,l),
(554,540,o),
(608,574,o),
(638,586,cs),
(655,592,o),
(686,597,o),
(692,598,c),
(697,616,l),
(473,616,l),
(468,598,l),
(491,593,o),
(511,580,o),
(505,557,cs),
(501,543,o),
(477,526,o),
(455,505,c),
(166,267,l),
(181,240,l)
);
},
{
closed = 1;
nodes = (
(592,18,l),
(533,34,o),
(500,42,o),
(463,93,c),
(299,356,l),
(240,301,l),
(290,217,o),
(380,72,o),
(399,40,cs),
(420,8,o),
(443,-4,o),
(486,-3,cs),
(587,0,l)
);
}
);
width = 612;
},
{
anchors = (
{
name = bottom;
pos = (247,0);
},
{
name = top;
pos = (457,616);
}
);
background = {
shapes = (
{
closed = 0;
nodes = (
(429,91,l),
(429,55,o),
(423,41,o),
(402,31,cs),
(391,26,o),
(373,25,o),
(346,18,c),
(346,0,l),
(591,0,l),
(591,18,l),
(545,31,o),
(522,33,o),
(513,51,cs),
(509,60,o),
(507,73,o),
(507,91,c)
);
},
{
closed = 0;
nodes = (
(451,525,l),
(451,561,o),
(457,575,o),
(478,585,cs),
(489,590,o),
(507,591,o),
(534,598,c),
(534,616,l),
(289,616,l),
(289,598,l),
(335,585,o),
(358,583,o),
(367,565,cs),
(371,556,o),
(373,543,o),
(373,525,cs)
);
}
);
};
color = 2;
layerId = m006;
shapes = (
{
closed = 1;
nodes = (
(-25,0,l),
(227,0,l),
(232,18,l),
(199,27,o),
(170,29,o),
(160,36,cs),
(151,44,o),
(146,58,o),
(155,91,cs),
(171,156,o),
(244,424,o),
(271,525,cs),
(279,556,o),
(290,572,o),
(305,581,cs),
(321,590,o),
(353,594,o),
(386,598,c),
(391,616,l),
(139,616,l),
(133,592,l),
(181,585,o),
(204,583,o),
(208,565,cs),
(209,556,o),
(208,543,o),
(203,525,cs),
(167,382,o),
(128,234,o),
(88,91,cs),
(81,66,o),
(73,52,o),
(61,44,cs),
(44,33,o),
(20,33,o),
(-18,25,c)
);
},
{
closed = 1;
nodes = (
(508,503,l),
(554,540,o),
(608,574,o),
(638,586,cs),
(655,592,o),
(686,597,o),
(692,598,c),
(697,616,l),
(473,616,l),
(468,598,l),
(491,593,o),
(511,580,o),
(505,557,cs),
(501,543,o),
(477,526,o),
(455,505,c),
(166,267,l),
(181,240,l)
);
},
{
closed = 1;
nodes = (
(592,18,l),
(533,34,o),
(500,42,o),
(463,93,c),
(299,356,l),
(240,301,l),
(290,217,o),
(380,72,o),
(399,40,cs),
(420,8,o),
(443,-4,o),
(486,-3,cs),
(587,0,l)
);
}
);
width = 612;
},
{
anchors = (
{
name = bottom;
pos = (247,0);
},
{
name = top;
pos = (457,616);
}
);
background = {
shapes = (
{
closed = 0;
nodes = (
(429,91,l),
(429,55,o),
(423,41,o),
(402,31,cs),
(391,26,o),
(373,25,o),
(346,18,c),
(346,0,l),
(591,0,l),
(591,18,l),
(545,31,o),
(522,33,o),
(513,51,cs),
(509,60,o),
(507,73,o),
(507,91,c)
);
},
{
closed = 0;
nodes = (
(451,525,l),
(451,561,o),
(457,575,o),
(478,585,cs),
(489,590,o),
(507,591,o),
(534,598,c),
(534,616,l),
(289,616,l),
(289,598,l),
(335,585,o),
(358,583,o),
(367,565,cs),
(371,556,o),
(373,543,o),
(373,525,cs)
);
}
);
};
color = 2;
layerId = m004;
shapes = (
{
closed = 1;
nodes = (
(-25,0,l),
(227,0,l),
(232,18,l),
(199,27,o),
(170,29,o),
(160,36,cs),
(151,44,o),
(146,58,o),
(155,91,cs),
(171,156,o),
(244,424,o),
(271,525,cs),
(279,556,o),
(290,572,o),
(305,581,cs),
(321,590,o),
(353,594,o),
(386,598,c),
(391,616,l),
(139,616,l),
(133,592,l),
(181,585,o),
(204,583,o),
(208,565,cs),
(209,556,o),
(208,543,o),
(203,525,cs),
(167,382,o),
(128,234,o),
(88,91,cs),
(81,66,o),
(73,52,o),
(61,44,cs),
(44,33,o),
(20,33,o),
(-18,25,c)
);
},
{
closed = 1;
nodes = (
(508,503,l),
(554,540,o),
(608,574,o),
(638,586,cs),
(655,592,o),
(686,597,o),
(692,598,c),
(697,616,l),
(473,616,l),
(468,598,l),
(491,593,o),
(511,580,o),
(505,557,cs),
(501,543,o),
(477,526,o),
(455,505,c),
(166,267,l),
(181,240,l)
);
},
{
closed = 1;
nodes = (
(592,18,l),
(533,34,o),
(500,42,o),
(463,93,c),
(299,356,l),
(240,301,l),
(290,217,o),
(380,72,o),
(399,40,cs),
(420,8,o),
(443,-4,o),
(486,-3,cs),
(587,0,l)
);
}
);
width = 612;
}
);
metricLeft = H;
unicode = 75;
},
{
glyphname = L;
lastChange = "2025-04-15 19:32:03 +0000";
layers = (
{
anchors = (
{
name = bottom;
pos = (233,0);
},
{
name = center;
pos = (338,308);
},
{
name = top;
pos = (443,616);
},
{
name = topright;
pos = (727,616);
}
);
color = 2;
layerId = m003;
shapes = (
{
closed = 1;
nodes = (
(-28,-3,l),
(63,-1,o),
(143,0,o),
(223,0,c),
(233,41,l),
(173,43,o),
(146,43,o),
(162,105,cs),
(194,234,o),
(215,318,o),
(271,517,cs),
(281,553,o),
(287,567,o),
(310,577,cs),
(322,582,o),
(351,585,o),
(382,588,c),
(389,616,l),
(139,616,l),
(133,592,l),
(166,587,o),
(188,585,o),
(199,576,cs),
(208,568,o),
(208,554,o),
(201,525,cs),
(166,382,o),
(126,234,o),
(85,91,cs),
(77,63,o),
(70,49,o),
(57,40,cs),
(42,30,o),
(20,29,o),
(-21,23,c)
);
},
{
closed = 1;
nodes = (
(285,2,o),
(396,1,o),
(464,-3,c),
(529,102,o),
(578,177,o),
(578,177,c),
(555,189,l),
(518,139,o),
(474,100,o),
(428,75,cs),
(357,36,o),
(297,41,o),
(233,41,c),
(223,0,l)
);
}
);
width = 576;
},
{
anchors = (
{
name = bottom;
pos = (233,0);
},
{
name = center;
pos = (338,308);
},
{
name = top;
pos = (443,616);
},
{
name = topright;
pos = (727,616);
}
);
color = 2;
layerId = m005;
shapes = (
{
closed = 1;
nodes = (
(-28,-3,l),
(63,-1,o),
(143,0,o),
(223,0,c),
(233,41,l),
(173,43,o),
(146,43,o),
(162,105,cs),
(194,234,o),
(215,318,o),
(271,517,cs),
(281,553,o),
(287,567,o),
(310,577,cs),
(322,582,o),
(351,585,o),
(382,588,c),
(389,616,l),
(139,616,l),
(133,592,l),
(166,587,o),
(188,585,o),
(199,576,cs),
(208,568,o),
(208,554,o),
(201,525,cs),
(166,382,o),
(126,234,o),
(85,91,cs),
(77,63,o),
(70,49,o),
(57,40,cs),
(42,30,o),
(20,29,o),
(-21,23,c)
);
},
{
closed = 1;
nodes = (
(285,2,o),
(396,1,o),
(464,-3,c),
(529,102,o),
(578,177,o),
(578,177,c),
(555,189,l),
(518,139,o),
(474,100,o),
(428,75,cs),
(357,36,o),
(297,41,o),
(233,41,c),
(223,0,l)
);
}
);
width = 576;
},
{
anchors = (
{
name = bottom;
pos = (233,0);
},
{
name = center;
pos = (338,308);
},
{
name = top;
pos = (443,616);
},
{
name = topright;
pos = (727,616);
}
);
color = 2;
layerId = m006;
shapes = (
{
closed = 1;
nodes = (
(-28,-3,l),
(63,-1,o),
(143,0,o),
(223,0,c),
(233,41,l),
(173,43,o),
(146,43,o),
(162,105,cs),
(194,234,o),
(215,318,o),
(271,517,cs),
(281,553,o),
(287,567,o),
(310,577,cs),
(322,582,o),
(351,585,o),
(382,588,c),
(389,616,l),
(139,616,l),
(133,592,l),
(166,587,o),
(188,585,o),
(199,576,cs),
(208,568,o),
(208,554,o),
(201,525,cs),
(166,382,o),
(126,234,o),
(85,91,cs),
(77,63,o),
(70,49,o),
(57,40,cs),
(42,30,o),
(20,29,o),
(-21,23,c)
);
},
{
closed = 1;
nodes = (
(285,2,o),
(396,1,o),
(464,-3,c),
(529,102,o),
(578,177,o),
(578,177,c),
(555,189,l),
(518,139,o),
(474,100,o),
(428,75,cs),
(357,36,o),
(297,41,o),
(233,41,c),
(223,0,l)
);
}
);
width = 576;
},
{
anchors = (
{
name = bottom;
pos = (233,0);
},
{
name = center;
pos = (338,308);
},
{
name = top;
pos = (443,616);
},
{
name = topright;
pos = (727,616);
}
);
color = 2;
layerId = m004;
shapes = (
{
closed = 1;
nodes = (
(-28,-3,l),
(63,-1,o),
(143,0,o),
(223,0,c),
(233,41,l),
(173,43,o),
(146,43,o),
(162,105,cs),
(194,234,o),
(215,318,o),
(271,517,cs),
(281,553,o),
(287,567,o),
(310,577,cs),
(322,582,o),
(351,585,o),
(382,588,c),
(389,616,l),
(139,616,l),
(133,592,l),
(166,587,o),
(188,585,o),
(199,576,cs),
(208,568,o),
(208,554,o),
(201,525,cs),
(166,382,o),
(126,234,o),
(85,91,cs),
(77,63,o),
(70,49,o),
(57,40,cs),
(42,30,o),
(20,29,o),
(-21,23,c)
);
},
{
closed = 1;
nodes = (
(285,2,o),
(396,1,o),
(464,-3,c),
(529,102,o),
(578,177,o),
(578,177,c),
(555,189,l),
(518,139,o),
(474,100,o),
(428,75,cs),
(357,36,o),
(297,41,o),
(233,41,c),
(223,0,l)
);
}
);
width = 576;
}
);
metricLeft = H;
metricRight = H;
unicode = 76;
},
{
glyphname = M;
lastChange = "2025-04-15 19:32:03 +0000";
layers = (
{
anchors = (
{
name = bottom;
pos = (373,0);
},
{
name = top;
pos = (583,616);
}
);
backgroundImage = {
imagePath = "../../Desktop/Bildschirmfoto 2024-12-24 um 15.40.08.png";
pos = (794,-1015);
scale = (-1.3983,1.4017);
slant = (-2.0049,0);
};
color = 1;
layerId = m003;
shapes = (
{
closed = 1;
nodes = (
(803,586,l),
(782,616,l),
(394,107,l),
(399,117,l),
(308,616,l),
(146,616,l),
(139,591,l),
(186,587,ls),
(214,584,o),
(239,565,o),
(244,540,cs),
(346,-16,l)
);
},
{
closed = 1;
nodes = (
(198,0,l),
(205,25,l),
(171,33,o),
(124,40,o),
(117,52,cs),
(111,63,o),
(110,79,o),
(118,105,cs),
(260,561,l),
(227,591,l),
(78,105,ls),
(70,78,o),
(60,60,o),
(49,51,cs),
(34,39,o),
(-4,33,o),
(-29,25,c),
(-36,0,l)
);
},
{
closed = 1;
nodes = (
(792,0,l),
(799,25,l),
(761,33,o),
(728,41,o),
(722,51,cs),
(711,65,o),
(717,82,o),
(723,104,cs),
(751,216,o),
(798,401,o),
(831,529,cs),
(836,544,o),
(842,556,o),
(855,566,cs),
(869,578,o),
(899,586,o),
(931,591,c),
(938,616,l),
(782,616,l),
(653,104,ls),
(646,80,o),
(642,63,o),
(626,50,cs),
(605,34,o),
(566,27,o),
(547,25,c),
(540,0,l)
);
}
);
width = 864;
},
{
anchors = (
{
name = bottom;
pos = (373,0);
},
{
name = top;
pos = (583,616);
}
);
backgroundImage = {
imagePath = "../../Desktop/Bildschirmfoto 2024-12-24 um 15.40.08.png";
pos = (794,-1015);
scale = (-1.3983,1.4017);
};
color = 1;
layerId = m005;
shapes = (
{
closed = 1;
nodes = (
(803,586,l),
(782,616,l),
(394,107,l),
(399,117,l),
(308,616,l),
(146,616,l),
(139,591,l),
(186,587,ls),
(214,584,o),
(239,565,o),
(244,540,cs),
(346,-16,l)
);
},
{
closed = 1;
nodes = (
(198,0,l),
(205,25,l),
(171,33,o),
(124,40,o),
(117,52,cs),
(111,63,o),
(110,79,o),
(118,105,cs),
(260,561,l),
(227,591,l),
(78,105,ls),
(70,78,o),
(60,60,o),
(49,51,cs),
(34,39,o),
(-4,33,o),
(-29,25,c),
(-36,0,l)
);
},
{
closed = 1;
nodes = (
(792,0,l),
(799,25,l),
(761,33,o),
(728,41,o),
(722,51,cs),
(711,65,o),
(717,82,o),
(723,104,cs),
(751,216,o),
(798,401,o),
(831,529,cs),
(836,544,o),
(842,556,o),
(855,566,cs),
(869,578,o),
(899,586,o),
(931,591,c),
(938,616,l),
(782,616,l),
(653,104,ls),
(646,80,o),
(642,63,o),
(626,50,cs),
(605,34,o),
(566,27,o),
(547,25,c),
(540,0,l)
);
}
);
width = 864;
},
{
anchors = (
{
name = bottom;
pos = (373,0);
},
{
name = top;
pos = (583,616);
}
);
backgroundImage = {
imagePath = "../../Desktop/Bildschirmfoto 2024-12-24 um 15.40.08.png";
pos = (794,-1015);
scale = (-1.3983,1.4017);
};
color = 1;
layerId = m006;
shapes = (
{
closed = 1;
nodes = (
(803,586,l),
(782,616,l),
(394,107,l),
(399,117,l),
(308,616,l),
(146,616,l),
(139,591,l),
(186,587,ls),
(214,584,o),
(239,565,o),
(244,540,cs),
(346,-16,l)
);
},
{
closed = 1;
nodes = (
(198,0,l),
(205,25,l),
(171,33,o),
(124,40,o),
(117,52,cs),
(111,63,o),
(110,79,o),
(118,105,cs),
(260,561,l),
(227,591,l),
(78,105,ls),
(70,78,o),
(60,60,o),
(49,51,cs),
(34,39,o),
(-4,33,o),
(-29,25,c),
(-36,0,l)
);
},
{
closed = 1;
nodes = (
(792,0,l),
(799,25,l),
(761,33,o),
(728,41,o),
(722,51,cs),
(711,65,o),
(717,82,o),
(723,104,cs),
(751,216,o),
(798,401,o),
(831,529,cs),
(836,544,o),
(842,556,o),
(855,566,cs),
(869,578,o),
(899,586,o),
(931,591,c),
(938,616,l),
(782,616,l),
(653,104,ls),
(646,80,o),
(642,63,o),
(626,50,cs),
(605,34,o),
(566,27,o),
(547,25,c),
(540,0,l)
);
}
);
width = 864;
},
{
anchors = (
{
name = bottom;
pos = (373,0);
},
{
name = top;
pos = (583,616);
}
);
backgroundImage = {
imagePath = "../../Desktop/Bildschirmfoto 2024-12-24 um 15.40.08.png";
pos = (794,-1015);
scale = (-1.3983,1.4017);
};
color = 1;
layerId = m004;
shapes = (
{
closed = 1;
nodes = (
(803,586,l),
(782,616,l),
(394,107,l),
(399,117,l),
(308,616,l),
(146,616,l),
(139,591,l),
(186,587,ls),
(214,584,o),
(239,565,o),
(244,540,cs),
(346,-16,l)
);
},
{
closed = 1;
nodes = (
(198,0,l),
(205,25,l),
(171,33,o),
(124,40,o),
(117,52,cs),
(111,63,o),
(110,79,o),
(118,105,cs),
(260,561,l),
(227,591,l),
(78,105,ls),
(70,78,o),
(60,60,o),
(49,51,cs),
(34,39,o),
(-4,33,o),
(-29,25,c),
(-36,0,l)
);
},
{
closed = 1;
nodes = (
(792,0,l),
(799,25,l),
(761,33,o),
(728,41,o),
(722,51,cs),
(711,65,o),
(717,82,o),
(723,104,cs),
(751,216,o),
(798,401,o),
(831,529,cs),
(836,544,o),
(842,556,o),
(855,566,cs),
(869,578,o),
(899,586,o),
(931,591,c),
(938,616,l),
(782,616,l),
(653,104,ls),
(646,80,o),
(642,63,o),
(626,50,cs),
(605,34,o),
(566,27,o),
(547,25,c),
(540,0,l)
);
}
);
width = 864;
}
);
metricLeft = H;
metricRight = H;
unicode = 77;
},
{
glyphname = N;
lastChange = "2025-04-15 19:32:03 +0000";
layers = (
{
anchors = (
{
name = bottom;
pos = (299,0);
},
{
name = top;
pos = (509,616);
}
);
color = 1;
layerId = m003;
shapes = (
{
closed = 1;
nodes = (
(592,-8,l),
(636,160,o),
(712,443,o),
(731,512,c),
(691,512,l),
(580,97,l),
(593,106,l),
(250,616,l),
(130,616,l),
(123,591,l),
(145,587,o),
(168,570,o),
(179,557,cs),
(193,541,o),
(213,514,o),
(213,514,c),
(566,-8,l)
);
},
{
closed = 1;
nodes = (
(198,0,l),
(205,25,l),
(169,28,o),
(131,35,o),
(122,52,cs),
(113,68,o),
(116,78,o),
(123,104,c),
(83,104,l),
(76,77,o),
(71,70,o),
(54,56,cs),
(32,39,o),
(-6,33,o),
(-29,25,c),
(-36,0,l)
);
},
{
closed = 1;
nodes = (
(123,104,l),
(245,561,l),
(212,591,l),
(83,104,l)
);
},
{
closed = 1;
nodes = (
(731,512,l),
(739,542,o),
(748,556,o),
(763,565,cs),
(777,575,o),
(798,581,o),
(824,588,c),
(831,616,l),
(615,616,l),
(608,591,l),
(653,584,o),
(671,579,o),
(683,565,cs),
(691,554,o),
(699,541,o),
(691,512,c)
);
}
);
width = 738;
},
{
anchors = (
{
name = bottom;
pos = (299,0);
},
{
name = top;
pos = (509,616);
}
);
color = 1;
layerId = m005;
shapes = (
{
closed = 1;
nodes = (
(592,-8,l),
(636,160,o),
(712,443,o),
(731,512,c),
(691,512,l),
(580,97,l),
(593,106,l),
(250,616,l),
(130,616,l),
(123,591,l),
(145,587,o),
(168,570,o),
(179,557,cs),
(193,541,o),
(213,514,o),
(213,514,c),
(566,-8,l)
);
},
{
closed = 1;
nodes = (
(198,0,l),
(205,25,l),
(169,28,o),
(131,35,o),
(122,52,cs),
(113,68,o),
(116,78,o),
(123,104,c),
(83,104,l),
(76,77,o),
(71,70,o),
(54,56,cs),
(32,39,o),
(-6,33,o),
(-29,25,c),
(-36,0,l)
);
},
{
closed = 1;
nodes = (
(123,104,l),
(245,561,l),
(212,591,l),
(83,104,l)
);
},
{
closed = 1;
nodes = (
(731,512,l),
(739,542,o),
(748,556,o),
(763,565,cs),
(777,575,o),
(798,581,o),
(824,588,c),
(831,616,l),
(615,616,l),
(608,591,l),
(653,584,o),
(671,579,o),
(683,565,cs),
(691,554,o),
(699,541,o),
(691,512,c)
);
}
);
width = 738;
},
{
anchors = (
{
name = bottom;
pos = (299,0);
},
{
name = top;
pos = (509,616);
}
);
color = 1;
layerId = m006;
shapes = (
{
closed = 1;
nodes = (
(592,-8,l),
(636,160,o),
(712,443,o),
(731,512,c),
(691,512,l),
(580,97,l),
(593,106,l),
(250,616,l),
(130,616,l),
(123,591,l),
(145,587,o),
(168,570,o),
(179,557,cs),
(193,541,o),
(213,514,o),
(213,514,c),
(566,-8,l)
);
},
{
closed = 1;
nodes = (
(198,0,l),
(205,25,l),
(169,28,o),
(131,35,o),
(122,52,cs),
(113,68,o),
(116,78,o),
(123,104,c),
(83,104,l),
(76,77,o),
(71,70,o),
(54,56,cs),
(32,39,o),
(-6,33,o),
(-29,25,c),
(-36,0,l)
);
},
{
closed = 1;
nodes = (
(123,104,l),
(245,561,l),
(212,591,l),
(83,104,l)
);
},
{
closed = 1;
nodes = (
(731,512,l),
(739,542,o),
(748,556,o),
(763,565,cs),
(777,575,o),
(798,581,o),
(824,588,c),
(831,616,l),
(615,616,l),
(608,591,l),
(653,584,o),
(671,579,o),
(683,565,cs),
(691,554,o),
(699,541,o),
(691,512,c)
);
}
);
width = 738;
},
{
anchors = (
{
name = bottom;
pos = (299,0);
},
{
name = top;
pos = (509,616);
}
);
color = 1;
layerId = m004;
shapes = (
{
closed = 1;
nodes = (
(592,-8,l),
(636,160,o),
(712,443,o),
(731,512,c),
(691,512,l),
(580,97,l),
(593,106,l),
(250,616,l),
(130,616,l),
(123,591,l),
(145,587,o),
(168,570,o),
(179,557,cs),
(193,541,o),
(213,514,o),
(213,514,c),
(566,-8,l)
);
},
{
closed = 1;
nodes = (
(198,0,l),
(205,25,l),
(169,28,o),
(131,35,o),
(122,52,cs),
(113,68,o),
(116,78,o),
(123,104,c),
(83,104,l),
(76,77,o),
(71,70,o),
(54,56,cs),
(32,39,o),
(-6,33,o),
(-29,25,c),
(-36,0,l)
);
},
{
closed = 1;
nodes = (
(123,104,l),
(245,561,l),
(212,591,l),
(83,104,l)
);
},
{
closed = 1;
nodes = (
(731,512,l),
(739,542,o),
(748,556,o),
(763,565,cs),
(777,575,o),
(798,581,o),
(824,588,c),
(831,616,l),
(615,616,l),
(608,591,l),
(653,584,o),
(671,579,o),
(683,565,cs),
(691,554,o),
(699,541,o),
(691,512,c)
);
}
);
width = 738;
}
);
metricLeft = H;
metricRight = H;
unicode = 78;
},
{
glyphname = O;
lastChange = "2025-04-17 06:11:44 +0000";
layers = (
{
anchors = (
{
name = bottom;
pos = (226,0);
},
{
name = center;
pos = (291,308);
},
{
name = ogonek;
pos = (486,10);
},
{
name = top;
pos = (456,617);
},
{
name = topleft;
pos = (45,616);
},
{
name = topright;
pos = (747,616);
}
);
background = {
shapes = (
{
closed = 1;
nodes = (
(509,-8,o),
(659,123,o),
(689,308,cs),
(723,507,o),
(620,648,o),
(440,648,cs),
(258,648,o),
(108,518,o),
(77,334,cs),
(44,134,o),
(147,-8,o),
(326,-8,cs)
);
},
{
closed = 1;
nodes = (
(232,30,o),
(146,139,o),
(154,275,cs),
(165,462,o),
(283,610,o),
(420,610,cs),
(534,610,o),
(618,502,o),
(609,366,cs),
(599,179,o),
(483,30,o),
(347,30,cs)
);
}
);
};
color = 4;
layerId = m003;
shapes = (
{
closed = 1;
nodes = (
(509,-8,o),
(659,123,o),
(689,308,cs),
(723,507,o),
(620,648,o),
(440,648,cs),
(258,648,o),
(108,518,o),
(77,334,cs),
(44,134,o),
(147,-8,o),
(326,-8,cs)
);
},
{
closed = 1;
nodes = (
(232,30,o),
(146,139,o),
(154,275,cs),
(165,462,o),
(283,610,o),
(420,610,cs),
(534,610,o),
(618,502,o),
(609,366,cs),
(599,179,o),
(483,30,o),
(347,30,cs)
);
}
);
width = 702;
},
{
anchors = (
{
name = bottom;
pos = (226,0);
},
{
name = center;
pos = (291,308);
},
{
name = ogonek;
pos = (486,10);
},
{
name = top;
pos = (394,617);
},
{
name = topleft;
pos = (45,616);
},
{
name = topright;
pos = (747,616);
}
);
background = {
shapes = (
{
closed = 1;
nodes = (
(566,111,o),
(621,209,o),
(624,323,c,{
"Letterink-NibData" = {
AngleInDegrees = "359.99999";
};
}),
(621,395,o),
(610,434,o),
(580,483,cs,{
"Letterink-NibData" = {
AngleInDegrees = "0";
};
}),
(519,582,o),
(433,633,o),
(329,633,cs),
(280,633,o),
(232,621,o),
(191,597,cs,{
"Letterink-NibData" = {
AngleInDegrees = "359.99999";
};
}),
(121,557,ls,{
"Letterink-NibData" = {
AngleInDegrees = "359.99999";
};
}),
(95,542,o),
(43,495,o),
(26,471,cs,{
"Letterink-NibData" = {
AngleInDegrees = "360";
};
}),
(-14,415,o),
(-32,359,o),
(-32,290,cs),
(-32,121,o),
(103,-21,o),
(263,-21,cs),
(312,-21,o),
(364,-7,o),
(408,19,cs,{
"Letterink-NibData" = {
AngleInDegrees = "360";
};
}),
(477,59,ls,{
"Letterink-NibData" = {
AngleInDegrees = "0";
};
})
);
},
{
closed = 1;
nodes = (
(402,32,o),
(370,26,o),
(329,26,cs),
(255,26,o),
(172,61,o),
(127,111,cs,{
"Letterink-NibData" = {
AngleInDegrees = "360";
};
}),
(115,123,o),
(102,141,o),
(82,168,c,{
"Letterink-NibData" = {
AngleInDegrees = "359.99999";
};
}),
(51,236,o),
(41,271,o),
(41,323,cs),
(41,425,o),
(79,501,o),
(163,566,c,{
"Letterink-NibData" = {
AngleInDegrees = "0";
};
}),
(205,583,o),
(221,586,o),
(263,586,cs),
(368,586,o),
(449,538,o),
(513,438,c,{
"Letterink-NibData" = {
AngleInDegrees = "359.99999";
};
}),
(540,389,o),
(551,347,o),
(551,289,cs,{
"Letterink-NibData" = {
AngleInDegrees = "359.99999";
};
}),
(549,192,o),
(506,102,o),
(435,47,c,{
"Letterink-NibData" = {
AngleInDegrees = "0";
};
})
);
}
);
};
color = 4;
layerId = m005;
shapes = (
{
closed = 1;
nodes = (
(349,-8,cs),
(508,-8,o),
(654,116,o),
(679,272,cs),
(717,470,o),
(598,628,o),
(411,628,cs),
(252,628,o),
(106,504,o),
(81,348,cs),
(43,150,o),
(162,-8,o)
);
},
{
closed = 1;
nodes = (
(239,32,o),
(140,183,o),
(159,372,cs),
(168,492,o),
(271,588,o),
(391,588,cs),
(526,588,o),
(619,437,o),
(600,248,cs),
(591,128,o),
(494,32,o),
(382,32,cs)
);
}
);
width = 702;
},
{
anchors = (
{
name = bottom;
pos = (226,0);
},
{
name = center;
pos = (291,308);
},
{
name = ogonek;
pos = (486,10);
},
{
name = top;
pos = (394,617);
},
{
name = topleft;
pos = (45,616);
},
{
name = topright;
pos = (747,616);
}
);
background = {
shapes = (
{
closed = 1;
nodes = (
(566,111,o),
(621,209,o),
(624,323,c,{
"Letterink-NibData" = {
AngleInDegrees = "359.99999";
};
}),
(621,395,o),
(610,434,o),
(580,483,cs,{
"Letterink-NibData" = {
AngleInDegrees = "0";
};
}),
(519,582,o),
(433,633,o),
(329,633,cs),
(280,633,o),
(232,621,o),
(191,597,cs,{
"Letterink-NibData" = {
AngleInDegrees = "359.99999";
};
}),
(121,557,ls,{
"Letterink-NibData" = {
AngleInDegrees = "359.99999";
};
}),
(95,542,o),
(43,495,o),
(26,471,cs,{
"Letterink-NibData" = {
AngleInDegrees = "360";
};
}),
(-14,415,o),
(-32,359,o),
(-32,290,cs),
(-32,121,o),
(103,-21,o),
(263,-21,cs),
(312,-21,o),
(364,-7,o),
(408,19,cs,{
"Letterink-NibData" = {
AngleInDegrees = "360";
};
}),
(477,59,ls,{
"Letterink-NibData" = {
AngleInDegrees = "0";
};
})
);
},
{
closed = 1;
nodes = (
(402,32,o),
(370,26,o),
(329,26,cs),
(255,26,o),
(172,61,o),
(127,111,cs,{
"Letterink-NibData" = {
AngleInDegrees = "360";
};
}),
(115,123,o),
(102,141,o),
(82,168,c,{
"Letterink-NibData" = {
AngleInDegrees = "359.99999";
};
}),
(51,236,o),
(41,271,o),
(41,323,cs),
(41,425,o),
(79,501,o),
(163,566,c,{
"Letterink-NibData" = {
AngleInDegrees = "0";
};
}),
(205,583,o),
(221,586,o),
(263,586,cs),
(368,586,o),
(449,538,o),
(513,438,c,{
"Letterink-NibData" = {
AngleInDegrees = "359.99999";
};
}),
(540,389,o),
(551,347,o),
(551,289,cs,{
"Letterink-NibData" = {
AngleInDegrees = "359.99999";
};
}),
(549,192,o),
(506,102,o),
(435,47,c,{
"Letterink-NibData" = {
AngleInDegrees = "0";
};
})
);
}
);
};
color = 4;
layerId = m006;
shapes = (
{
closed = 1;
nodes = (
(349,-8,cs),
(508,-8,o),
(654,116,o),
(679,272,cs),
(717,470,o),
(598,628,o),
(411,628,cs),
(252,628,o),
(106,504,o),
(81,348,cs),
(43,150,o),
(162,-8,o)
);
},
{
closed = 1;
nodes = (
(239,32,o),
(140,183,o),
(159,372,cs),
(168,492,o),
(271,588,o),
(391,588,cs),
(526,588,o),
(619,437,o),
(600,248,cs),
(591,128,o),
(494,32,o),
(382,32,cs)
);
}
);
width = 702;
},
{
anchors = (
{
name = bottom;
pos = (226,0);
},
{
name = center;
pos = (291,308);
},
{
name = ogonek;
pos = (486,10);
},
{
name = top;
pos = (394,617);
},
{
name = topleft;
pos = (45,616);
},
{
name = topright;
pos = (747,616);
}
);
background = {
shapes = (
{
closed = 1;
nodes = (
(566,111,o),
(621,209,o),
(624,323,c,{
"Letterink-NibData" = {
AngleInDegrees = "359.99999";
};
}),
(621,395,o),
(610,434,o),
(580,483,cs,{
"Letterink-NibData" = {
AngleInDegrees = "0";
};
}),
(519,582,o),
(433,633,o),
(329,633,cs),
(280,633,o),
(232,621,o),
(191,597,cs,{
"Letterink-NibData" = {
AngleInDegrees = "359.99999";
};
}),
(121,557,ls,{
"Letterink-NibData" = {
AngleInDegrees = "359.99999";
};
}),
(95,542,o),
(43,495,o),
(26,471,cs,{
"Letterink-NibData" = {
AngleInDegrees = "360";
};
}),
(-14,415,o),
(-32,359,o),
(-32,290,cs),
(-32,121,o),
(103,-21,o),
(263,-21,cs),
(312,-21,o),
(364,-7,o),
(408,19,cs,{
"Letterink-NibData" = {
AngleInDegrees = "360";
};
}),
(477,59,ls,{
"Letterink-NibData" = {
AngleInDegrees = "0";
};
})
);
},
{
closed = 1;
nodes = (
(402,32,o),
(370,26,o),
(329,26,cs),
(255,26,o),
(172,61,o),
(127,111,cs,{
"Letterink-NibData" = {
AngleInDegrees = "360";
};
}),
(115,123,o),
(102,141,o),
(82,168,c,{
"Letterink-NibData" = {
AngleInDegrees = "359.99999";
};
}),
(51,236,o),
(41,271,o),
(41,323,cs),
(41,425,o),
(79,501,o),
(163,566,c,{
"Letterink-NibData" = {
AngleInDegrees = "0";
};
}),
(205,583,o),
(221,586,o),
(263,586,cs),
(368,586,o),
(449,538,o),
(513,438,c,{
"Letterink-NibData" = {
AngleInDegrees = "359.99999";
};
}),
(540,389,o),
(551,347,o),
(551,289,cs,{
"Letterink-NibData" = {
AngleInDegrees = "359.99999";
};
}),
(549,192,o),
(506,102,o),
(435,47,c,{
"Letterink-NibData" = {
AngleInDegrees = "0";
};
})
);
}
);
};
color = 4;
layerId = m004;
shapes = (
{
closed = 1;
nodes = (
(349,-8,cs),
(508,-8,o),
(654,116,o),
(679,272,cs),
(717,470,o),
(598,628,o),
(411,628,cs),
(252,628,o),
(106,504,o),
(81,348,cs),
(43,150,o),
(162,-8,o)
);
},
{
closed = 1;
nodes = (
(239,32,o),
(140,183,o),
(159,372,cs),
(168,492,o),
(271,588,o),
(391,588,cs),
(526,588,o),
(619,437,o),
(600,248,cs),
(591,128,o),
(494,32,o),
(382,32,cs)
);
}
);
width = 702;
},
{
anchors = (
{
name = bottom;
pos = (226,0);
},
{
name = center;
pos = (291,308);
},
{
name = ogonek;
pos = (486,10);
},
{
name = top;
pos = (394,617);
},
{
name = topleft;
pos = (45,616);
},
{
name = topright;
pos = (747,616);
}
);
associatedMasterId = m003;
background = {
shapes = (
{
closed = 1;
nodes = (
(566,111,o),
(621,209,o),
(624,323,c,{
"Letterink-NibData" = {
AngleInDegrees = "359.99999";
};
}),
(621,395,o),
(610,434,o),
(580,483,cs,{
"Letterink-NibData" = {
AngleInDegrees = "0";
};
}),
(519,582,o),
(433,633,o),
(329,633,cs),
(280,633,o),
(232,621,o),
(191,597,cs,{
"Letterink-NibData" = {
AngleInDegrees = "359.99999";
};
}),
(121,557,ls,{
"Letterink-NibData" = {
AngleInDegrees = "359.99999";
};
}),
(95,542,o),
(43,495,o),
(26,471,cs,{
"Letterink-NibData" = {
AngleInDegrees = "360";
};
}),
(-14,415,o),
(-32,359,o),
(-32,290,cs),
(-32,121,o),
(103,-21,o),
(263,-21,cs),
(312,-21,o),
(364,-7,o),
(408,19,cs,{
"Letterink-NibData" = {
AngleInDegrees = "360";
};
}),
(477,59,ls,{
"Letterink-NibData" = {
AngleInDegrees = "0";
};
})
);
},
{
closed = 1;
nodes = (
(402,32,o),
(370,26,o),
(329,26,cs),
(255,26,o),
(172,61,o),
(127,111,cs,{
"Letterink-NibData" = {
AngleInDegrees = "360";
};
}),
(115,123,o),
(102,141,o),
(82,168,c,{
"Letterink-NibData" = {
AngleInDegrees = "359.99999";
};
}),
(51,236,o),
(41,271,o),
(41,323,cs),
(41,425,o),
(79,501,o),
(163,566,c,{
"Letterink-NibData" = {
AngleInDegrees = "0";
};
}),
(205,583,o),
(221,586,o),
(263,586,cs),
(368,586,o),
(449,538,o),
(513,438,c,{
"Letterink-NibData" = {
AngleInDegrees = "359.99999";
};
}),
(540,389,o),
(551,347,o),
(551,289,cs,{
"Letterink-NibData" = {
AngleInDegrees = "359.99999";
};
}),
(549,192,o),
(506,102,o),
(435,47,c,{
"Letterink-NibData" = {
AngleInDegrees = "0";
};
})
);
}
);
};
color = 4;
layerId = "FF25EAEE-72E0-4662-A40E-DAF0E28FD9E2";
name = "17. Apr. 25, 07:35";
shapes = (
{
closed = 1;
nodes = (
(349,-8,cs),
(508,-8,o),
(654,116,o),
(679,272,cs),
(717,470,o),
(598,628,o),
(411,628,cs),
(252,628,o),
(106,504,o),
(81,348,cs),
(43,150,o),
(162,-8,o)
);
},
{
closed = 1;
nodes = (
(239,32,o),
(140,183,o),
(159,372,cs),
(168,492,o),
(271,588,o),
(391,588,cs),
(526,588,o),
(619,437,o),
(600,248,cs),
(591,128,o),
(494,32,o),
(382,32,cs)
);
}
);
width = 702;
}
);
note = O;
unicode = 79;
},
{
glyphname = P;
lastChange = "2025-04-15 19:32:03 +0000";
layers = (
{
anchors = (
{
name = bottom;
pos = (204,0);
},
{
name = top;
pos = (414,616);
}
);
background = {
anchors = (
{
name = bottom;
pos = (255,0);
},
{
name = center;
pos = (113,154);
},
{
name = top;
pos = (255,616);
}
);
shapes = (
{
closed = 1;
nodes = (
(-5,0,l),
(278,0,l),
(278,40,l),
(233,40,o),
(198,38,o),
(179,54,cs),
(170,62,o),
(165,73,o),
(165,91,cs),
(163,307,o),
(162,377,o),
(166,574,c),
(183,576,o),
(235,576,o),
(258,576,c),
(258,616,l),
(-5,616,l),
(-5,591,l),
(29,581,o),
(53,582,o),
(67,572,cs),
(77,565,o),
(82,552,o),
(82,525,cs),
(83,341,o),
(84,253,o),
(84,312,cs),
(84,373,o),
(83,282,o),
(82,91,cs),
(82,65,o),
(76,51,o),
(67,43,cs),
(51,29,o),
(25,31,o),
(-5,25,c)
);
},
{
closed = 1;
nodes = (
(152,318,o),
(164,318,o),
(192,318,cs),
(348,318,o),
(451,378,o),
(451,481,cs),
(451,560,o),
(371,616,o),
(258,616,c),
(258,576,l),
(319,576,o),
(362,529,o),
(362,462,cs),
(362,387,o),
(293,348,o),
(185,348,cs),
(125,348,l),
(126,318,l)
);
}
);
};
color = 2;
layerId = m003;
shapes = (
{
closed = 1;
nodes = (
(270,271,o),
(282,271,o),
(297,271,cs),
(427,271,o),
(533,353,o),
(553,468,cs),
(568,558,o),
(512,620,o),
(418,618,c),
(390,587,l),
(442,587,o),
(477,533,o),
(474,456,cs),
(471,364,o),
(388,299,o),
(273,299,c),
(266,272,l)
);
},
{
closed = 1;
nodes = (
(262,0,l),
(268,21,l),
(220,32,o),
(184,43,o),
(181,47,cs),
(175,54,o),
(176,79,o),
(184,111,cs),
(208,205,o),
(259,405,o),
(311,586,c),
(390,587,l),
(418,618,l),
(354,617,o),
(298,616,o),
(285,616,c),
(249,616,o),
(188,617,o),
(139,618,c),
(131,590,l),
(173,583,o),
(208,570,o),
(214,559,cs),
(221,549,o),
(222,529,o),
(217,510,cs),
(190,403,o),
(144,231,o),
(108,101,cs),
(101,76,o),
(90,54,o),
(80,45,cs),
(74,40,o),
(40,30,o),
(-2,21,c),
(-8,0,l)
);
}
);
width = 522;
},
{
anchors = (
{
name = bottom;
pos = (204,0);
},
{
name = top;
pos = (414,616);
}
);
background = {
anchors = (
{
name = bottom;
pos = (255,0);
},
{
name = center;
pos = (113,154);
},
{
name = top;
pos = (255,616);
}
);
shapes = (
{
closed = 1;
nodes = (
(-5,0,l),
(278,0,l),
(278,40,l),
(233,40,o),
(198,38,o),
(179,54,cs),
(170,62,o),
(165,73,o),
(165,91,cs),
(163,307,o),
(162,377,o),
(166,574,c),
(183,576,o),
(235,576,o),
(258,576,c),
(258,616,l),
(-5,616,l),
(-5,591,l),
(29,581,o),
(53,582,o),
(67,572,cs),
(77,565,o),
(82,552,o),
(82,525,cs),
(83,341,o),
(84,253,o),
(84,312,cs),
(84,373,o),
(83,282,o),
(82,91,cs),
(82,65,o),
(76,51,o),
(67,43,cs),
(51,29,o),
(25,31,o),
(-5,25,c)
);
},
{
closed = 1;
nodes = (
(152,318,o),
(164,318,o),
(192,318,cs),
(348,318,o),
(451,378,o),
(451,481,cs),
(451,560,o),
(371,616,o),
(258,616,c),
(258,576,l),
(319,576,o),
(362,529,o),
(362,462,cs),
(362,387,o),
(293,348,o),
(185,348,cs),
(125,348,l),
(126,318,l)
);
}
);
};
color = 2;
layerId = m005;
shapes = (
{
closed = 1;
nodes = (
(270,271,o),
(282,271,o),
(297,271,cs),
(427,271,o),
(533,353,o),
(553,468,cs),
(568,558,o),
(512,620,o),
(418,618,c),
(390,587,l),
(442,587,o),
(477,533,o),
(474,456,cs),
(471,364,o),
(388,299,o),
(273,299,c),
(266,272,l)
);
},
{
closed = 1;
nodes = (
(262,0,l),
(268,21,l),
(220,32,o),
(184,43,o),
(181,47,cs),
(175,54,o),
(176,79,o),
(184,111,cs),
(208,205,o),
(259,405,o),
(311,586,c),
(390,587,l),
(418,618,l),
(354,617,o),
(298,616,o),
(285,616,c),
(249,616,o),
(188,617,o),
(139,618,c),
(131,590,l),
(173,583,o),
(208,570,o),
(214,559,cs),
(221,549,o),
(222,529,o),
(217,510,cs),
(190,403,o),
(144,231,o),
(108,101,cs),
(101,76,o),
(90,54,o),
(80,45,cs),
(74,40,o),
(40,30,o),
(-2,21,c),
(-8,0,l)
);
}
);
width = 522;
},
{
anchors = (
{
name = bottom;
pos = (204,0);
},
{
name = top;
pos = (414,616);
}
);
background = {
anchors = (
{
name = bottom;
pos = (255,0);
},
{
name = center;
pos = (113,154);
},
{
name = top;
pos = (255,616);
}
);
shapes = (
{
closed = 1;
nodes = (
(-5,0,l),
(278,0,l),
(278,40,l),
(233,40,o),
(198,38,o),
(179,54,cs),
(170,62,o),
(165,73,o),
(165,91,cs),
(163,307,o),
(162,377,o),
(166,574,c),
(183,576,o),
(235,576,o),
(258,576,c),
(258,616,l),
(-5,616,l),
(-5,591,l),
(29,581,o),
(53,582,o),
(67,572,cs),
(77,565,o),
(82,552,o),
(82,525,cs),
(83,341,o),
(84,253,o),
(84,312,cs),
(84,373,o),
(83,282,o),
(82,91,cs),
(82,65,o),
(76,51,o),
(67,43,cs),
(51,29,o),
(25,31,o),
(-5,25,c)
);
},
{
closed = 1;
nodes = (
(152,318,o),
(164,318,o),
(192,318,cs),
(348,318,o),
(451,378,o),
(451,481,cs),
(451,560,o),
(371,616,o),
(258,616,c),
(258,576,l),
(319,576,o),
(362,529,o),
(362,462,cs),
(362,387,o),
(293,348,o),
(185,348,cs),
(125,348,l),
(126,318,l)
);
}
);
};
color = 2;
layerId = m006;
shapes = (
{
closed = 1;
nodes = (
(270,271,o),
(282,271,o),
(297,271,cs),
(427,271,o),
(533,353,o),
(553,468,cs),
(568,558,o),
(512,620,o),
(418,618,c),
(390,587,l),
(442,587,o),
(477,533,o),
(474,456,cs),
(471,364,o),
(388,299,o),
(273,299,c),
(266,272,l)
);
},
{
closed = 1;
nodes = (
(262,0,l),
(268,21,l),
(220,32,o),
(184,43,o),
(181,47,cs),
(175,54,o),
(176,79,o),
(184,111,cs),
(208,205,o),
(259,405,o),
(311,586,c),
(390,587,l),
(418,618,l),
(354,617,o),
(298,616,o),
(285,616,c),
(249,616,o),
(188,617,o),
(139,618,c),
(131,590,l),
(173,583,o),
(208,570,o),
(214,559,cs),
(221,549,o),
(222,529,o),
(217,510,cs),
(190,403,o),
(144,231,o),
(108,101,cs),
(101,76,o),
(90,54,o),
(80,45,cs),
(74,40,o),
(40,30,o),
(-2,21,c),
(-8,0,l)
);
}
);
width = 522;
},
{
anchors = (
{
name = bottom;
pos = (204,0);
},
{
name = top;
pos = (414,616);
}
);
background = {
anchors = (
{
name = bottom;
pos = (255,0);
},
{
name = center;
pos = (113,154);
},
{
name = top;
pos = (255,616);
}
);
shapes = (
{
closed = 1;
nodes = (
(-5,0,l),
(278,0,l),
(278,40,l),
(233,40,o),
(198,38,o),
(179,54,cs),
(170,62,o),
(165,73,o),
(165,91,cs),
(163,307,o),
(162,377,o),
(166,574,c),
(183,576,o),
(235,576,o),
(258,576,c),
(258,616,l),
(-5,616,l),
(-5,591,l),
(29,581,o),
(53,582,o),
(67,572,cs),
(77,565,o),
(82,552,o),
(82,525,cs),
(83,341,o),
(84,253,o),
(84,312,cs),
(84,373,o),
(83,282,o),
(82,91,cs),
(82,65,o),
(76,51,o),
(67,43,cs),
(51,29,o),
(25,31,o),
(-5,25,c)
);
},
{
closed = 1;
nodes = (
(152,318,o),
(164,318,o),
(192,318,cs),
(348,318,o),
(451,378,o),
(451,481,cs),
(451,560,o),
(371,616,o),
(258,616,c),
(258,576,l),
(319,576,o),
(362,529,o),
(362,462,cs),
(362,387,o),
(293,348,o),
(185,348,cs),
(125,348,l),
(126,318,l)
);
}
);
};
color = 2;
layerId = m004;
shapes = (
{
closed = 1;
nodes = (
(270,271,o),
(282,271,o),
(297,271,cs),
(427,271,o),
(533,353,o),
(553,468,cs),
(568,558,o),
(512,620,o),
(418,618,c),
(390,587,l),
(442,587,o),
(477,533,o),
(474,456,cs),
(471,364,o),
(388,299,o),
(273,299,c),
(266,272,l)
);
},
{
closed = 1;
nodes = (
(262,0,l),
(268,21,l),
(220,32,o),
(184,43,o),
(181,47,cs),
(175,54,o),
(176,79,o),
(184,111,cs),
(208,205,o),
(259,405,o),
(311,586,c),
(390,587,l),
(418,618,l),
(354,617,o),
(298,616,o),
(285,616,c),
(249,616,o),
(188,617,o),
(139,618,c),
(131,590,l),
(173,583,o),
(208,570,o),
(214,559,cs),
(221,549,o),
(222,529,o),
(217,510,cs),
(190,403,o),
(144,231,o),
(108,101,cs),
(101,76,o),
(90,54,o),
(80,45,cs),
(74,40,o),
(40,30,o),
(-2,21,c),
(-8,0,l)
);
}
);
width = 522;
}
);
metricLeft = H;
metricRight = O;
unicode = 80;
},
{
glyphname = Q;
lastChange = "2025-04-17 06:18:00 +0000";
layers = (
{
anchors = (
{
name = bottom;
pos = (226,0);
},
{
name = center;
pos = (291,308);
},
{
name = ogonek;
pos = (486,10);
},
{
name = top;
pos = (394,617);
},
{
name = topleft;
pos = (45,616);
},
{
name = topright;
pos = (747,616);
}
);
background = {
shapes = (
{
closed = 1;
nodes = (
(487,-11,o),
(622,121,o),
(622,308,cs),
(622,494,o),
(487,626,o),
(296,626,cs),
(107,626,o),
(-26,494,o),
(-26,308,cs),
(-26,121,o),
(107,-11,o),
(296,-11,cs)
);
},
{
closed = 1;
nodes = (
(70,471,o),
(157,585,o),
(279,585,cs),
(424,585,o),
(526,463,o),
(526,298,cs),
(526,144,o),
(438,30,o),
(313,30,cs),
(171,30,o),
(70,152,o),
(70,318,cs)
);
},
{
closed = 1;
nodes = (
(487,-11,o),
(622,121,o),
(622,308,cs),
(622,494,o),
(487,626,o),
(296,626,cs),
(107,626,o),
(-26,494,o),
(-26,308,cs),
(-26,121,o),
(107,-11,o),
(296,-11,cs)
);
},
{
closed = 1;
nodes = (
(70,471,o),
(157,585,o),
(279,585,cs),
(424,585,o),
(526,463,o),
(526,298,cs),
(526,144,o),
(438,30,o),
(313,30,cs),
(171,30,o),
(70,152,o),
(70,318,cs)
);
}
);
};
backgroundImage = {
imagePath = "../../Desktop/Bildschirmfoto 2024-12-24 um 15.25.09.png";
pos = (885,-1126);
scale = (-1.4,1.4);
slant = (2,0);
};
color = 4;
layerId = m003;
shapes = (
{
closed = 1;
nodes = (
(-43,-141,l),
(118,-121,o),
(143,-230,o),
(330,-230,cs),
(448,-230,o),
(586,-193,o),
(648,-141,c),
(634,-115,l),
(580,-152,o),
(496,-183,o),
(430,-183,cs),
(268,-183,o),
(247,-66,o),
(60,-92,c)
);
},
{
closed = 1;
nodes = (
(485,32,l),
(473,65,l),
(-54,-114,l),
(-47,-143,l)
);
},
{
closed = 1;
nodes = (
(509,-8,o),
(659,123,o),
(689,308,cs),
(723,507,o),
(620,648,o),
(440,648,cs),
(258,648,o),
(108,518,o),
(77,334,cs),
(44,134,o),
(147,-8,o),
(326,-8,cs)
);
},
{
closed = 1;
nodes = (
(232,30,o),
(146,139,o),
(154,275,cs),
(165,462,o),
(283,610,o),
(420,610,cs),
(534,610,o),
(618,502,o),
(609,366,cs),
(599,179,o),
(483,30,o),
(347,30,cs)
);
}
);
width = 702;
},
{
anchors = (
{
name = bottom;
pos = (226,0);
},
{
name = center;
pos = (291,308);
},
{
name = ogonek;
pos = (486,10);
},
{
name = top;
pos = (394,617);
},
{
name = topleft;
pos = (45,616);
},
{
name = topright;
pos = (747,616);
}
);
background = {
shapes = (
{
closed = 1;
nodes = (
(487,-11,o),
(622,121,o),
(622,308,cs),
(622,494,o),
(487,626,o),
(296,626,cs),
(107,626,o),
(-26,494,o),
(-26,308,cs),
(-26,121,o),
(107,-11,o),
(296,-11,cs)
);
},
{
closed = 1;
nodes = (
(70,471,o),
(157,585,o),
(279,585,cs),
(424,585,o),
(526,463,o),
(526,298,cs),
(526,144,o),
(438,30,o),
(313,30,cs),
(171,30,o),
(70,152,o),
(70,318,cs)
);
},
{
closed = 1;
nodes = (
(487,-11,o),
(622,121,o),
(622,308,cs),
(622,494,o),
(487,626,o),
(296,626,cs),
(107,626,o),
(-26,494,o),
(-26,308,cs),
(-26,121,o),
(107,-11,o),
(296,-11,cs)
);
},
{
closed = 1;
nodes = (
(70,471,o),
(157,585,o),
(279,585,cs),
(424,585,o),
(526,463,o),
(526,298,cs),
(526,144,o),
(438,30,o),
(313,30,cs),
(171,30,o),
(70,152,o),
(70,318,cs)
);
},
{
closed = 1;
nodes = (
(373,-470,o),
(519,-562,o),
(706,-562,cs),
(804,-562,o),
(922,-509,o),
(991,-433,c),
(985,-413,l),
(920,-469,o),
(822,-509,o),
(749,-509,cs),
(588,-509,o),
(470,-431,o),
(463,-321,c),
(354,-339,l)
);
},
{
closed = 1;
nodes = (
(689,-492,o),
(543,-400,o),
(356,-400,cs),
(258,-400,o),
(140,-453,o),
(71,-529,c),
(77,-549,l),
(142,-493,o),
(240,-453,o),
(313,-453,cs),
(474,-453,o),
(592,-531,o),
(599,-641,c),
(708,-623,l)
);
}
);
};
backgroundImage = {
imagePath = "../../Desktop/Bildschirmfoto 2024-12-24 um 15.25.09.png";
pos = (885,-1126);
scale = (-1.4,1.4);
};
color = 4;
layerId = m005;
shapes = (
{
closed = 1;
nodes = (
(31,139,o),
(146,-8,o),
(349,-8,cs),
(522,-8,o),
(663,108,o),
(689,272,cs),
(729,481,o),
(614,628,o),
(411,628,cs),
(238,628,o),
(97,512,o),
(71,348,cs)
);
},
{
closed = 1;
nodes = (
(226,32,o),
(129,173,o),
(149,372,cs),
(159,499,o),
(259,588,o),
(391,588,cs),
(539,588,o),
(630,447,o),
(610,248,cs),
(600,121,o),
(506,32,o),
(382,32,cs)
);
},
{
closed = 1;
nodes = (
(230,49,l),
(391,49,o),
(363,-230,o),
(550,-230,cs),
(646,-230,o),
(770,-176,o),
(871,-91,c),
(871,-71,l),
(777,-136,o),
(665,-177,o),
(598,-177,cs),
(436,-177,o),
(475,102,o),
(288,102,c)
);
}
);
width = 702;
},
{
anchors = (
{
name = bottom;
pos = (226,0);
},
{
name = center;
pos = (291,308);
},
{
name = ogonek;
pos = (486,10);
},
{
name = top;
pos = (394,617);
},
{
name = topleft;
pos = (45,616);
},
{
name = topright;
pos = (747,616);
}
);
background = {
shapes = (
{
closed = 1;
nodes = (
(487,-11,o),
(622,121,o),
(622,308,cs),
(622,494,o),
(487,626,o),
(296,626,cs),
(107,626,o),
(-26,494,o),
(-26,308,cs),
(-26,121,o),
(107,-11,o),
(296,-11,cs)
);
},
{
closed = 1;
nodes = (
(70,471,o),
(157,585,o),
(279,585,cs),
(424,585,o),
(526,463,o),
(526,298,cs),
(526,144,o),
(438,30,o),
(313,30,cs),
(171,30,o),
(70,152,o),
(70,318,cs)
);
},
{
closed = 1;
nodes = (
(487,-11,o),
(622,121,o),
(622,308,cs),
(622,494,o),
(487,626,o),
(296,626,cs),
(107,626,o),
(-26,494,o),
(-26,308,cs),
(-26,121,o),
(107,-11,o),
(296,-11,cs)
);
},
{
closed = 1;
nodes = (
(70,471,o),
(157,585,o),
(279,585,cs),
(424,585,o),
(526,463,o),
(526,298,cs),
(526,144,o),
(438,30,o),
(313,30,cs),
(171,30,o),
(70,152,o),
(70,318,cs)
);
}
);
};
backgroundImage = {
imagePath = "../../Desktop/Bildschirmfoto 2024-12-24 um 15.25.09.png";
pos = (885,-1126);
scale = (-1.4,1.4);
};
color = 4;
layerId = m006;
shapes = (
{
closed = 1;
nodes = (
(31,139,o),
(146,-8,o),
(349,-8,cs),
(522,-8,o),
(663,108,o),
(689,272,cs),
(729,481,o),
(614,628,o),
(411,628,cs),
(238,628,o),
(97,512,o),
(71,348,cs)
);
},
{
closed = 1;
nodes = (
(226,32,o),
(129,173,o),
(149,372,cs),
(159,499,o),
(259,588,o),
(391,588,cs),
(539,588,o),
(630,447,o),
(610,248,cs),
(600,121,o),
(506,32,o),
(382,32,cs)
);
},
{
closed = 1;
nodes = (
(230,49,l),
(391,49,o),
(363,-230,o),
(550,-230,cs),
(646,-230,o),
(770,-176,o),
(871,-91,c),
(871,-71,l),
(777,-136,o),
(665,-177,o),
(598,-177,cs),
(436,-177,o),
(475,102,o),
(288,102,c)
);
}
);
width = 702;
},
{
anchors = (
{
name = bottom;
pos = (226,0);
},
{
name = center;
pos = (291,308);
},
{
name = ogonek;
pos = (486,10);
},
{
name = top;
pos = (394,617);
},
{
name = topleft;
pos = (45,616);
},
{
name = topright;
pos = (747,616);
}
);
background = {
shapes = (
{
closed = 1;
nodes = (
(487,-11,o),
(622,121,o),
(622,308,cs),
(622,494,o),
(487,626,o),
(296,626,cs),
(107,626,o),
(-26,494,o),
(-26,308,cs),
(-26,121,o),
(107,-11,o),
(296,-11,cs)
);
},
{
closed = 1;
nodes = (
(70,471,o),
(157,585,o),
(279,585,cs),
(424,585,o),
(526,463,o),
(526,298,cs),
(526,144,o),
(438,30,o),
(313,30,cs),
(171,30,o),
(70,152,o),
(70,318,cs)
);
},
{
closed = 1;
nodes = (
(487,-11,o),
(622,121,o),
(622,308,cs),
(622,494,o),
(487,626,o),
(296,626,cs),
(107,626,o),
(-26,494,o),
(-26,308,cs),
(-26,121,o),
(107,-11,o),
(296,-11,cs)
);
},
{
closed = 1;
nodes = (
(70,471,o),
(157,585,o),
(279,585,cs),
(424,585,o),
(526,463,o),
(526,298,cs),
(526,144,o),
(438,30,o),
(313,30,cs),
(171,30,o),
(70,152,o),
(70,318,cs)
);
}
);
};
backgroundImage = {
imagePath = "../../Desktop/Bildschirmfoto 2024-12-24 um 15.25.09.png";
pos = (885,-1126);
scale = (-1.4,1.4);
};
color = 4;
layerId = m004;
shapes = (
{
closed = 1;
nodes = (
(31,139,o),
(146,-8,o),
(349,-8,cs),
(522,-8,o),
(663,108,o),
(689,272,cs),
(729,481,o),
(614,628,o),
(411,628,cs),
(238,628,o),
(97,512,o),
(71,348,cs)
);
},
{
closed = 1;
nodes = (
(226,32,o),
(129,173,o),
(149,372,cs),
(159,499,o),
(259,588,o),
(391,588,cs),
(539,588,o),
(630,447,o),
(610,248,cs),
(600,121,o),
(506,32,o),
(382,32,cs)
);
},
{
closed = 1;
nodes = (
(230,49,l),
(391,49,o),
(363,-230,o),
(550,-230,cs),
(646,-230,o),
(770,-176,o),
(871,-91,c),
(871,-71,l),
(777,-136,o),
(665,-177,o),
(598,-177,cs),
(436,-177,o),
(475,102,o),
(288,102,c)
);
}
);
width = 702;
}
);
metricLeft = O;
metricWidth = O;
unicode = 81;
},
{
glyphname = R;
lastChange = "2025-04-15 19:32:03 +0000";
layers = (
{
anchors = (
{
name = bottom;
pos = (246,0);
},
{
name = top;
pos = (456,616);
}
);
background = {
shapes = (
{
closed = 1;
nodes = (
(-24,0,l),
(259,0,l),
(259,40,l),
(214,40,o),
(179,38,o),
(160,54,cs),
(151,62,o),
(146,73,o),
(146,91,cs),
(144,307,o),
(143,377,o),
(147,574,c),
(164,576,o),
(216,576,o),
(239,576,c),
(239,616,l),
(-24,616,l),
(-24,591,l),
(10,581,o),
(34,582,o),
(48,572,cs),
(58,565,o),
(63,552,o),
(63,525,cs),
(64,341,o),
(65,253,o),
(65,312,cs),
(65,373,o),
(64,282,o),
(63,91,cs),
(63,65,o),
(57,51,o),
(48,43,cs),
(32,29,o),
(6,31,o),
(-24,25,c)
);
}
);
};
color = 2;
layerId = m003;
shapes = (
{
closed = 1;
nodes = (
(391,282,o),
(529,369,o),
(540,478,cs),
(549,568,o),
(487,620,o),
(391,618,c),
(360,576,l),
(430,576,o),
(464,537,o),
(462,466,cs),
(460,388,o),
(348,322,o),
(216,322,c),
(206,282,l)
);
},
{
closed = 1;
nodes = (
(243,0,l),
(250,27,l),
(203,32,o),
(165,43,o),
(159,53,cs),
(154,60,o),
(155,82,o),
(161,106,cs),
(216,313,o),
(269,507,o),
(289,574,c),
(360,576,l),
(391,618,l),
(332,617,o),
(280,616,o),
(264,616,c),
(254,616,o),
(203,617,o),
(139,618,c),
(132,592,l),
(169,584,o),
(198,574,o),
(202,567,cs),
(206,558,o),
(204,535,o),
(198,512,cs),
(172,408,o),
(127,239,o),
(90,104,cs),
(82,76,o),
(69,51,o),
(59,44,cs),
(52,39,o),
(19,31,o),
(-20,25,c),
(-27,0,l)
);
},
{
closed = 1;
nodes = (
(570,18,l),
(492,27,o),
(411,159,o),
(325,327,c),
(260,295,l),
(346,122,o),
(422,-6,o),
(492,-3,cs),
(570,0,l)
);
}
);
width = 594;
},
{
anchors = (
{
name = bottom;
pos = (246,0);
},
{
name = top;
pos = (456,616);
}
);
background = {
shapes = (
{
closed = 1;
nodes = (
(-24,0,l),
(259,0,l),
(259,40,l),
(214,40,o),
(179,38,o),
(160,54,cs),
(151,62,o),
(146,73,o),
(146,91,cs),
(144,307,o),
(143,377,o),
(147,574,c),
(164,576,o),
(216,576,o),
(239,576,c),
(239,616,l),
(-24,616,l),
(-24,591,l),
(10,581,o),
(34,582,o),
(48,572,cs),
(58,565,o),
(63,552,o),
(63,525,cs),
(64,341,o),
(65,253,o),
(65,312,cs),
(65,373,o),
(64,282,o),
(63,91,cs),
(63,65,o),
(57,51,o),
(48,43,cs),
(32,29,o),
(6,31,o),
(-24,25,c)
);
}
);
};
color = 2;
layerId = m005;
shapes = (
{
closed = 1;
nodes = (
(391,282,o),
(529,369,o),
(540,478,cs),
(549,568,o),
(487,620,o),
(391,618,c),
(360,576,l),
(430,576,o),
(464,537,o),
(462,466,cs),
(460,388,o),
(348,322,o),
(216,322,c),
(206,282,l)
);
},
{
closed = 1;
nodes = (
(243,0,l),
(250,27,l),
(203,32,o),
(165,43,o),
(159,53,cs),
(154,60,o),
(155,82,o),
(161,106,cs),
(216,313,o),
(269,507,o),
(289,574,c),
(360,576,l),
(391,618,l),
(332,617,o),
(280,616,o),
(264,616,c),
(254,616,o),
(203,617,o),
(139,618,c),
(132,592,l),
(169,584,o),
(198,574,o),
(202,567,cs),
(206,558,o),
(204,535,o),
(198,512,cs),
(172,408,o),
(127,239,o),
(90,104,cs),
(82,76,o),
(69,51,o),
(59,44,cs),
(52,39,o),
(19,31,o),
(-20,25,c),
(-27,0,l)
);
},
{
closed = 1;
nodes = (
(570,18,l),
(492,27,o),
(411,159,o),
(325,327,c),
(260,295,l),
(346,122,o),
(422,-6,o),
(492,-3,cs),
(570,0,l)
);
}
);
width = 594;
},
{
anchors = (
{
name = bottom;
pos = (246,0);
},
{
name = top;
pos = (456,616);
}
);
background = {
shapes = (
{
closed = 1;
nodes = (
(-24,0,l),
(259,0,l),
(259,40,l),
(214,40,o),
(179,38,o),
(160,54,cs),
(151,62,o),
(146,73,o),
(146,91,cs),
(144,307,o),
(143,377,o),
(147,574,c),
(164,576,o),
(216,576,o),
(239,576,c),
(239,616,l),
(-24,616,l),
(-24,591,l),
(10,581,o),
(34,582,o),
(48,572,cs),
(58,565,o),
(63,552,o),
(63,525,cs),
(64,341,o),
(65,253,o),
(65,312,cs),
(65,373,o),
(64,282,o),
(63,91,cs),
(63,65,o),
(57,51,o),
(48,43,cs),
(32,29,o),
(6,31,o),
(-24,25,c)
);
}
);
};
color = 2;
layerId = m006;
shapes = (
{
closed = 1;
nodes = (
(391,282,o),
(529,369,o),
(540,478,cs),
(549,568,o),
(487,620,o),
(391,618,c),
(360,576,l),
(430,576,o),
(464,537,o),
(462,466,cs),
(460,388,o),
(348,322,o),
(216,322,c),
(206,282,l)
);
},
{
closed = 1;
nodes = (
(243,0,l),
(250,27,l),
(203,32,o),
(165,43,o),
(159,53,cs),
(154,60,o),
(155,82,o),
(161,106,cs),
(216,313,o),
(269,507,o),
(289,574,c),
(360,576,l),
(391,618,l),
(332,617,o),
(280,616,o),
(264,616,c),
(254,616,o),
(203,617,o),
(139,618,c),
(132,592,l),
(169,584,o),
(198,574,o),
(202,567,cs),
(206,558,o),
(204,535,o),
(198,512,cs),
(172,408,o),
(127,239,o),
(90,104,cs),
(82,76,o),
(69,51,o),
(59,44,cs),
(52,39,o),
(19,31,o),
(-20,25,c),
(-27,0,l)
);
},
{
closed = 1;
nodes = (
(570,18,l),
(492,27,o),
(411,159,o),
(325,327,c),
(260,295,l),
(346,122,o),
(422,-6,o),
(492,-3,cs),
(570,0,l)
);
}
);
width = 594;
},
{
anchors = (
{
name = bottom;
pos = (246,0);
},
{
name = top;
pos = (456,616);
}
);
background = {
shapes = (
{
closed = 1;
nodes = (
(-24,0,l),
(259,0,l),
(259,40,l),
(214,40,o),
(179,38,o),
(160,54,cs),
(151,62,o),
(146,73,o),
(146,91,cs),
(144,307,o),
(143,377,o),
(147,574,c),
(164,576,o),
(216,576,o),
(239,576,c),
(239,616,l),
(-24,616,l),
(-24,591,l),
(10,581,o),
(34,582,o),
(48,572,cs),
(58,565,o),
(63,552,o),
(63,525,cs),
(64,341,o),
(65,253,o),
(65,312,cs),
(65,373,o),
(64,282,o),
(63,91,cs),
(63,65,o),
(57,51,o),
(48,43,cs),
(32,29,o),
(6,31,o),
(-24,25,c)
);
}
);
};
color = 2;
layerId = m004;
shapes = (
{
closed = 1;
nodes = (
(391,282,o),
(529,369,o),
(540,478,cs),
(549,568,o),
(487,620,o),
(391,618,c),
(360,576,l),
(430,576,o),
(464,537,o),
(462,466,cs),
(460,388,o),
(348,322,o),
(216,322,c),
(206,282,l)
);
},
{
closed = 1;
nodes = (
(243,0,l),
(250,27,l),
(203,32,o),
(165,43,o),
(159,53,cs),
(154,60,o),
(155,82,o),
(161,106,cs),
(216,313,o),
(269,507,o),
(289,574,c),
(360,576,l),
(391,618,l),
(332,617,o),
(280,616,o),
(264,616,c),
(254,616,o),
(203,617,o),
(139,618,c),
(132,592,l),
(169,584,o),
(198,574,o),
(202,567,cs),
(206,558,o),
(204,535,o),
(198,512,cs),
(172,408,o),
(127,239,o),
(90,104,cs),
(82,76,o),
(69,51,o),
(59,44,cs),
(52,39,o),
(19,31,o),
(-20,25,c),
(-27,0,l)
);
},
{
closed = 1;
nodes = (
(570,18,l),
(492,27,o),
(411,159,o),
(325,327,c),
(260,295,l),
(346,122,o),
(422,-6,o),
(492,-3,cs),
(570,0,l)
);
}
);
width = 594;
}
);
metricLeft = H;
unicode = 82;
},
{
glyphname = S;
lastChange = "2025-04-17 11:45:50 +0000";
layers = (
{
anchors = (
{
name = bottom;
pos = (170,0);
},
{
name = top;
pos = (380,616);
}
);
background = {
shapes = (
{
closed = 1;
nodes = (
(286,-9,o),
(367,58,o),
(382,152,cs),
(396,242,o),
(339,298,o),
(283,352,cs),
(233,401,o),
(184,448,o),
(195,518,cs),
(201,557,o),
(249,585,o),
(310,585,cs),
(397,585,o),
(440,530,o),
(413,453,c),
(446,453,l),
(462,521,o),
(476,572,o),
(479,575,c),
(443,604,o),
(374,624,o),
(311,624,cs),
(219,624,o),
(144,565,o),
(131,481,cs),
(117,384,o),
(176,327,o),
(231,274,cs),
(281,227,o),
(327,182,o),
(318,115,cs),
(311,62,o),
(254,26,o),
(180,27,cs),
(94,29,o),
(50,99,o),
(75,197,c),
(39,197,l),
(33,149,o),
(19,89,o),
(5,53,c),
(41,17,o),
(116,-9,o),
(186,-9,cs)
);
}
);
};
color = 4;
layerId = m003;
shapes = (
{
closed = 1;
nodes = (
(280,-9,o),
(367,56,o),
(382,150,cs),
(396,239,o),
(365,262,o),
(285,347,cs),
(237,397,o),
(180,446,o),
(194,515,cs),
(203,560,o),
(249,590,o),
(310,590,cs),
(393,590,o),
(437,533,o),
(416,453,c),
(445,453,l),
(478,575,l),
(468,577,o),
(454,583,o),
(437,590,cs),
(403,605,o),
(358,624,o),
(310,624,cs),
(218,624,o),
(145,568,o),
(132,484,cs),
(118,389,o),
(151,351,o),
(217,287,cs),
(268,238,o),
(336,182,o),
(318,113,cs),
(304,60,o),
(254,24,o),
(180,25,cs),
(94,27,o),
(50,99,o),
(75,197,c),
(38,197,l),
(34,158,o),
(20,100,o),
(6,57,c),
(10,56,o),
(17,51,o),
(26,45,cs),
(54,26,o),
(105,-9,o),
(180,-9,cs)
);
}
);
width = 432;
},
{
anchors = (
{
name = bottom;
pos = (170,0);
},
{
name = top;
pos = (380,616);
}
);
color = 4;
layerId = m005;
shapes = (
{
closed = 1;
nodes = (
(286,-9,o),
(367,58,o),
(382,152,cs),
(409,325,o),
(175,372,o),
(193,518,cs),
(198,560,o),
(235,589,o),
(298,589,cs),
(393,589,o),
(441,533,o),
(413,453,c),
(446,453,l),
(462,521,o),
(476,572,o),
(479,575,c),
(443,604,o),
(374,624,o),
(311,624,cs),
(212,624,o),
(144,565,o),
(131,481,cs),
(104,298,o),
(335,259,o),
(320,115,cs),
(314,60,o),
(261,22,o),
(192,23,cs),
(98,25,o),
(49,97,o),
(75,197,c),
(39,197,l),
(33,149,o),
(19,89,o),
(5,53,c),
(41,17,o),
(116,-9,o),
(186,-9,cs)
);
}
);
width = 432;
},
{
anchors = (
{
name = bottom;
pos = (170,0);
},
{
name = top;
pos = (380,616);
}
);
color = 4;
layerId = m006;
shapes = (
{
closed = 1;
nodes = (
(286,-9,o),
(367,58,o),
(382,152,cs),
(409,325,o),
(175,372,o),
(193,518,cs),
(198,560,o),
(235,589,o),
(298,589,cs),
(393,589,o),
(441,533,o),
(413,453,c),
(446,453,l),
(462,521,o),
(476,572,o),
(479,575,c),
(443,604,o),
(374,624,o),
(311,624,cs),
(212,624,o),
(144,565,o),
(131,481,cs),
(104,298,o),
(335,259,o),
(320,115,cs),
(314,60,o),
(261,22,o),
(192,23,cs),
(98,25,o),
(49,97,o),
(75,197,c),
(39,197,l),
(33,149,o),
(19,89,o),
(5,53,c),
(41,17,o),
(116,-9,o),
(186,-9,cs)
);
}
);
width = 432;
},
{
anchors = (
{
name = bottom;
pos = (170,0);
},
{
name = top;
pos = (380,616);
}
);
color = 4;
layerId = m004;
shapes = (
{
closed = 1;
nodes = (
(286,-9,o),
(367,58,o),
(382,152,cs),
(409,325,o),
(175,372,o),
(193,518,cs),
(198,560,o),
(235,589,o),
(298,589,cs),
(393,589,o),
(441,533,o),
(413,453,c),
(446,453,l),
(462,521,o),
(476,572,o),
(479,575,c),
(443,604,o),
(374,624,o),
(311,624,cs),
(212,624,o),
(144,565,o),
(131,481,cs),
(104,298,o),
(335,259,o),
(320,115,cs),
(314,60,o),
(261,22,o),
(192,23,cs),
(98,25,o),
(49,97,o),
(75,197,c),
(39,197,l),
(33,149,o),
(19,89,o),
(5,53,c),
(41,17,o),
(116,-9,o),
(186,-9,cs)
);
}
);
width = 432;
}
);
metricLeft = O;
metricRight = O;
unicode = 83;
},
{
glyphname = T;
lastChange = "2025-04-15 19:32:03 +0000";
layers = (
{
anchors = (
{
name = bottom;
pos = (243,0);
},
{
name = center;
pos = (348,308);
},
{
name = top;
pos = (453,616);
}
);
background = {
shapes = (
{
closed = 1;
nodes = (
(159,0,l),
(404,0,l),
(404,18,l),
(358,31,o),
(335,33,o),
(326,52,cs),
(322,60,o),
(321,73,o),
(321,91,cs),
(320,164,o),
(320,237,o),
(319,310,cs),
(318,382,o),
(320,453,o),
(321,525,cs),
(321,561,o),
(327,575,o),
(348,585,cs),
(359,590,o),
(377,591,o),
(404,598,c),
(404,616,l),
(159,616,l),
(159,598,l),
(205,585,o),
(228,583,o),
(237,565,cs),
(241,556,o),
(243,543,o),
(243,525,cs),
(244,454,o),
(245,383,o),
(245,312,cs),
(245,238,o),
(244,165,o),
(243,91,cs),
(243,55,o),
(236,42,o),
(215,32,cs),
(204,27,o),
(186,25,o),
(159,18,c)
);
}
);
};
color = 4;
layerId = m003;
shapes = (
{
closed = 1;
nodes = (
(425,0,l),
(431,25,l),
(360,39,o),
(308,43,o),
(320,97,cs),
(357,259,o),
(403,428,o),
(451,590,c),
(430,565,l),
(494,565,o),
(543,565,o),
(572,565,cs),
(608,565,o),
(654,559,o),
(629,447,c),
(666,451,l),
(682,515,o),
(694,579,o),
(699,643,c),
(690,643,l),
(629,616,l),
(471,613,o),
(348,613,o),
(207,616,c),
(169,653,l),
(163,648,l),
(132,581,o),
(109,515,o),
(89,448,c),
(125,446,l),
(161,561,o),
(196,565,o),
(260,565,cs),
(400,565,l),
(377,590,l),
(345,462,o),
(260,143,o),
(245,97,cs),
(231,51,o),
(196,38,o),
(117,25,c),
(111,0,l)
);
}
);
width = 612;
},
{
anchors = (
{
name = bottom;
pos = (243,0);
},
{
name = center;
pos = (348,308);
},
{
name = top;
pos = (453,616);
}
);
background = {
shapes = (
{
closed = 1;
nodes = (
(159,0,l),
(404,0,l),
(404,18,l),
(358,31,o),
(335,33,o),
(326,52,cs),
(322,60,o),
(321,73,o),
(321,91,cs),
(320,164,o),
(320,237,o),
(319,310,cs),
(318,382,o),
(320,453,o),
(321,525,cs),
(321,561,o),
(327,575,o),
(348,585,cs),
(359,590,o),
(377,591,o),
(404,598,c),
(404,616,l),
(159,616,l),
(159,598,l),
(205,585,o),
(228,583,o),
(237,565,cs),
(241,556,o),
(243,543,o),
(243,525,cs),
(244,454,o),
(245,383,o),
(245,312,cs),
(245,238,o),
(244,165,o),
(243,91,cs),
(243,55,o),
(236,42,o),
(215,32,cs),
(204,27,o),
(186,25,o),
(159,18,c)
);
}
);
};
color = 4;
layerId = m005;
shapes = (
{
closed = 1;
nodes = (
(425,0,l),
(431,25,l),
(360,39,o),
(308,43,o),
(320,97,cs),
(357,259,o),
(403,428,o),
(451,590,c),
(430,565,l),
(494,565,o),
(543,565,o),
(572,565,cs),
(608,565,o),
(654,559,o),
(629,447,c),
(666,451,l),
(682,515,o),
(694,579,o),
(699,643,c),
(690,643,l),
(629,616,l),
(471,613,o),
(348,613,o),
(207,616,c),
(169,653,l),
(163,648,l),
(132,581,o),
(109,515,o),
(89,448,c),
(125,446,l),
(161,561,o),
(196,565,o),
(260,565,cs),
(400,565,l),
(377,590,l),
(345,462,o),
(260,143,o),
(245,97,cs),
(231,51,o),
(196,38,o),
(117,25,c),
(111,0,l)
);
}
);
width = 612;
},
{
anchors = (
{
name = bottom;
pos = (243,0);
},
{
name = center;
pos = (348,308);
},
{
name = top;
pos = (453,616);
}
);
background = {
shapes = (
{
closed = 1;
nodes = (
(159,0,l),
(404,0,l),
(404,18,l),
(358,31,o),
(335,33,o),
(326,52,cs),
(322,60,o),
(321,73,o),
(321,91,cs),
(320,164,o),
(320,237,o),
(319,310,cs),
(318,382,o),
(320,453,o),
(321,525,cs),
(321,561,o),
(327,575,o),
(348,585,cs),
(359,590,o),
(377,591,o),
(404,598,c),
(404,616,l),
(159,616,l),
(159,598,l),
(205,585,o),
(228,583,o),
(237,565,cs),
(241,556,o),
(243,543,o),
(243,525,cs),
(244,454,o),
(245,383,o),
(245,312,cs),
(245,238,o),
(244,165,o),
(243,91,cs),
(243,55,o),
(236,42,o),
(215,32,cs),
(204,27,o),
(186,25,o),
(159,18,c)
);
}
);
};
color = 4;
layerId = m006;
shapes = (
{
closed = 1;
nodes = (
(425,0,l),
(431,25,l),
(360,39,o),
(308,43,o),
(320,97,cs),
(357,259,o),
(403,428,o),
(451,590,c),
(430,565,l),
(494,565,o),
(543,565,o),
(572,565,cs),
(608,565,o),
(654,559,o),
(629,447,c),
(666,451,l),
(682,515,o),
(694,579,o),
(699,643,c),
(690,643,l),
(629,616,l),
(471,613,o),
(348,613,o),
(207,616,c),
(169,653,l),
(163,648,l),
(132,581,o),
(109,515,o),
(89,448,c),
(125,446,l),
(161,561,o),
(196,565,o),
(260,565,cs),
(400,565,l),
(377,590,l),
(345,462,o),
(260,143,o),
(245,97,cs),
(231,51,o),
(196,38,o),
(117,25,c),
(111,0,l)
);
}
);
width = 612;
},
{
anchors = (
{
name = bottom;
pos = (243,0);
},
{
name = center;
pos = (348,308);
},
{
name = top;
pos = (453,616);
}
);
background = {
shapes = (
{
closed = 1;
nodes = (
(159,0,l),
(404,0,l),
(404,18,l),
(358,31,o),
(335,33,o),
(326,52,cs),
(322,60,o),
(321,73,o),
(321,91,cs),
(320,164,o),
(320,237,o),
(319,310,cs),
(318,382,o),
(320,453,o),
(321,525,cs),
(321,561,o),
(327,575,o),
(348,585,cs),
(359,590,o),
(377,591,o),
(404,598,c),
(404,616,l),
(159,616,l),
(159,598,l),
(205,585,o),
(228,583,o),
(237,565,cs),
(241,556,o),
(243,543,o),
(243,525,cs),
(244,454,o),
(245,383,o),
(245,312,cs),
(245,238,o),
(244,165,o),
(243,91,cs),
(243,55,o),
(236,42,o),
(215,32,cs),
(204,27,o),
(186,25,o),
(159,18,c)
);
}
);
};
color = 4;
layerId = m004;
shapes = (
{
closed = 1;
nodes = (
(425,0,l),
(431,25,l),
(360,39,o),
(308,43,o),
(320,97,cs),
(357,259,o),
(403,428,o),
(451,590,c),
(430,565,l),
(494,565,o),
(543,565,o),
(572,565,cs),
(608,565,o),
(654,559,o),
(629,447,c),
(666,451,l),
(682,515,o),
(694,579,o),
(699,643,c),
(690,643,l),
(629,616,l),
(471,613,o),
(348,613,o),
(207,616,c),
(169,653,l),
(163,648,l),
(132,581,o),
(109,515,o),
(89,448,c),
(125,446,l),
(161,561,o),
(196,565,o),
(260,565,cs),
(400,565,l),
(377,590,l),
(345,462,o),
(260,143,o),
(245,97,cs),
(231,51,o),
(196,38,o),
(117,25,c),
(111,0,l)
);
}
);
width = 612;
}
);
metricLeft = H;
metricRight = H;
unicode = 84;
},
{
glyphname = U;
lastChange = "2025-04-17 06:16:18 +0000";
layers = (
{
anchors = (
{
name = bottom;
pos = (264,0);
},
{
name = ogonek;
pos = (535,10);
},
{
name = top;
pos = (474,616);
},
{
name = topright;
pos = (789,616);
}
);
background = {
anchors = (
{
name = bottom;
pos = (226,0);
},
{
name = center;
pos = (291,308);
},
{
name = ogonek;
pos = (486,10);
},
{
name = top;
pos = (456,617);
},
{
name = topleft;
pos = (45,616);
},
{
name = topright;
pos = (747,616);
}
);
shapes = (
{
closed = 1;
nodes = (
(509,-8,o),
(659,123,o),
(689,308,cs),
(723,507,o),
(620,648,o),
(440,648,cs),
(258,648,o),
(108,518,o),
(77,334,cs),
(44,134,o),
(147,-8,o),
(326,-8,cs)
);
},
{
closed = 1;
nodes = (
(232,30,o),
(146,139,o),
(154,275,cs),
(165,462,o),
(283,610,o),
(420,610,cs),
(534,610,o),
(618,502,o),
(609,366,cs),
(599,179,o),
(483,30,o),
(347,30,cs)
);
}
);
};
color = 1;
layerId = m003;
shapes = (
{
closed = 1;
nodes = (
(469,-11,o),
(560,78,o),
(605,204,cs),
(652,336,o),
(665,431,o),
(688,514,cs),
(700,557,o),
(738,588,o),
(780,588,c),
(787,616,l),
(569,616,l),
(563,592,l),
(629,582,o),
(651,536,o),
(637,481,cs),
(615,393,o),
(589,278,o),
(562,208,cs),
(524,108,o),
(457,36,o),
(344,36,cs),
(235,36,o),
(167,100,o),
(176,188,cs),
(183,255,o),
(221,385,o),
(253,503,cs),
(266,551,o),
(314,588,o),
(369,592,c),
(375,616,l),
(139,616,l),
(131,589,l),
(171,581,o),
(193,550,o),
(184,515,cs),
(188,530,o),
(150,401,o),
(105,202,cs),
(77,77,o),
(176,-11,o),
(333,-11,cs)
);
}
);
width = 666;
},
{
anchors = (
{
name = bottom;
pos = (264,0);
},
{
name = ogonek;
pos = (535,10);
},
{
name = top;
pos = (474,616);
},
{
name = topright;
pos = (789,616);
}
);
color = 1;
layerId = m005;
shapes = (
{
closed = 1;
nodes = (
(469,-11,o),
(560,78,o),
(605,204,cs),
(652,336,o),
(665,431,o),
(688,514,cs),
(700,557,o),
(738,588,o),
(780,588,c),
(787,616,l),
(569,616,l),
(563,592,l),
(629,582,o),
(651,536,o),
(637,481,cs),
(615,393,o),
(589,278,o),
(562,208,cs),
(524,108,o),
(457,36,o),
(344,36,cs),
(235,36,o),
(167,100,o),
(176,188,cs),
(183,255,o),
(221,385,o),
(253,503,cs),
(266,551,o),
(314,588,o),
(369,592,c),
(375,616,l),
(139,616,l),
(131,589,l),
(171,581,o),
(193,550,o),
(184,515,cs),
(188,530,o),
(150,401,o),
(105,202,cs),
(77,77,o),
(176,-11,o),
(333,-11,cs)
);
}
);
width = 666;
},
{
anchors = (
{
name = bottom;
pos = (264,0);
},
{
name = ogonek;
pos = (535,10);
},
{
name = top;
pos = (474,616);
},
{
name = topright;
pos = (789,616);
}
);
color = 1;
layerId = m006;
shapes = (
{
closed = 1;
nodes = (
(469,-11,o),
(560,78,o),
(605,204,cs),
(652,336,o),
(665,431,o),
(688,514,cs),
(700,557,o),
(738,588,o),
(780,588,c),
(787,616,l),
(569,616,l),
(563,592,l),
(629,582,o),
(651,536,o),
(637,481,cs),
(615,393,o),
(589,278,o),
(562,208,cs),
(524,108,o),
(457,36,o),
(344,36,cs),
(235,36,o),
(167,100,o),
(176,188,cs),
(183,255,o),
(221,385,o),
(253,503,cs),
(266,551,o),
(314,588,o),
(369,592,c),
(375,616,l),
(139,616,l),
(131,589,l),
(171,581,o),
(193,550,o),
(184,515,cs),
(188,530,o),
(150,401,o),
(105,202,cs),
(77,77,o),
(176,-11,o),
(333,-11,cs)
);
}
);
width = 666;
},
{
anchors = (
{
name = bottom;
pos = (264,0);
},
{
name = ogonek;
pos = (535,10);
},
{
name = top;
pos = (474,616);
},
{
name = topright;
pos = (789,616);
}
);
color = 1;
layerId = m004;
shapes = (
{
closed = 1;
nodes = (
(469,-11,o),
(560,78,o),
(605,204,cs),
(652,336,o),
(665,431,o),
(688,514,cs),
(700,557,o),
(738,588,o),
(780,588,c),
(787,616,l),
(569,616,l),
(563,592,l),
(629,582,o),
(651,536,o),
(637,481,cs),
(615,393,o),
(589,278,o),
(562,208,cs),
(524,108,o),
(457,36,o),
(344,36,cs),
(235,36,o),
(167,100,o),
(176,188,cs),
(183,255,o),
(221,385,o),
(253,503,cs),
(266,551,o),
(314,588,o),
(369,592,c),
(375,616,l),
(139,616,l),
(131,589,l),
(171,581,o),
(193,550,o),
(184,515,cs),
(188,530,o),
(150,401,o),
(105,202,cs),
(77,77,o),
(176,-11,o),
(333,-11,cs)
);
}
);
width = 666;
}
);
metricLeft = H;
metricRight = H;
unicode = 85;
},
{
glyphname = V;
lastChange = "2025-04-15 19:32:03 +0000";
layers = (
{
anchors = (
{
name = bottom;
pos = (277,0);
},
{
name = top;
pos = (487,616);
}
);
color = 4;
layerId = m003;
shapes = (
{
closed = 1;
nodes = (
(305,-24,l),
(421,153,o),
(630,444,o),
(673,505,cs),
(716,566,o),
(755,579,o),
(820,588,c),
(827,616,l),
(577,616,l),
(571,593,l),
(619,586,o),
(651,573,o),
(643,543,cs),
(637,521,o),
(616,488,o),
(591,452,cs),
(328,70,l),
(353,93,l),
(330,227,o),
(300,480,o),
(297,496,cs),
(294,512,o),
(293,528,o),
(297,543,cs),
(301,558,o),
(317,582,o),
(406,591,c),
(413,616,l),
(125,616,l),
(118,588,l),
(163,580,o),
(207,571,o),
(219,489,cs),
(292,-24,l)
);
}
);
width = 720;
},
{
anchors = (
{
name = bottom;
pos = (277,0);
},
{
name = top;
pos = (487,616);
}
);
color = 4;
layerId = m005;
shapes = (
{
closed = 1;
nodes = (
(305,-24,l),
(421,153,o),
(630,444,o),
(673,505,cs),
(716,566,o),
(755,579,o),
(820,588,c),
(827,616,l),
(577,616,l),
(571,593,l),
(619,586,o),
(651,573,o),
(643,543,cs),
(637,521,o),
(616,488,o),
(591,452,cs),
(328,70,l),
(353,93,l),
(330,227,o),
(300,480,o),
(297,496,cs),
(294,512,o),
(293,528,o),
(297,543,cs),
(301,558,o),
(317,582,o),
(406,591,c),
(413,616,l),
(125,616,l),
(118,588,l),
(163,580,o),
(207,571,o),
(219,489,cs),
(292,-24,l)
);
}
);
width = 720;
},
{
anchors = (
{
name = bottom;
pos = (277,0);
},
{
name = top;
pos = (487,616);
}
);
color = 4;
layerId = m006;
shapes = (
{
closed = 1;
nodes = (
(305,-24,l),
(421,153,o),
(630,444,o),
(673,505,cs),
(716,566,o),
(755,579,o),
(820,588,c),
(827,616,l),
(577,616,l),
(571,593,l),
(619,586,o),
(651,573,o),
(643,543,cs),
(637,521,o),
(616,488,o),
(591,452,cs),
(328,70,l),
(353,93,l),
(330,227,o),
(300,480,o),
(297,496,cs),
(294,512,o),
(293,528,o),
(297,543,cs),
(301,558,o),
(317,582,o),
(406,591,c),
(413,616,l),
(125,616,l),
(118,588,l),
(163,580,o),
(207,571,o),
(219,489,cs),
(292,-24,l)
);
}
);
width = 720;
},
{
anchors = (
{
name = bottom;
pos = (277,0);
},
{
name = top;
pos = (487,616);
}
);
color = 4;
layerId = m004;
shapes = (
{
closed = 1;
nodes = (
(305,-24,l),
(421,153,o),
(630,444,o),
(673,505,cs),
(716,566,o),
(755,579,o),
(820,588,c),
(827,616,l),
(577,616,l),
(571,593,l),
(619,586,o),
(651,573,o),
(643,543,cs),
(637,521,o),
(616,488,o),
(591,452,cs),
(328,70,l),
(353,93,l),
(330,227,o),
(300,480,o),
(297,496,cs),
(294,512,o),
(293,528,o),
(297,543,cs),
(301,558,o),
(317,582,o),
(406,591,c),
(413,616,l),
(125,616,l),
(118,588,l),
(163,580,o),
(207,571,o),
(219,489,cs),
(292,-24,l)
);
}
);
width = 720;
}
);
metricLeft = H;
metricRight = H;
unicode = 86;
},
{
glyphname = W;
lastChange = "2025-04-15 19:32:03 +0000";
layers = (
{
anchors = (
{
name = bottom;
pos = (408,0);
},
{
name = top;
pos = (618,616);
}
);
color = 4;
layerId = m003;
shapes = (
{
closed = 1;
nodes = (
(586,487,l),
(307,75,l),
(333,98,l),
(289,496,ls),
(282,562,o),
(279,582,o),
(366,591,c),
(373,616,l),
(129,616,l),
(122,588,l),
(159,579,o),
(205,572,o),
(215,489,cs),
(276,-24,l),
(289,-24,l),
(367,108,o),
(523,321,o),
(596,438,c)
);
},
{
closed = 1;
nodes = (
(607,-24,l),
(721,153,o),
(919,444,o),
(958,505,cs),
(997,566,o),
(999,576,o),
(1068,588,c),
(1075,616,l),
(877,616,l),
(870,591,l),
(949,570,o),
(935,533,o),
(880,452,cs),
(625,70,l),
(656,99,l),
(643,233,o),
(625,480,o),
(624,496,cs),
(620,572,o),
(636,582,o),
(706,591,c),
(713,616,l),
(479,616,l),
(472,591,l),
(516,584,o),
(545,572,o),
(552,489,cs),
(594,-24,l)
);
}
);
width = 954;
},
{
anchors = (
{
name = bottom;
pos = (408,0);
},
{
name = top;
pos = (618,616);
}
);
color = 4;
layerId = m005;
shapes = (
{
closed = 1;
nodes = (
(586,487,l),
(307,75,l),
(333,98,l),
(289,496,ls),
(282,562,o),
(279,582,o),
(366,591,c),
(373,616,l),
(129,616,l),
(122,588,l),
(159,579,o),
(205,572,o),
(215,489,cs),
(276,-24,l),
(289,-24,l),
(367,108,o),
(523,321,o),
(596,438,c)
);
},
{
closed = 1;
nodes = (
(607,-24,l),
(721,153,o),
(919,444,o),
(958,505,cs),
(997,566,o),
(999,576,o),
(1068,588,c),
(1075,616,l),
(877,616,l),
(870,591,l),
(949,570,o),
(935,533,o),
(880,452,cs),
(625,70,l),
(656,99,l),
(643,233,o),
(625,480,o),
(624,496,cs),
(620,572,o),
(636,582,o),
(706,591,c),
(713,616,l),
(479,616,l),
(472,591,l),
(516,584,o),
(545,572,o),
(552,489,cs),
(594,-24,l)
);
}
);
width = 954;
},
{
anchors = (
{
name = bottom;
pos = (408,0);
},
{
name = top;
pos = (618,616);
}
);
color = 4;
layerId = m006;
shapes = (
{
closed = 1;
nodes = (
(586,487,l),
(307,75,l),
(333,98,l),
(289,496,ls),
(282,562,o),
(279,582,o),
(366,591,c),
(373,616,l),
(129,616,l),
(122,588,l),
(159,579,o),
(205,572,o),
(215,489,cs),
(276,-24,l),
(289,-24,l),
(367,108,o),
(523,321,o),
(596,438,c)
);
},
{
closed = 1;
nodes = (
(607,-24,l),
(721,153,o),
(919,444,o),
(958,505,cs),
(997,566,o),
(999,576,o),
(1068,588,c),
(1075,616,l),
(877,616,l),
(870,591,l),
(949,570,o),
(935,533,o),
(880,452,cs),
(625,70,l),
(656,99,l),
(643,233,o),
(625,480,o),
(624,496,cs),
(620,572,o),
(636,582,o),
(706,591,c),
(713,616,l),
(479,616,l),
(472,591,l),
(516,584,o),
(545,572,o),
(552,489,cs),
(594,-24,l)
);
}
);
width = 954;
},
{
anchors = (
{
name = bottom;
pos = (408,0);
},
{
name = top;
pos = (618,616);
}
);
color = 4;
layerId = m004;
shapes = (
{
closed = 1;
nodes = (
(586,487,l),
(307,75,l),
(333,98,l),
(289,496,ls),
(282,562,o),
(279,582,o),
(366,591,c),
(373,616,l),
(129,616,l),
(122,588,l),
(159,579,o),
(205,572,o),
(215,489,cs),
(276,-24,l),
(289,-24,l),
(367,108,o),
(523,321,o),
(596,438,c)
);
},
{
closed = 1;
nodes = (
(607,-24,l),
(721,153,o),
(919,444,o),
(958,505,cs),
(997,566,o),
(999,576,o),
(1068,588,c),
(1075,616,l),
(877,616,l),
(870,591,l),
(949,570,o),
(935,533,o),
(880,452,cs),
(625,70,l),
(656,99,l),
(643,233,o),
(625,480,o),
(624,496,cs),
(620,572,o),
(636,582,o),
(706,591,c),
(713,616,l),
(479,616,l),
(472,591,l),
(516,584,o),
(545,572,o),
(552,489,cs),
(594,-24,l)
);
}
);
width = 954;
}
);
metricLeft = H;
metricRight = H;
unicode = 87;
},
{
glyphname = X;
lastChange = "2025-04-17 06:17:26 +0000";
layers = (
{
anchors = (
{
name = bottom;
pos = (258,0);
},
{
name = top;
pos = (468,616);
}
);
color = 4;
guides = (
{
angle = 53;
pos = (534,661);
}
);
layerId = m003;
shapes = (
{
closed = 1;
nodes = (
(569,0,l),
(576,28,l),
(537,33,o),
(511,26,o),
(472,114,cs),
(368,351,o),
(372,351,o),
(295,512,cs),
(282,541,o),
(278,555,o),
(282,566,cs),
(285,581,o),
(301,586,o),
(354,591,c),
(361,616,l),
(128,616,l),
(121,588,l),
(166,588,o),
(181,587,o),
(221,494,cs),
(312,286,o),
(318,286,o),
(395,105,cs),
(408,76,o),
(413,58,o),
(411,47,cs),
(406,30,o),
(402,29,o),
(332,25,c),
(325,0,l)
);
},
{
closed = 1;
nodes = (
(198,0,l),
(205,25,l),
(168,28,o),
(137,32,o),
(161,54,cs),
(171,63,o),
(177,77,o),
(206,112,cs),
(368,308,l),
(341,333,l),
(137,101,ls),
(50,3,o),
(24,30,o),
(-8,28,c),
(-15,0,l)
);
},
{
closed = 1;
nodes = (
(541,504,ls),
(622,599,o),
(666,585,o),
(706,588,c),
(713,616,l),
(491,616,l),
(484,591,l),
(525,588,o),
(533,586,o),
(529,567,cs),
(524,550,o),
(500,522,o),
(452,463,cs),
(352,340,l),
(381,315,l)
);
}
);
width = 648;
},
{
anchors = (
{
name = bottom;
pos = (258,0);
},
{
name = top;
pos = (468,616);
}
);
color = 4;
guides = (
{
angle = 53;
pos = (534,661);
}
);
layerId = m005;
shapes = (
{
closed = 1;
nodes = (
(569,0,l),
(576,28,l),
(537,33,o),
(511,26,o),
(472,114,cs),
(368,351,o),
(372,351,o),
(295,512,cs),
(282,541,o),
(278,555,o),
(282,566,cs),
(285,581,o),
(301,586,o),
(354,591,c),
(361,616,l),
(128,616,l),
(121,588,l),
(166,588,o),
(181,587,o),
(221,494,cs),
(312,286,o),
(318,286,o),
(395,105,cs),
(408,76,o),
(413,58,o),
(411,47,cs),
(406,30,o),
(402,29,o),
(332,25,c),
(325,0,l)
);
},
{
closed = 1;
nodes = (
(198,0,l),
(205,25,l),
(168,28,o),
(137,32,o),
(143,54,cs),
(146,67,o),
(157,79,o),
(188,112,cs),
(368,308,l),
(341,333,l),
(119,101,ls),
(37,15,o),
(24,30,o),
(-8,28,c),
(-15,0,l)
);
},
{
closed = 1;
nodes = (
(559,504,ls),
(636,586,o),
(666,585,o),
(706,588,c),
(713,616,l),
(491,616,l),
(484,591,l),
(525,588,o),
(551,586,o),
(547,567,cs),
(542,550,o),
(511,521,o),
(460,463,cs),
(352,340,l),
(381,315,l)
);
}
);
width = 648;
},
{
anchors = (
{
name = bottom;
pos = (258,0);
},
{
name = top;
pos = (468,616);
}
);
color = 4;
guides = (
{
angle = 53;
pos = (534,661);
}
);
layerId = m006;
shapes = (
{
closed = 1;
nodes = (
(569,0,l),
(576,28,l),
(537,33,o),
(511,26,o),
(472,114,cs),
(368,351,o),
(372,351,o),
(295,512,cs),
(282,541,o),
(278,555,o),
(282,566,cs),
(285,581,o),
(301,586,o),
(354,591,c),
(361,616,l),
(128,616,l),
(121,588,l),
(166,588,o),
(181,587,o),
(221,494,cs),
(312,286,o),
(318,286,o),
(395,105,cs),
(408,76,o),
(413,58,o),
(411,47,cs),
(406,30,o),
(402,29,o),
(332,25,c),
(325,0,l)
);
},
{
closed = 1;
nodes = (
(198,0,l),
(205,25,l),
(168,28,o),
(137,32,o),
(143,54,cs),
(146,67,o),
(157,79,o),
(188,112,cs),
(368,308,l),
(341,333,l),
(119,101,ls),
(37,15,o),
(24,30,o),
(-8,28,c),
(-15,0,l)
);
},
{
closed = 1;
nodes = (
(559,504,ls),
(636,586,o),
(666,585,o),
(706,588,c),
(713,616,l),
(491,616,l),
(484,591,l),
(525,588,o),
(551,586,o),
(547,567,cs),
(542,550,o),
(511,521,o),
(460,463,cs),
(352,340,l),
(381,315,l)
);
}
);
width = 648;
},
{
anchors = (
{
name = bottom;
pos = (258,0);
},
{
name = top;
pos = (468,616);
}
);
color = 4;
guides = (
{
angle = 53;
pos = (534,661);
}
);
layerId = m004;
shapes = (
{
closed = 1;
nodes = (
(569,0,l),
(576,28,l),
(537,33,o),
(511,26,o),
(472,114,cs),
(368,351,o),
(372,351,o),
(295,512,cs),
(282,541,o),
(278,555,o),
(282,566,cs),
(285,581,o),
(301,586,o),
(354,591,c),
(361,616,l),
(128,616,l),
(121,588,l),
(166,588,o),
(181,587,o),
(221,494,cs),
(312,286,o),
(318,286,o),
(395,105,cs),
(408,76,o),
(413,58,o),
(411,47,cs),
(406,30,o),
(402,29,o),
(332,25,c),
(325,0,l)
);
},
{
closed = 1;
nodes = (
(198,0,l),
(205,25,l),
(168,28,o),
(137,32,o),
(143,54,cs),
(146,67,o),
(157,79,o),
(188,112,cs),
(368,308,l),
(341,333,l),
(119,101,ls),
(37,15,o),
(24,30,o),
(-8,28,c),
(-15,0,l)
);
},
{
closed = 1;
nodes = (
(559,504,ls),
(636,586,o),
(666,585,o),
(706,588,c),
(713,616,l),
(491,616,l),
(484,591,l),
(525,588,o),
(551,586,o),
(547,567,cs),
(542,550,o),
(511,521,o),
(460,463,cs),
(352,340,l),
(381,315,l)
);
}
);
width = 648;
}
);
metricLeft = H;
metricRight = H;
unicode = 88;
},
{
glyphname = Y;
lastChange = "2025-04-15 19:32:03 +0000";
layers = (
{
anchors = (
{
name = bottom;
pos = (210,0);
},
{
name = top;
pos = (420,616);
},
{
name = topleft;
pos = (158,616);
}
);
color = 4;
layerId = m003;
shapes = (
{
closed = 1;
nodes = (
(394,0,l),
(401,28,l),
(332,33,o),
(286,30,o),
(302,93,cs),
(362,318,l),
(342,257,l),
(546,509,ls),
(611,590,o),
(649,588,o),
(662,588,c),
(669,616,l),
(471,616,l),
(464,591,l),
(533,581,o),
(544,565,o),
(497,505,c),
(338,306,l),
(342,307,l),
(280,525,l),
(267,586,o),
(268,585,o),
(338,591,c),
(345,616,l),
(139,616,l),
(132,588,l),
(167,588,o),
(193,581,o),
(199,556,cs),
(285,243,l),
(285,293,l),
(231,93,ls),
(217,38,o),
(153,33,o),
(105,28,c),
(98,0,l)
);
}
);
width = 558;
},
{
anchors = (
{
name = bottom;
pos = (210,0);
},
{
name = top;
pos = (420,616);
},
{
name = topleft;
pos = (158,616);
}
);
color = 4;
layerId = m005;
shapes = (
{
closed = 1;
nodes = (
(394,0,l),
(401,28,l),
(332,33,o),
(286,30,o),
(302,93,cs),
(362,318,l),
(342,257,l),
(546,509,ls),
(611,590,o),
(649,588,o),
(662,588,c),
(669,616,l),
(471,616,l),
(464,591,l),
(533,581,o),
(544,565,o),
(497,505,c),
(338,306,l),
(342,307,l),
(280,525,l),
(267,586,o),
(268,585,o),
(338,591,c),
(345,616,l),
(139,616,l),
(132,588,l),
(167,588,o),
(193,581,o),
(199,556,cs),
(285,243,l),
(285,293,l),
(231,93,ls),
(217,38,o),
(153,33,o),
(105,28,c),
(98,0,l)
);
}
);
width = 558;
},
{
anchors = (
{
name = bottom;
pos = (210,0);
},
{
name = top;
pos = (420,616);
},
{
name = topleft;
pos = (158,616);
}
);
color = 4;
layerId = m006;
shapes = (
{
closed = 1;
nodes = (
(394,0,l),
(401,28,l),
(332,33,o),
(286,30,o),
(302,93,cs),
(362,318,l),
(342,257,l),
(546,509,ls),
(611,590,o),
(649,588,o),
(662,588,c),
(669,616,l),
(471,616,l),
(464,591,l),
(533,581,o),
(544,565,o),
(497,505,c),
(338,306,l),
(342,307,l),
(280,525,l),
(267,586,o),
(268,585,o),
(338,591,c),
(345,616,l),
(139,616,l),
(132,588,l),
(167,588,o),
(193,581,o),
(199,556,cs),
(285,243,l),
(285,293,l),
(231,93,ls),
(217,38,o),
(153,33,o),
(105,28,c),
(98,0,l)
);
}
);
width = 558;
},
{
anchors = (
{
name = bottom;
pos = (210,0);
},
{
name = top;
pos = (420,616);
},
{
name = topleft;
pos = (158,616);
}
);
color = 4;
layerId = m004;
shapes = (
{
closed = 1;
nodes = (
(394,0,l),
(401,28,l),
(332,33,o),
(286,30,o),
(302,93,cs),
(362,318,l),
(342,257,l),
(546,509,ls),
(611,590,o),
(649,588,o),
(662,588,c),
(669,616,l),
(471,616,l),
(464,591,l),
(533,581,o),
(544,565,o),
(497,505,c),
(338,306,l),
(342,307,l),
(280,525,l),
(267,586,o),
(268,585,o),
(338,591,c),
(345,616,l),
(139,616,l),
(132,588,l),
(167,588,o),
(193,581,o),
(199,556,cs),
(285,243,l),
(285,293,l),
(231,93,ls),
(217,38,o),
(153,33,o),
(105,28,c),
(98,0,l)
);
}
);
width = 558;
}
);
metricLeft = H;
metricRight = H;
unicode = 89;
},
{
glyphname = Z;
lastChange = "2025-04-15 19:32:03 +0000";
layers = (
{
anchors = (
{
name = bottom;
pos = (214,0);
},
{
name = center;
pos = (319,308);
},
{
name = top;
pos = (424,616);
}
);
color = 4;
layerId = m003;
shapes = (
{
closed = 1;
nodes = (
(84,0,o),
(269,1,o),
(298,1,cs),
(328,1,o),
(398,1,o),
(439,-2,c),
(480,57,o),
(525,143,o),
(552,210,c),
(518,210,l),
(493,154,o),
(421,43,o),
(272,41,cs),
(69,38,l),
(65,24,l),
(627,594,l),
(622,621,l),
(544,616,o),
(389,615,o),
(341,615,cs),
(293,615,o),
(192,611,o),
(153,617,c),
(127,554,o),
(104,490,o),
(87,427,c),
(115,427,l),
(139,479,o),
(153,576,o),
(288,576,cs),
(363,576,o),
(469,574,o),
(526,572,c),
(529,596,l),
(-48,12,l),
(-43,0,l)
);
}
);
width = 558;
},
{
anchors = (
{
name = bottom;
pos = (214,0);
},
{
name = center;
pos = (319,308);
},
{
name = top;
pos = (424,616);
}
);
color = 4;
layerId = m005;
shapes = (
{
closed = 1;
nodes = (
(84,0,o),
(269,1,o),
(298,1,cs),
(328,1,o),
(398,1,o),
(439,-2,c),
(480,57,o),
(525,143,o),
(552,210,c),
(518,210,l),
(493,154,o),
(421,43,o),
(272,41,cs),
(69,38,l),
(65,24,l),
(627,594,l),
(622,621,l),
(544,616,o),
(389,615,o),
(341,615,cs),
(293,615,o),
(192,611,o),
(153,617,c),
(127,554,o),
(104,490,o),
(87,427,c),
(115,427,l),
(139,479,o),
(153,576,o),
(288,576,cs),
(363,576,o),
(469,574,o),
(526,572,c),
(529,596,l),
(-48,12,l),
(-43,0,l)
);
}
);
width = 558;
},
{
anchors = (
{
name = bottom;
pos = (214,0);
},
{
name = center;
pos = (319,308);
},
{
name = top;
pos = (424,616);
}
);
color = 4;
layerId = m006;
shapes = (
{
closed = 1;
nodes = (
(84,0,o),
(269,1,o),
(298,1,cs),
(328,1,o),
(398,1,o),
(439,-2,c),
(480,57,o),
(525,143,o),
(552,210,c),
(518,210,l),
(493,154,o),
(421,43,o),
(272,41,cs),
(69,38,l),
(65,24,l),
(627,594,l),
(622,621,l),
(544,616,o),
(389,615,o),
(341,615,cs),
(293,615,o),
(192,611,o),
(153,617,c),
(127,554,o),
(104,490,o),
(87,427,c),
(115,427,l),
(139,479,o),
(153,576,o),
(288,576,cs),
(363,576,o),
(469,574,o),
(526,572,c),
(529,596,l),
(-48,12,l),
(-43,0,l)
);
}
);
width = 558;
},
{
anchors = (
{
name = bottom;
pos = (214,0);
},
{
name = center;
pos = (319,308);
},
{
name = top;
pos = (424,616);
}
);
color = 4;
layerId = m004;
shapes = (
{
closed = 1;
nodes = (
(84,0,o),
(269,1,o),
(298,1,cs),
(328,1,o),
(398,1,o),
(439,-2,c),
(480,57,o),
(525,143,o),
(552,210,c),
(518,210,l),
(493,154,o),
(421,43,o),
(272,41,cs),
(69,38,l),
(65,24,l),
(627,594,l),
(622,621,l),
(544,616,o),
(389,615,o),
(341,615,cs),
(293,615,o),
(192,611,o),
(153,617,c),
(127,554,o),
(104,490,o),
(87,427,c),
(115,427,l),
(139,479,o),
(153,576,o),
(288,576,cs),
(363,576,o),
(469,574,o),
(526,572,c),
(529,596,l),
(-48,12,l),
(-43,0,l)
);
}
);
width = 558;
}
);
metricLeft = H;
metricRight = H;
unicode = 90;
},
{
glyphname = a;
lastChange = "2025-04-15 19:34:59 +0000";
layers = (
{
anchors = (
{
name = bottom;
pos = (143,0);
},
{
name = ogonek;
pos = (325,10);
},
{
name = top;
pos = (284,401);
}
);
background = {
shapes = (
{
closed = 1;
nodes = (
(362,408,o),
(334,404,o),
(314,405,c),
(295,332,o),
(275,277,o),
(262,229,cs),
(242,155,o),
(229,99,o),
(225,73,cs),
(216,21,o),
(227,-8,o),
(254,-8,cs),
(285,-8,o),
(337,33,o),
(398,106,c),
(375,127,l),
(341,83,o),
(316,58,o),
(303,58,cs),
(289,58,o),
(290,91,o),
(305,149,cs),
(331,242,o),
(361,337,o),
(391,415,c)
);
},
{
closed = 1;
nodes = (
(30,-3,o),
(58,1,o),
(78,0,c),
(97,73,o),
(117,128,o),
(130,176,cs),
(150,250,o),
(163,306,o),
(167,332,cs),
(176,384,o),
(165,413,o),
(138,413,cs),
(107,413,o),
(55,372,o),
(-6,299,c),
(17,278,l),
(51,322,o),
(76,347,o),
(89,347,cs),
(103,347,o),
(102,314,o),
(87,256,cs),
(61,163,o),
(31,68,o),
(1,-10,c)
);
}
);
};
layerId = m003;
shapes = (
{
closed = 1;
nodes = (
(130,-10,o),
(216,53,o),
(294,208,c),
(286,249,l),
(228,132,o),
(147,46,o),
(106,46,cs),
(78,46,o),
(75,97,o),
(90,156,cs),
(124,284,o),
(191,366,o),
(255,366,cs),
(276,366,o),
(305,355,o),
(315,333,c),
(342,388,l),
(326,396,o),
(293,402,o),
(278,402,cs),
(169,402,o),
(60,286,o),
(14,121,cs),
(-7,44,o),
(14,-10,o),
(65,-10,cs)
);
},
{
closed = 1;
nodes = (
(298,-6,o),
(350,39,o),
(400,106,c),
(381,124,l),
(347,87,o),
(319,60,o),
(309,60,cs),
(298,60,o),
(297,99,o),
(310,156,cs),
(324,220,o),
(361,327,o),
(398,415,c),
(375,408,o),
(349,404,o),
(329,405,c),
(321,376,o),
(293,292,o),
(269,201,cs),
(236,77,o),
(224,-6,o),
(265,-6,cs)
);
}
);
width = 414;
},
{
associatedMasterId = m003;
layerId = "0DE6FB79-B0B6-414C-BAFE-4B31CAFD69E7";
name = "7. Nov. 24, 00:06";
shapes = (
{
closed = 1;
nodes = (
(386,427,l),
(364,443,o),
(341,460,o),
(326,460,cs),
(253,460,o),
(163,346,o),
(113,184,cs),
(95,125,o),
(89,76,o),
(108,76,cs),
(131,76,o),
(206,136,o),
(276,208,c),
(293,190,l),
(187,77,o),
(81,-10,o),
(46,-10,cs),
(-3,-10,o),
(-12,61,o),
(16,152,cs),
(81,363,o),
(222,508,o),
(354,508,cs),
(374,508,o),
(402,493,o),
(424,476,c)
);
},
{
closed = 1;
nodes = (
(457,500,l),
(414,395,o),
(364,261,o),
(334,177,cs),
(307,105,o),
(302,54,o),
(322,54,cs),
(345,54,o),
(386,119,o),
(421,210,c),
(451,210,l),
(402,82,o),
(324,-8,o),
(263,-8,cs),
(220,-8,o),
(211,51,o),
(242,135,cs),
(211,52,o),
(288,250,o),
(382,500,c)
);
}
);
width = 467;
},
{
associatedMasterId = m003;
background = {
shapes = (
{
closed = 1;
nodes = (
(200,83,o),
(113,-8,o),
(67,-8,cs),
(3,-8,o),
(-18,54,o),
(15,141,cs),
(38,202,o),
(65,270,o),
(82,315,cs),
(109,387,o),
(115,438,o),
(96,438,cs),
(72,438,o),
(29,373,o),
(-8,282,c),
(-38,282,l),
(15,414,o),
(95,508,o),
(155,508,cs),
(199,508,o),
(206,445,o),
(173,357,cs),
(136,259,o),
(109,190,o),
(109,192,cs),
(83,118,o),
(83,66,o),
(110,66,cs),
(145,66,o),
(215,145,o),
(277,257,c),
(277,212,l)
);
},
{
closed = 1;
nodes = (
(442,500,l),
(402,401,o),
(351,268,o),
(319,177,cs),
(292,105,o),
(287,54,o),
(307,54,cs),
(330,54,o),
(371,119,o),
(406,210,c),
(436,210,l),
(387,82,o),
(309,-8,o),
(248,-8,cs),
(205,-8,o),
(196,51,o),
(227,135,cs),
(196,52,o),
(273,250,o),
(367,500,c)
);
}
);
};
layerId = "90AB4BE1-A270-4CBB-8974-CA3C0A24FD98";
name = "8. Nov. 24, 10:52";
shapes = (
{
closed = 1;
nodes = (
(376,417,l),
(343,441,o),
(313,452,o),
(286,452,cs),
(209,452,o),
(152,362,o),
(103,205,cs),
(89,162,o),
(82,126,o),
(82,101,cs),
(82,79,o),
(101,56,o),
(112,56,cs),
(166,56,o),
(230,120,o),
(286,197,c),
(293,190,l),
(221,73,o),
(135,-10,o),
(86,-10,cs),
(16,-10,o),
(-13,57,o),
(16,152,cs),
(80,361,o),
(220,508,o),
(354,508,cs),
(372,508,o),
(401,495,o),
(424,476,c)
);
},
{
closed = 1;
nodes = (
(460,508,l),
(424,421,o),
(372,284,o),
(334,177,cs),
(307,105,o),
(302,54,o),
(322,54,cs),
(345,54,o),
(386,119,o),
(421,210,c),
(451,210,l),
(402,82,o),
(324,-8,o),
(263,-8,cs),
(220,-8,o),
(211,51,o),
(242,135,cs),
(211,52,o),
(288,250,o),
(382,500,c)
);
},
{
closed = 1;
nodes = (
(89,-10,o),
(183,73,o),
(293,190,c),
(276,208,l),
(195,125,o),
(126,66,o),
(109,66,cs),
(83,66,o),
(82,115,o),
(107,184,cs),
(166,346,o),
(257,460,o),
(326,460,cs),
(335,460,o),
(359,446,o),
(386,427,c),
(424,476,l),
(400,495,o),
(371,508,o),
(354,508,cs),
(232,508,o),
(91,361,o),
(15,152,cs),
(-19,57,o),
(2,-10,o),
(66,-10,cs)
);
}
);
width = 467;
},
{
anchors = (
{
name = bottom;
pos = (143,0);
},
{
name = ogonek;
pos = (325,10);
},
{
name = top;
pos = (284,401);
}
);
background = {
shapes = (
{
closed = 1;
nodes = (
(362,408,o),
(334,404,o),
(314,405,c),
(295,332,o),
(275,277,o),
(262,229,cs),
(242,155,o),
(229,99,o),
(225,73,cs),
(216,21,o),
(227,-8,o),
(254,-8,cs),
(285,-8,o),
(337,33,o),
(398,106,c),
(375,127,l),
(341,83,o),
(316,58,o),
(303,58,cs),
(289,58,o),
(290,91,o),
(305,149,cs),
(331,242,o),
(361,337,o),
(391,415,c)
);
},
{
closed = 1;
nodes = (
(30,-3,o),
(58,1,o),
(78,0,c),
(97,73,o),
(117,128,o),
(130,176,cs),
(150,250,o),
(163,306,o),
(167,332,cs),
(176,384,o),
(165,413,o),
(138,413,cs),
(107,413,o),
(55,372,o),
(-6,299,c),
(17,278,l),
(51,322,o),
(76,347,o),
(89,347,cs),
(103,347,o),
(102,314,o),
(87,256,cs),
(61,163,o),
(31,68,o),
(1,-10,c)
);
}
);
};
layerId = m005;
shapes = (
{
closed = 1;
nodes = (
(130,-10,o),
(216,53,o),
(294,208,c),
(286,249,l),
(228,132,o),
(147,46,o),
(106,46,cs),
(78,46,o),
(75,97,o),
(90,156,cs),
(124,284,o),
(191,366,o),
(255,366,cs),
(276,366,o),
(305,355,o),
(315,333,c),
(342,388,l),
(326,396,o),
(293,402,o),
(278,402,cs),
(169,402,o),
(60,286,o),
(14,121,cs),
(-7,44,o),
(14,-10,o),
(65,-10,cs)
);
},
{
closed = 1;
nodes = (
(298,-6,o),
(350,39,o),
(400,106,c),
(381,124,l),
(347,87,o),
(319,60,o),
(309,60,cs),
(298,60,o),
(297,99,o),
(310,156,cs),
(324,220,o),
(361,327,o),
(398,415,c),
(375,408,o),
(349,404,o),
(329,405,c),
(321,376,o),
(293,292,o),
(269,201,cs),
(236,77,o),
(224,-6,o),
(265,-6,cs)
);
}
);
width = 414;
},
{
associatedMasterId = m005;
layerId = "10EA339C-69EC-4DCB-A147-72D2BBFFF5B2";
name = "7. Nov. 24, 00:06";
shapes = (
{
closed = 1;
nodes = (
(386,427,l),
(364,443,o),
(341,460,o),
(326,460,cs),
(253,460,o),
(163,346,o),
(113,184,cs),
(95,125,o),
(89,76,o),
(108,76,cs),
(131,76,o),
(206,136,o),
(276,208,c),
(293,190,l),
(187,77,o),
(81,-10,o),
(46,-10,cs),
(-3,-10,o),
(-12,61,o),
(16,152,cs),
(81,363,o),
(222,508,o),
(354,508,cs),
(374,508,o),
(402,493,o),
(424,476,c)
);
},
{
closed = 1;
nodes = (
(457,500,l),
(414,395,o),
(364,261,o),
(334,177,cs),
(307,105,o),
(302,54,o),
(322,54,cs),
(345,54,o),
(386,119,o),
(421,210,c),
(451,210,l),
(402,82,o),
(324,-8,o),
(263,-8,cs),
(220,-8,o),
(211,51,o),
(242,135,cs),
(211,52,o),
(288,250,o),
(382,500,c)
);
}
);
width = 467;
},
{
associatedMasterId = m005;
background = {
shapes = (
{
closed = 1;
nodes = (
(200,83,o),
(113,-8,o),
(67,-8,cs),
(3,-8,o),
(-18,54,o),
(15,141,cs),
(38,202,o),
(65,270,o),
(82,315,cs),
(109,387,o),
(115,438,o),
(96,438,cs),
(72,438,o),
(29,373,o),
(-8,282,c),
(-38,282,l),
(15,414,o),
(95,508,o),
(155,508,cs),
(199,508,o),
(206,445,o),
(173,357,cs),
(136,259,o),
(109,190,o),
(109,192,cs),
(83,118,o),
(83,66,o),
(110,66,cs),
(145,66,o),
(215,145,o),
(277,257,c),
(277,212,l)
);
},
{
closed = 1;
nodes = (
(442,500,l),
(402,401,o),
(351,268,o),
(319,177,cs),
(292,105,o),
(287,54,o),
(307,54,cs),
(330,54,o),
(371,119,o),
(406,210,c),
(436,210,l),
(387,82,o),
(309,-8,o),
(248,-8,cs),
(205,-8,o),
(196,51,o),
(227,135,cs),
(196,52,o),
(273,250,o),
(367,500,c)
);
}
);
};
layerId = "666B13F9-79DA-4CA3-9B8C-4FAAE2CA906D";
name = "8. Nov. 24, 10:52";
shapes = (
{
closed = 1;
nodes = (
(376,417,l),
(343,441,o),
(313,452,o),
(286,452,cs),
(209,452,o),
(152,362,o),
(103,205,cs),
(89,162,o),
(82,126,o),
(82,101,cs),
(82,79,o),
(101,56,o),
(112,56,cs),
(166,56,o),
(230,120,o),
(286,197,c),
(293,190,l),
(221,73,o),
(135,-10,o),
(86,-10,cs),
(16,-10,o),
(-13,57,o),
(16,152,cs),
(80,361,o),
(220,508,o),
(354,508,cs),
(372,508,o),
(401,495,o),
(424,476,c)
);
},
{
closed = 1;
nodes = (
(460,508,l),
(424,421,o),
(372,284,o),
(334,177,cs),
(307,105,o),
(302,54,o),
(322,54,cs),
(345,54,o),
(386,119,o),
(421,210,c),
(451,210,l),
(402,82,o),
(324,-8,o),
(263,-8,cs),
(220,-8,o),
(211,51,o),
(242,135,cs),
(211,52,o),
(288,250,o),
(382,500,c)
);
},
{
closed = 1;
nodes = (
(89,-10,o),
(183,73,o),
(293,190,c),
(276,208,l),
(195,125,o),
(126,66,o),
(109,66,cs),
(83,66,o),
(82,115,o),
(107,184,cs),
(166,346,o),
(257,460,o),
(326,460,cs),
(335,460,o),
(359,446,o),
(386,427,c),
(424,476,l),
(400,495,o),
(371,508,o),
(354,508,cs),
(232,508,o),
(91,361,o),
(15,152,cs),
(-19,57,o),
(2,-10,o),
(66,-10,cs)
);
}
);
width = 467;
},
{
anchors = (
{
name = bottom;
pos = (143,0);
},
{
name = ogonek;
pos = (325,10);
},
{
name = top;
pos = (284,401);
}
);
background = {
shapes = (
{
closed = 1;
nodes = (
(362,408,o),
(334,404,o),
(314,405,c),
(295,332,o),
(275,277,o),
(262,229,cs),
(242,155,o),
(229,99,o),
(225,73,cs),
(216,21,o),
(227,-8,o),
(254,-8,cs),
(285,-8,o),
(337,33,o),
(398,106,c),
(375,127,l),
(341,83,o),
(316,58,o),
(303,58,cs),
(289,58,o),
(290,91,o),
(305,149,cs),
(331,242,o),
(361,337,o),
(391,415,c)
);
},
{
closed = 1;
nodes = (
(30,-3,o),
(58,1,o),
(78,0,c),
(97,73,o),
(117,128,o),
(130,176,cs),
(150,250,o),
(163,306,o),
(167,332,cs),
(176,384,o),
(165,413,o),
(138,413,cs),
(107,413,o),
(55,372,o),
(-6,299,c),
(17,278,l),
(51,322,o),
(76,347,o),
(89,347,cs),
(103,347,o),
(102,314,o),
(87,256,cs),
(61,163,o),
(31,68,o),
(1,-10,c)
);
}
);
};
layerId = m006;
shapes = (
{
closed = 1;
nodes = (
(130,-10,o),
(236,53,o),
(314,208,c),
(306,249,l),
(248,132,o),
(147,46,o),
(106,46,cs),
(78,46,o),
(75,97,o),
(90,156,cs),
(124,284,o),
(191,366,o),
(255,366,cs),
(276,366,o),
(325,355,o),
(335,333,c),
(362,388,l),
(346,396,o),
(293,402,o),
(278,402,cs),
(169,402,o),
(60,286,o),
(14,121,cs),
(-7,44,o),
(14,-10,o),
(65,-10,cs)
);
},
{
closed = 1;
nodes = (
(316,-6,o),
(368,39,o),
(418,106,c),
(399,124,l),
(365,87,o),
(337,60,o),
(327,60,cs),
(316,60,o),
(315,99,o),
(328,156,cs),
(342,220,o),
(379,327,o),
(416,415,c),
(393,408,o),
(367,404,o),
(347,405,c),
(339,376,o),
(311,292,o),
(287,201,cs),
(254,77,o),
(242,-6,o),
(283,-6,cs)
);
}
);
width = 432;
},
{
associatedMasterId = m006;
layerId = "055F6FAB-59EA-4237-BC34-EE106C920511";
name = "7. Nov. 24, 00:06";
shapes = (
{
closed = 1;
nodes = (
(386,427,l),
(364,443,o),
(341,460,o),
(326,460,cs),
(253,460,o),
(163,346,o),
(113,184,cs),
(95,125,o),
(89,76,o),
(108,76,cs),
(131,76,o),
(206,136,o),
(276,208,c),
(293,190,l),
(187,77,o),
(81,-10,o),
(46,-10,cs),
(-3,-10,o),
(-12,61,o),
(16,152,cs),
(81,363,o),
(222,508,o),
(354,508,cs),
(374,508,o),
(402,493,o),
(424,476,c)
);
},
{
closed = 1;
nodes = (
(457,500,l),
(414,395,o),
(364,261,o),
(334,177,cs),
(307,105,o),
(302,54,o),
(322,54,cs),
(345,54,o),
(386,119,o),
(421,210,c),
(451,210,l),
(402,82,o),
(324,-8,o),
(263,-8,cs),
(220,-8,o),
(211,51,o),
(242,135,cs),
(211,52,o),
(288,250,o),
(382,500,c)
);
}
);
width = 467;
},
{
associatedMasterId = m006;
background = {
shapes = (
{
closed = 1;
nodes = (
(200,83,o),
(113,-8,o),
(67,-8,cs),
(3,-8,o),
(-18,54,o),
(15,141,cs),
(38,202,o),
(65,270,o),
(82,315,cs),
(109,387,o),
(115,438,o),
(96,438,cs),
(72,438,o),
(29,373,o),
(-8,282,c),
(-38,282,l),
(15,414,o),
(95,508,o),
(155,508,cs),
(199,508,o),
(206,445,o),
(173,357,cs),
(136,259,o),
(109,190,o),
(109,192,cs),
(83,118,o),
(83,66,o),
(110,66,cs),
(145,66,o),
(215,145,o),
(277,257,c),
(277,212,l)
);
},
{
closed = 1;
nodes = (
(442,500,l),
(402,401,o),
(351,268,o),
(319,177,cs),
(292,105,o),
(287,54,o),
(307,54,cs),
(330,54,o),
(371,119,o),
(406,210,c),
(436,210,l),
(387,82,o),
(309,-8,o),
(248,-8,cs),
(205,-8,o),
(196,51,o),
(227,135,cs),
(196,52,o),
(273,250,o),
(367,500,c)
);
}
);
};
layerId = "35414ED7-2FBB-4232-BD21-3C277C9D7EDF";
name = "8. Nov. 24, 10:52";
shapes = (
{
closed = 1;
nodes = (
(376,417,l),
(343,441,o),
(313,452,o),
(286,452,cs),
(209,452,o),
(152,362,o),
(103,205,cs),
(89,162,o),
(82,126,o),
(82,101,cs),
(82,79,o),
(101,56,o),
(112,56,cs),
(166,56,o),
(230,120,o),
(286,197,c),
(293,190,l),
(221,73,o),
(135,-10,o),
(86,-10,cs),
(16,-10,o),
(-13,57,o),
(16,152,cs),
(80,361,o),
(220,508,o),
(354,508,cs),
(372,508,o),
(401,495,o),
(424,476,c)
);
},
{
closed = 1;
nodes = (
(460,508,l),
(424,421,o),
(372,284,o),
(334,177,cs),
(307,105,o),
(302,54,o),
(322,54,cs),
(345,54,o),
(386,119,o),
(421,210,c),
(451,210,l),
(402,82,o),
(324,-8,o),
(263,-8,cs),
(220,-8,o),
(211,51,o),
(242,135,cs),
(211,52,o),
(288,250,o),
(382,500,c)
);
},
{
closed = 1;
nodes = (
(89,-10,o),
(183,73,o),
(293,190,c),
(276,208,l),
(195,125,o),
(126,66,o),
(109,66,cs),
(83,66,o),
(82,115,o),
(107,184,cs),
(166,346,o),
(257,460,o),
(326,460,cs),
(335,460,o),
(359,446,o),
(386,427,c),
(424,476,l),
(400,495,o),
(371,508,o),
(354,508,cs),
(232,508,o),
(91,361,o),
(15,152,cs),
(-19,57,o),
(2,-10,o),
(66,-10,cs)
);
}
);
width = 467;
},
{
anchors = (
{
name = bottom;
pos = (143,0);
},
{
name = ogonek;
pos = (325,10);
},
{
name = top;
pos = (284,401);
}
);
background = {
shapes = (
{
closed = 1;
nodes = (
(362,408,o),
(334,404,o),
(314,405,c),
(295,332,o),
(275,277,o),
(262,229,cs),
(242,155,o),
(229,99,o),
(225,73,cs),
(216,21,o),
(227,-8,o),
(254,-8,cs),
(285,-8,o),
(337,33,o),
(398,106,c),
(375,127,l),
(341,83,o),
(316,58,o),
(303,58,cs),
(289,58,o),
(290,91,o),
(305,149,cs),
(331,242,o),
(361,337,o),
(391,415,c)
);
},
{
closed = 1;
nodes = (
(30,-3,o),
(58,1,o),
(78,0,c),
(97,73,o),
(117,128,o),
(130,176,cs),
(150,250,o),
(163,306,o),
(167,332,cs),
(176,384,o),
(165,413,o),
(138,413,cs),
(107,413,o),
(55,372,o),
(-6,299,c),
(17,278,l),
(51,322,o),
(76,347,o),
(89,347,cs),
(103,347,o),
(102,314,o),
(87,256,cs),
(61,163,o),
(31,68,o),
(1,-10,c)
);
}
);
};
layerId = m004;
shapes = (
{
closed = 1;
nodes = (
(130,-10,o),
(196,53,o),
(274,208,c),
(266,249,l),
(208,132,o),
(147,46,o),
(106,46,cs),
(78,46,o),
(75,97,o),
(90,156,cs),
(124,284,o),
(191,366,o),
(255,366,cs),
(276,366,o),
(285,355,o),
(295,333,c),
(322,388,l),
(306,396,o),
(293,402,o),
(278,402,cs),
(169,402,o),
(60,286,o),
(14,121,cs),
(-7,44,o),
(14,-10,o),
(65,-10,cs)
);
},
{
closed = 1;
nodes = (
(280,-6,o),
(332,39,o),
(382,106,c),
(363,124,l),
(329,87,o),
(301,60,o),
(291,60,cs),
(280,60,o),
(279,99,o),
(292,156,cs),
(306,220,o),
(343,327,o),
(380,415,c),
(357,408,o),
(331,404,o),
(311,405,c),
(303,376,o),
(275,292,o),
(251,201,cs),
(218,77,o),
(206,-6,o),
(247,-6,cs)
);
}
);
width = 396;
},
{
associatedMasterId = m004;
layerId = "388972C2-8DD8-4612-BAD0-89494EED95A5";
name = "7. Nov. 24, 00:06";
shapes = (
{
closed = 1;
nodes = (
(386,427,l),
(364,443,o),
(341,460,o),
(326,460,cs),
(253,460,o),
(163,346,o),
(113,184,cs),
(95,125,o),
(89,76,o),
(108,76,cs),
(131,76,o),
(206,136,o),
(276,208,c),
(293,190,l),
(187,77,o),
(81,-10,o),
(46,-10,cs),
(-3,-10,o),
(-12,61,o),
(16,152,cs),
(81,363,o),
(222,508,o),
(354,508,cs),
(374,508,o),
(402,493,o),
(424,476,c)
);
},
{
closed = 1;
nodes = (
(457,500,l),
(414,395,o),
(364,261,o),
(334,177,cs),
(307,105,o),
(302,54,o),
(322,54,cs),
(345,54,o),
(386,119,o),
(421,210,c),
(451,210,l),
(402,82,o),
(324,-8,o),
(263,-8,cs),
(220,-8,o),
(211,51,o),
(242,135,cs),
(211,52,o),
(288,250,o),
(382,500,c)
);
}
);
width = 467;
},
{
associatedMasterId = m004;
background = {
shapes = (
{
closed = 1;
nodes = (
(200,83,o),
(113,-8,o),
(67,-8,cs),
(3,-8,o),
(-18,54,o),
(15,141,cs),
(38,202,o),
(65,270,o),
(82,315,cs),
(109,387,o),
(115,438,o),
(96,438,cs),
(72,438,o),
(29,373,o),
(-8,282,c),
(-38,282,l),
(15,414,o),
(95,508,o),
(155,508,cs),
(199,508,o),
(206,445,o),
(173,357,cs),
(136,259,o),
(109,190,o),
(109,192,cs),
(83,118,o),
(83,66,o),
(110,66,cs),
(145,66,o),
(215,145,o),
(277,257,c),
(277,212,l)
);
},
{
closed = 1;
nodes = (
(442,500,l),
(402,401,o),
(351,268,o),
(319,177,cs),
(292,105,o),
(287,54,o),
(307,54,cs),
(330,54,o),
(371,119,o),
(406,210,c),
(436,210,l),
(387,82,o),
(309,-8,o),
(248,-8,cs),
(205,-8,o),
(196,51,o),
(227,135,cs),
(196,52,o),
(273,250,o),
(367,500,c)
);
}
);
};
layerId = "50774F7B-9293-42EE-96B9-54DCA7EEAAAE";
name = "8. Nov. 24, 10:52";
shapes = (
{
closed = 1;
nodes = (
(376,417,l),
(343,441,o),
(313,452,o),
(286,452,cs),
(209,452,o),
(152,362,o),
(103,205,cs),
(89,162,o),
(82,126,o),
(82,101,cs),
(82,79,o),
(101,56,o),
(112,56,cs),
(166,56,o),
(230,120,o),
(286,197,c),
(293,190,l),
(221,73,o),
(135,-10,o),
(86,-10,cs),
(16,-10,o),
(-13,57,o),
(16,152,cs),
(80,361,o),
(220,508,o),
(354,508,cs),
(372,508,o),
(401,495,o),
(424,476,c)
);
},
{
closed = 1;
nodes = (
(460,508,l),
(424,421,o),
(372,284,o),
(334,177,cs),
(307,105,o),
(302,54,o),
(322,54,cs),
(345,54,o),
(386,119,o),
(421,210,c),
(451,210,l),
(402,82,o),
(324,-8,o),
(263,-8,cs),
(220,-8,o),
(211,51,o),
(242,135,cs),
(211,52,o),
(288,250,o),
(382,500,c)
);
},
{
closed = 1;
nodes = (
(89,-10,o),
(183,73,o),
(293,190,c),
(276,208,l),
(195,125,o),
(126,66,o),
(109,66,cs),
(83,66,o),
(82,115,o),
(107,184,cs),
(166,346,o),
(257,460,o),
(326,460,cs),
(335,460,o),
(359,446,o),
(386,427,c),
(424,476,l),
(400,495,o),
(371,508,o),
(354,508,cs),
(232,508,o),
(91,361,o),
(15,152,cs),
(-19,57,o),
(2,-10,o),
(66,-10,cs)
);
}
);
width = 467;
}
);
metricLeft = o;
unicode = 97;
},
{
glyphname = b;
lastChange = "2025-04-15 19:37:01 +0000";
layers = (
{
anchors = (
{
name = bottom;
pos = (168,0);
},
{
name = center;
pos = (179,510);
},
{
name = top;
pos = (262,402);
}
);
background = {
shapes = (
{
closed = 1;
nodes = (
(219,-15,o),
(331,91,o),
(372,241,cs),
(398,336,o),
(368,404,o),
(300,404,cs),
(229,404,o),
(151,373,o),
(111,330,c),
(114,285,l),
(145,324,o),
(206,352,o),
(262,352,cs),
(301,352,o),
(313,294,o),
(291,212,cs),
(263,101,o),
(197,23,o),
(132,23,cs),
(99,23,o),
(86,59,o),
(101,110,cs),
(152,303,o),
(218,526,o),
(260,647,c),
(80,635,l),
(76,606,l),
(125,609,o),
(145,608,o),
(154,593,cs),
(161,582,o),
(153,563,o),
(143,525,cs),
(21,82,ls),
(5,25,o),
(38,-15,o),
(101,-15,cs)
);
}
);
};
layerId = m003;
shapes = (
{
closed = 1;
nodes = (
(173,-8,o),
(132,26,o),
(123,27,cs),
(95,29,o),
(80,45,o),
(90,85,c),
(110,151,o),
(138,242,o),
(158,308,cs),
(181,385,o),
(204,461,o),
(227,538,c),
(241,589,o),
(254,624,o),
(261,648,c),
(219,641,o),
(159,636,o),
(117,636,c),
(110,611,l),
(133,609,o),
(155,599,o),
(163,587,cs),
(169,579,o),
(167,552,o),
(158,521,c),
(138,455,o),
(118,389,o),
(98,323,cs),
(74,245,o),
(45,160,o),
(21,82,c),
(11,45,o),
(54,-8,o),
(136,-8,cs)
);
},
{
closed = 1;
nodes = (
(132,323,l),
(171,352,o),
(215,373,o),
(238,373,cs),
(294,373,o),
(318,309,o),
(291,214,cs),
(262,104,o),
(196,27,o),
(123,27,cs),
(106,27,o),
(105,-8,o),
(136,-8,cs),
(240,-8,o),
(333,93,o),
(370,236,cs),
(397,339,o),
(358,412,o),
(276,412,cs),
(238,412,o),
(182,388,o),
(132,355,c)
);
}
);
width = 396;
},
{
anchors = (
{
name = bottom;
pos = (168,0);
},
{
name = center;
pos = (179,510);
},
{
name = top;
pos = (262,402);
}
);
background = {
shapes = (
{
closed = 1;
nodes = (
(219,-15,o),
(331,91,o),
(372,241,cs),
(398,336,o),
(368,404,o),
(300,404,cs),
(229,404,o),
(151,373,o),
(111,330,c),
(114,285,l),
(145,324,o),
(206,352,o),
(262,352,cs),
(301,352,o),
(313,294,o),
(291,212,cs),
(263,101,o),
(197,23,o),
(132,23,cs),
(99,23,o),
(86,59,o),
(101,110,cs),
(152,303,o),
(218,526,o),
(260,647,c),
(80,635,l),
(76,606,l),
(125,609,o),
(145,608,o),
(154,593,cs),
(161,582,o),
(153,563,o),
(143,525,cs),
(21,82,ls),
(5,25,o),
(38,-15,o),
(101,-15,cs)
);
}
);
};
layerId = m005;
shapes = (
{
closed = 1;
nodes = (
(173,-8,o),
(132,26,o),
(123,27,cs),
(95,29,o),
(80,45,o),
(90,85,c),
(110,151,o),
(138,242,o),
(158,308,cs),
(181,385,o),
(204,461,o),
(227,538,c),
(241,589,o),
(254,624,o),
(261,648,c),
(219,641,o),
(159,636,o),
(117,636,c),
(110,611,l),
(133,609,o),
(155,599,o),
(163,587,cs),
(169,579,o),
(167,552,o),
(158,521,c),
(138,455,o),
(118,389,o),
(98,323,cs),
(74,245,o),
(45,160,o),
(21,82,c),
(11,45,o),
(54,-8,o),
(136,-8,cs)
);
},
{
closed = 1;
nodes = (
(132,323,l),
(171,352,o),
(215,373,o),
(238,373,cs),
(294,373,o),
(318,309,o),
(291,214,cs),
(262,104,o),
(196,27,o),
(123,27,cs),
(106,27,o),
(105,-8,o),
(136,-8,cs),
(240,-8,o),
(333,93,o),
(370,236,cs),
(397,339,o),
(358,412,o),
(276,412,cs),
(238,412,o),
(182,388,o),
(132,355,c)
);
}
);
width = 396;
},
{
anchors = (
{
name = bottom;
pos = (168,0);
},
{
name = center;
pos = (179,510);
},
{
name = top;
pos = (262,402);
}
);
background = {
shapes = (
{
closed = 1;
nodes = (
(219,-15,o),
(331,91,o),
(372,241,cs),
(398,336,o),
(368,404,o),
(300,404,cs),
(229,404,o),
(151,373,o),
(111,330,c),
(114,285,l),
(145,324,o),
(206,352,o),
(262,352,cs),
(301,352,o),
(313,294,o),
(291,212,cs),
(263,101,o),
(197,23,o),
(132,23,cs),
(99,23,o),
(86,59,o),
(101,110,cs),
(152,303,o),
(218,526,o),
(260,647,c),
(80,635,l),
(76,606,l),
(125,609,o),
(145,608,o),
(154,593,cs),
(161,582,o),
(153,563,o),
(143,525,cs),
(21,82,ls),
(5,25,o),
(38,-15,o),
(101,-15,cs)
);
}
);
};
layerId = m006;
shapes = (
{
closed = 1;
nodes = (
(191,-8,o),
(150,26,o),
(141,27,cs),
(113,29,o),
(80,45,o),
(90,85,c),
(110,151,o),
(138,242,o),
(158,308,cs),
(181,385,o),
(204,461,o),
(227,538,c),
(241,589,o),
(254,624,o),
(261,648,c),
(219,641,o),
(159,636,o),
(117,636,c),
(110,611,l),
(133,609,o),
(155,599,o),
(163,587,cs),
(169,579,o),
(167,552,o),
(158,521,c),
(138,455,o),
(118,389,o),
(98,323,cs),
(74,245,o),
(45,160,o),
(21,82,c),
(11,45,o),
(72,-8,o),
(154,-8,cs)
);
},
{
closed = 1;
nodes = (
(132,323,l),
(171,352,o),
(223,373,o),
(256,373,cs),
(319,373,o),
(345,307,o),
(319,214,cs),
(290,104,o),
(216,27,o),
(141,27,cs),
(124,27,o),
(123,-8,o),
(154,-8,cs),
(260,-8,o),
(361,93,o),
(398,236,cs),
(425,339,o),
(382,412,o),
(294,412,cs),
(250,412,o),
(183,388,o),
(132,355,c)
);
}
);
width = 414;
},
{
anchors = (
{
name = bottom;
pos = (168,0);
},
{
name = center;
pos = (179,510);
},
{
name = top;
pos = (262,402);
}
);
background = {
shapes = (
{
closed = 1;
nodes = (
(219,-15,o),
(331,91,o),
(372,241,cs),
(398,336,o),
(368,404,o),
(300,404,cs),
(229,404,o),
(151,373,o),
(111,330,c),
(114,285,l),
(145,324,o),
(206,352,o),
(262,352,cs),
(301,352,o),
(313,294,o),
(291,212,cs),
(263,101,o),
(197,23,o),
(132,23,cs),
(99,23,o),
(86,59,o),
(101,110,cs),
(152,303,o),
(218,526,o),
(260,647,c),
(80,635,l),
(76,606,l),
(125,609,o),
(145,608,o),
(154,593,cs),
(161,582,o),
(153,563,o),
(143,525,cs),
(21,82,ls),
(5,25,o),
(38,-15,o),
(101,-15,cs)
);
}
);
};
layerId = m004;
shapes = (
{
closed = 1;
nodes = (
(165,-8,o),
(124,26,o),
(115,27,cs),
(92,29,o),
(82,53,o),
(90,85,c),
(110,151,o),
(138,242,o),
(158,308,cs),
(181,385,o),
(204,461,o),
(227,538,c),
(241,589,o),
(254,624,o),
(261,648,c),
(219,641,o),
(159,636,o),
(117,636,c),
(110,611,l),
(133,609,o),
(155,599,o),
(163,587,cs),
(169,579,o),
(167,552,o),
(158,521,c),
(138,455,o),
(118,389,o),
(98,323,cs),
(74,245,o),
(45,160,o),
(21,82,c),
(7,29,o),
(51,-8,o),
(128,-8,cs)
);
},
{
closed = 1;
nodes = (
(132,323,l),
(171,352,o),
(212,373,o),
(230,373,cs),
(282,373,o),
(299,307,o),
(273,214,cs),
(244,104,o),
(179,27,o),
(115,27,cs),
(98,27,o),
(97,-8,o),
(128,-8,cs),
(222,-8,o),
(315,93,o),
(352,236,cs),
(379,339,o),
(344,412,o),
(268,412,cs),
(239,412,o),
(183,388,o),
(132,355,c)
);
}
);
width = 378;
}
);
metricLeft = l;
metricRight = o;
unicode = 98;
},
{
glyphname = c;
lastChange = "2025-04-15 19:38:04 +0000";
layers = (
{
anchors = (
{
name = bottom;
pos = (125,0);
},
{
name = top;
pos = (219,402);
}
);
background = {
shapes = (
{
closed = 1;
nodes = (
(181,-8,o),
(267,32,o),
(307,95,c),
(290,109,l),
(255,73,o),
(201,41,o),
(158,41,cs),
(103,41,o),
(84,119,o),
(112,224,cs),
(134,308,o),
(185,381,o),
(222,381,cs),
(247,381,o),
(256,343,o),
(246,308,cs),
(230,251,o),
(163,192,o),
(82,183,c),
(79,157,l),
(199,169,o),
(300,238,o),
(323,322,cs),
(335,375,o),
(313,413,o),
(255,413,cs),
(167,413,o),
(70,325,o),
(37,201,cs),
(4,79,o),
(30,-8,o),
(116,-8,cs)
);
}
);
};
layerId = m003;
shapes = (
{
closed = 1;
nodes = (
(190,-8,o),
(249,35,o),
(287,95,c),
(270,109,l),
(232,70,o),
(194,42,o),
(153,42,cs),
(99,42,o),
(77,117,o),
(106,224,cs),
(133,319,o),
(188,387,o),
(230,387,cs),
(265,387,o),
(278,348,o),
(261,294,c),
(260,283,o),
(265,275,o),
(273,275,cs),
(304,275,o),
(331,292,o),
(338,316,cs),
(352,373,o),
(312,414,o),
(242,414,cs),
(156,414,o),
(71,326,o),
(37,201,cs),
(4,79,o),
(37,-8,o),
(116,-8,cs)
);
}
);
width = 342;
},
{
anchors = (
{
name = bottom;
pos = (125,0);
},
{
name = top;
pos = (219,402);
}
);
background = {
shapes = (
{
closed = 1;
nodes = (
(181,-8,o),
(267,32,o),
(307,95,c),
(290,109,l),
(255,73,o),
(201,41,o),
(158,41,cs),
(103,41,o),
(84,119,o),
(112,224,cs),
(134,308,o),
(185,381,o),
(222,381,cs),
(247,381,o),
(256,343,o),
(246,308,cs),
(230,251,o),
(163,192,o),
(82,183,c),
(79,157,l),
(199,169,o),
(300,238,o),
(323,322,cs),
(335,375,o),
(313,413,o),
(255,413,cs),
(167,413,o),
(70,325,o),
(37,201,cs),
(4,79,o),
(30,-8,o),
(116,-8,cs)
);
}
);
};
layerId = m005;
shapes = (
{
closed = 1;
nodes = (
(190,-8,o),
(249,35,o),
(287,95,c),
(270,109,l),
(232,70,o),
(194,42,o),
(153,42,cs),
(99,42,o),
(77,117,o),
(106,224,cs),
(133,319,o),
(188,387,o),
(230,387,cs),
(265,387,o),
(278,348,o),
(261,294,c),
(260,283,o),
(265,275,o),
(273,275,cs),
(304,275,o),
(331,292,o),
(338,316,cs),
(352,373,o),
(312,414,o),
(242,414,cs),
(156,414,o),
(71,326,o),
(37,201,cs),
(4,79,o),
(37,-8,o),
(116,-8,cs)
);
}
);
width = 342;
},
{
anchors = (
{
name = bottom;
pos = (125,0);
},
{
name = top;
pos = (219,402);
}
);
background = {
shapes = (
{
closed = 1;
nodes = (
(181,-8,o),
(267,32,o),
(307,95,c),
(290,109,l),
(255,73,o),
(201,41,o),
(158,41,cs),
(103,41,o),
(84,119,o),
(112,224,cs),
(134,308,o),
(185,381,o),
(222,381,cs),
(247,381,o),
(256,343,o),
(246,308,cs),
(230,251,o),
(163,192,o),
(82,183,c),
(79,157,l),
(199,169,o),
(300,238,o),
(323,322,cs),
(335,375,o),
(313,413,o),
(255,413,cs),
(167,413,o),
(70,325,o),
(37,201,cs),
(4,79,o),
(30,-8,o),
(116,-8,cs)
);
}
);
};
layerId = m006;
shapes = (
{
closed = 1;
nodes = (
(193,-8,o),
(267,35,o),
(305,95,c),
(288,109,l),
(250,70,o),
(198,42,o),
(163,42,cs),
(101,42,o),
(77,117,o),
(106,224,cs),
(133,319,o),
(189,387,o),
(240,387,cs),
(280,387,o),
(296,348,o),
(279,294,c),
(278,283,o),
(283,275,o),
(291,275,cs),
(322,275,o),
(349,292,o),
(356,316,cs),
(370,373,o),
(327,414,o),
(252,414,cs),
(160,414,o),
(71,326,o),
(37,201,cs),
(4,79,o),
(41,-8,o),
(126,-8,cs)
);
}
);
width = 360;
},
{
anchors = (
{
name = bottom;
pos = (125,0);
},
{
name = top;
pos = (219,402);
}
);
background = {
shapes = (
{
closed = 1;
nodes = (
(181,-8,o),
(267,32,o),
(307,95,c),
(290,109,l),
(255,73,o),
(201,41,o),
(158,41,cs),
(103,41,o),
(84,119,o),
(112,224,cs),
(134,308,o),
(185,381,o),
(222,381,cs),
(247,381,o),
(256,343,o),
(246,308,cs),
(230,251,o),
(163,192,o),
(82,183,c),
(79,157,l),
(199,169,o),
(300,238,o),
(323,322,cs),
(335,375,o),
(313,413,o),
(255,413,cs),
(167,413,o),
(70,325,o),
(37,201,cs),
(4,79,o),
(30,-8,o),
(116,-8,cs)
);
}
);
};
layerId = m004;
shapes = (
{
closed = 1;
nodes = (
(163,-8,o),
(231,35,o),
(269,95,c),
(252,109,l),
(214,70,o),
(169,42,o),
(143,42,cs),
(92,42,o),
(77,117,o),
(106,224,cs),
(133,319,o),
(180,387,o),
(220,387,cs),
(251,387,o),
(260,348,o),
(243,294,c),
(242,283,o),
(247,275,o),
(255,275,cs),
(286,275,o),
(313,292,o),
(320,316,cs),
(334,373,o),
(298,414,o),
(232,414,cs),
(152,414,o),
(71,326,o),
(37,201,cs),
(4,79,o),
(32,-8,o),
(106,-8,cs)
);
}
);
width = 324;
}
);
metricLeft = o;
metricRight = o;
unicode = 99;
},
{
glyphname = d;
lastChange = "2025-04-15 19:40:16 +0000";
layers = (
{
anchors = (
{
name = bottom;
pos = (143,0);
},
{
name = center;
pos = (388,510);
},
{
name = ogonek;
pos = (325,10);
},
{
name = top;
pos = (284,401);
},
{
name = topright;
pos = (506,637);
}
);
background = {
shapes = (
{
closed = 1;
nodes = (
(312,-14,o),
(380,25,o),
(408,79,c),
(387,97,l),
(364,62,o),
(331,38,o),
(307,38,cs),
(294,38,o),
(291,64,o),
(302,105,cs),
(331,216,o),
(389,429,o),
(419,540,cs),
(426,565,o),
(442,616,o),
(459,660,c),
(426,644,o),
(337,633,o),
(256,633,c),
(252,604,l),
(316,607,o),
(355,597,o),
(350,580,c),
(350,564,o),
(344,541,o),
(340,523,cs),
(320,448,o),
(301,375,o),
(283,309,cs),
(249,177,o),
(223,79,o),
(223,72,cs),
(214,23,o),
(224,-14,o),
(248,-14,cs)
);
},
{
closed = 1;
nodes = (
(128,-15,o),
(231,71,o),
(293,191,c),
(289,242,l),
(232,132,o),
(148,45,o),
(105,45,cs),
(82,45,o),
(81,122,o),
(105,197,cs),
(139,304,o),
(204,377,o),
(265,377,cs),
(280,377,o),
(308,361,o),
(327,348,c),
(360,397,l),
(340,407,o),
(311,409,o),
(293,409,cs),
(180,409,o),
(65,310,o),
(21,170,cs),
(-7,81,o),
(8,-15,o),
(63,-15,cs)
);
},
{
closed = 1;
nodes = (
(328,-14,o),
(396,25,o),
(424,79,c),
(403,97,l),
(380,62,o),
(347,38,o),
(323,38,cs),
(310,38,o),
(307,64,o),
(318,105,cs),
(347,216,o),
(405,429,o),
(435,540,cs),
(442,565,o),
(458,616,o),
(470,645,c),
(294,633,l),
(290,604,l),
(336,607,o),
(352,605,o),
(362,592,cs),
(371,581,o),
(365,561,o),
(356,523,c),
(299,309,l),
(265,177,o),
(239,79,o),
(239,72,cs),
(230,23,o),
(240,-14,o),
(264,-14,cs)
);
},
{
closed = 1;
nodes = (
(125,-15,o),
(227,71,o),
(288,191,c),
(282,242,l),
(228,132,o),
(146,45,o),
(103,45,cs),
(80,45,o),
(80,93,o),
(99,167,cs),
(127,274,o),
(205,370,o),
(266,370,cs),
(286,370,o),
(308,359,o),
(328,341,c),
(359,390,l),
(339,400,o),
(309,402,o),
(291,402,cs),
(178,402,o),
(57,280,o),
(19,140,cs),
(-5,51,o),
(5,-15,o),
(60,-15,cs)
);
}
);
};
layerId = m003;
shapes = (
{
closed = 1;
nodes = (
(130,-10,o),
(208,53,o),
(286,208,c),
(276,249,l),
(218,132,o),
(142,46,o),
(101,46,cs),
(73,46,o),
(68,96,o),
(83,155,cs),
(117,283,o),
(189,363,o),
(253,363,cs),
(274,363,o),
(295,355,o),
(305,333,c),
(332,388,l),
(316,396,o),
(293,402,o),
(278,402,cs),
(169,402,o),
(60,286,o),
(14,121,cs),
(-7,44,o),
(14,-10,o),
(65,-10,cs)
);
},
{
closed = 1;
nodes = (
(289,-6,o),
(350,39,o),
(400,106,c),
(381,124,l),
(347,87,o),
(318,56,o),
(308,56,cs),
(297,56,o),
(296,95,o),
(309,152,cs),
(313,170,o),
(317,195,o),
(324,217,cs),
(350,308,l),
(419,538,ls),
(434,589,o),
(447,624,o),
(454,648,c),
(406,640,o),
(353,636,o),
(305,636,c),
(298,611,l),
(336,608,o),
(351,606,o),
(358,595,cs),
(363,589,o),
(361,574,o),
(347,521,cs),
(329,455,o),
(320,414,o),
(299,348,cs),
(278,281,l),
(256,201,ls),
(222,78,o),
(215,-6,o),
(256,-6,cs)
);
}
);
width = 414;
},
{
associatedMasterId = m003;
layerId = "993377BE-703F-43F0-9103-9C55914F64D0";
name = "7. Nov. 24, 00:11";
shapes = (
{
closed = 1;
nodes = (
(98,-3,o),
(197,77,o),
(303,190,c),
(286,208,l),
(216,136,o),
(150,85,o),
(127,85,cs),
(108,85,o),
(107,127,o),
(125,186,cs),
(175,348,o),
(261,463,o),
(334,463,cs),
(348,463,o),
(373,451,o),
(396,435,c),
(434,484,l),
(412,501,o),
(382,513,o),
(362,513,cs),
(230,513,o),
(91,363,o),
(26,152,cs),
(-2,61,o),
(14,-3,o),
(63,-3,cs)
);
},
{
closed = 1;
nodes = (
(326,-6,o),
(410,88,o),
(463,220,c),
(433,220,l),
(402,142,o),
(359,87,o),
(330,87,cs),
(318,87,o),
(325,128,o),
(347,187,cs),
(369,248,o),
(481,573,o),
(531,701,c),
(456,701,l),
(255,145,l),
(222,57,o),
(225,-6,o),
(262,-6,cs)
);
},
{
closed = 1;
nodes = (
(336,648,l),
(391,651,o),
(437,635,o),
(447,610,c),
(456,701,l),
(342,702,l)
);
}
);
width = 463;
},
{
anchors = (
{
name = bottom;
pos = (143,0);
},
{
name = center;
pos = (388,510);
},
{
name = ogonek;
pos = (325,10);
},
{
name = top;
pos = (284,401);
},
{
name = topright;
pos = (506,637);
}
);
background = {
shapes = (
{
closed = 1;
nodes = (
(312,-14,o),
(380,25,o),
(408,79,c),
(387,97,l),
(364,62,o),
(331,38,o),
(307,38,cs),
(294,38,o),
(291,64,o),
(302,105,cs),
(331,216,o),
(389,429,o),
(419,540,cs),
(426,565,o),
(442,616,o),
(459,660,c),
(426,644,o),
(337,633,o),
(256,633,c),
(252,604,l),
(316,607,o),
(355,597,o),
(350,580,c),
(350,564,o),
(344,541,o),
(340,523,cs),
(320,448,o),
(301,375,o),
(283,309,cs),
(249,177,o),
(223,79,o),
(223,72,cs),
(214,23,o),
(224,-14,o),
(248,-14,cs)
);
},
{
closed = 1;
nodes = (
(128,-15,o),
(231,71,o),
(293,191,c),
(289,242,l),
(232,132,o),
(148,45,o),
(105,45,cs),
(82,45,o),
(81,122,o),
(105,197,cs),
(139,304,o),
(204,377,o),
(265,377,cs),
(280,377,o),
(308,361,o),
(327,348,c),
(360,397,l),
(340,407,o),
(311,409,o),
(293,409,cs),
(180,409,o),
(65,310,o),
(21,170,cs),
(-7,81,o),
(8,-15,o),
(63,-15,cs)
);
},
{
closed = 1;
nodes = (
(328,-14,o),
(396,25,o),
(424,79,c),
(403,97,l),
(380,62,o),
(347,38,o),
(323,38,cs),
(310,38,o),
(307,64,o),
(318,105,cs),
(347,216,o),
(405,429,o),
(435,540,cs),
(442,565,o),
(458,616,o),
(470,645,c),
(294,633,l),
(290,604,l),
(336,607,o),
(352,605,o),
(362,592,cs),
(371,581,o),
(365,561,o),
(356,523,c),
(299,309,l),
(265,177,o),
(239,79,o),
(239,72,cs),
(230,23,o),
(240,-14,o),
(264,-14,cs)
);
},
{
closed = 1;
nodes = (
(125,-15,o),
(227,71,o),
(288,191,c),
(282,242,l),
(228,132,o),
(146,45,o),
(103,45,cs),
(80,45,o),
(80,93,o),
(99,167,cs),
(127,274,o),
(205,370,o),
(266,370,cs),
(286,370,o),
(308,359,o),
(328,341,c),
(359,390,l),
(339,400,o),
(309,402,o),
(291,402,cs),
(178,402,o),
(57,280,o),
(19,140,cs),
(-5,51,o),
(5,-15,o),
(60,-15,cs)
);
}
);
};
layerId = m005;
shapes = (
{
closed = 1;
nodes = (
(130,-10,o),
(208,53,o),
(286,208,c),
(276,249,l),
(218,132,o),
(142,46,o),
(101,46,cs),
(73,46,o),
(68,96,o),
(83,155,cs),
(117,283,o),
(189,363,o),
(253,363,cs),
(274,363,o),
(295,355,o),
(305,333,c),
(332,388,l),
(316,396,o),
(293,402,o),
(278,402,cs),
(169,402,o),
(60,286,o),
(14,121,cs),
(-7,44,o),
(14,-10,o),
(65,-10,cs)
);
},
{
closed = 1;
nodes = (
(289,-6,o),
(350,39,o),
(400,106,c),
(381,124,l),
(347,87,o),
(318,56,o),
(308,56,cs),
(297,56,o),
(296,95,o),
(309,152,cs),
(313,170,o),
(317,195,o),
(324,217,cs),
(350,308,l),
(419,538,ls),
(434,589,o),
(447,624,o),
(454,648,c),
(406,640,o),
(353,636,o),
(305,636,c),
(298,611,l),
(336,608,o),
(351,606,o),
(358,595,cs),
(363,589,o),
(361,574,o),
(347,521,cs),
(329,455,o),
(320,414,o),
(299,348,cs),
(278,281,l),
(256,201,ls),
(222,78,o),
(215,-6,o),
(256,-6,cs)
);
}
);
width = 414;
},
{
associatedMasterId = m005;
layerId = "8F12F315-3FA8-4014-9178-3FE9C846B860";
name = "7. Nov. 24, 00:11";
shapes = (
{
closed = 1;
nodes = (
(98,-3,o),
(197,77,o),
(303,190,c),
(286,208,l),
(216,136,o),
(150,85,o),
(127,85,cs),
(108,85,o),
(107,127,o),
(125,186,cs),
(175,348,o),
(261,463,o),
(334,463,cs),
(348,463,o),
(373,451,o),
(396,435,c),
(434,484,l),
(412,501,o),
(382,513,o),
(362,513,cs),
(230,513,o),
(91,363,o),
(26,152,cs),
(-2,61,o),
(14,-3,o),
(63,-3,cs)
);
},
{
closed = 1;
nodes = (
(326,-6,o),
(410,88,o),
(463,220,c),
(433,220,l),
(402,142,o),
(359,87,o),
(330,87,cs),
(318,87,o),
(325,128,o),
(347,187,cs),
(369,248,o),
(481,573,o),
(531,701,c),
(456,701,l),
(255,145,l),
(222,57,o),
(225,-6,o),
(262,-6,cs)
);
},
{
closed = 1;
nodes = (
(336,648,l),
(391,651,o),
(437,635,o),
(447,610,c),
(456,701,l),
(342,702,l)
);
}
);
width = 463;
},
{
anchors = (
{
name = bottom;
pos = (143,0);
},
{
name = center;
pos = (388,510);
},
{
name = ogonek;
pos = (325,10);
},
{
name = top;
pos = (284,401);
},
{
name = topright;
pos = (506,637);
}
);
background = {
shapes = (
{
closed = 1;
nodes = (
(312,-14,o),
(380,25,o),
(408,79,c),
(387,97,l),
(364,62,o),
(331,38,o),
(307,38,cs),
(294,38,o),
(291,64,o),
(302,105,cs),
(331,216,o),
(389,429,o),
(419,540,cs),
(426,565,o),
(442,616,o),
(459,660,c),
(426,644,o),
(337,633,o),
(256,633,c),
(252,604,l),
(316,607,o),
(355,597,o),
(350,580,c),
(350,564,o),
(344,541,o),
(340,523,cs),
(320,448,o),
(301,375,o),
(283,309,cs),
(249,177,o),
(223,79,o),
(223,72,cs),
(214,23,o),
(224,-14,o),
(248,-14,cs)
);
},
{
closed = 1;
nodes = (
(128,-15,o),
(231,71,o),
(293,191,c),
(289,242,l),
(232,132,o),
(148,45,o),
(105,45,cs),
(82,45,o),
(81,122,o),
(105,197,cs),
(139,304,o),
(204,377,o),
(265,377,cs),
(280,377,o),
(308,361,o),
(327,348,c),
(360,397,l),
(340,407,o),
(311,409,o),
(293,409,cs),
(180,409,o),
(65,310,o),
(21,170,cs),
(-7,81,o),
(8,-15,o),
(63,-15,cs)
);
},
{
closed = 1;
nodes = (
(328,-14,o),
(396,25,o),
(424,79,c),
(403,97,l),
(380,62,o),
(347,38,o),
(323,38,cs),
(310,38,o),
(307,64,o),
(318,105,cs),
(347,216,o),
(405,429,o),
(435,540,cs),
(442,565,o),
(458,616,o),
(470,645,c),
(294,633,l),
(290,604,l),
(336,607,o),
(352,605,o),
(362,592,cs),
(371,581,o),
(365,561,o),
(356,523,c),
(299,309,l),
(265,177,o),
(239,79,o),
(239,72,cs),
(230,23,o),
(240,-14,o),
(264,-14,cs)
);
},
{
closed = 1;
nodes = (
(125,-15,o),
(227,71,o),
(288,191,c),
(282,242,l),
(228,132,o),
(146,45,o),
(103,45,cs),
(80,45,o),
(80,93,o),
(99,167,cs),
(127,274,o),
(205,370,o),
(266,370,cs),
(286,370,o),
(308,359,o),
(328,341,c),
(359,390,l),
(339,400,o),
(309,402,o),
(291,402,cs),
(178,402,o),
(57,280,o),
(19,140,cs),
(-5,51,o),
(5,-15,o),
(60,-15,cs)
);
}
);
};
layerId = m006;
shapes = (
{
closed = 1;
nodes = (
(130,-10,o),
(228,53,o),
(306,208,c),
(296,249,l),
(238,132,o),
(142,46,o),
(101,46,cs),
(73,46,o),
(68,96,o),
(83,155,cs),
(117,283,o),
(189,363,o),
(253,363,cs),
(274,363,o),
(305,355,o),
(315,333,c),
(342,388,l),
(326,396,o),
(293,402,o),
(278,402,cs),
(169,402,o),
(60,286,o),
(14,121,cs),
(-7,44,o),
(14,-10,o),
(65,-10,cs)
);
},
{
closed = 1;
nodes = (
(307,-6,o),
(368,39,o),
(418,106,c),
(399,124,l),
(365,87,o),
(336,56,o),
(326,56,cs),
(315,56,o),
(314,95,o),
(327,152,cs),
(331,170,o),
(335,195,o),
(342,217,cs),
(368,308,l),
(437,538,ls),
(452,589,o),
(465,624,o),
(472,648,c),
(424,640,o),
(371,636,o),
(323,636,c),
(316,611,l),
(354,608,o),
(369,606,o),
(376,595,cs),
(381,589,o),
(379,574,o),
(365,521,cs),
(347,455,o),
(338,414,o),
(317,348,cs),
(296,281,l),
(274,201,ls),
(240,78,o),
(233,-6,o),
(274,-6,cs)
);
}
);
width = 432;
},
{
associatedMasterId = m006;
layerId = "0A9920ED-9701-49CA-8FBB-23AE6CF1244F";
name = "7. Nov. 24, 00:11";
shapes = (
{
closed = 1;
nodes = (
(98,-3,o),
(197,77,o),
(303,190,c),
(286,208,l),
(216,136,o),
(150,85,o),
(127,85,cs),
(108,85,o),
(107,127,o),
(125,186,cs),
(175,348,o),
(261,463,o),
(334,463,cs),
(348,463,o),
(373,451,o),
(396,435,c),
(434,484,l),
(412,501,o),
(382,513,o),
(362,513,cs),
(230,513,o),
(91,363,o),
(26,152,cs),
(-2,61,o),
(14,-3,o),
(63,-3,cs)
);
},
{
closed = 1;
nodes = (
(326,-6,o),
(410,88,o),
(463,220,c),
(433,220,l),
(402,142,o),
(359,87,o),
(330,87,cs),
(318,87,o),
(325,128,o),
(347,187,cs),
(369,248,o),
(481,573,o),
(531,701,c),
(456,701,l),
(255,145,l),
(222,57,o),
(225,-6,o),
(262,-6,cs)
);
},
{
closed = 1;
nodes = (
(336,648,l),
(391,651,o),
(437,635,o),
(447,610,c),
(456,701,l),
(342,702,l)
);
}
);
width = 463;
},
{
anchors = (
{
name = bottom;
pos = (143,0);
},
{
name = center;
pos = (388,510);
},
{
name = ogonek;
pos = (325,10);
},
{
name = top;
pos = (284,401);
},
{
name = topright;
pos = (506,637);
}
);
background = {
shapes = (
{
closed = 1;
nodes = (
(312,-14,o),
(380,25,o),
(408,79,c),
(387,97,l),
(364,62,o),
(331,38,o),
(307,38,cs),
(294,38,o),
(291,64,o),
(302,105,cs),
(331,216,o),
(389,429,o),
(419,540,cs),
(426,565,o),
(442,616,o),
(459,660,c),
(426,644,o),
(337,633,o),
(256,633,c),
(252,604,l),
(316,607,o),
(355,597,o),
(350,580,c),
(350,564,o),
(344,541,o),
(340,523,cs),
(320,448,o),
(301,375,o),
(283,309,cs),
(249,177,o),
(223,79,o),
(223,72,cs),
(214,23,o),
(224,-14,o),
(248,-14,cs)
);
},
{
closed = 1;
nodes = (
(128,-15,o),
(231,71,o),
(293,191,c),
(289,242,l),
(232,132,o),
(148,45,o),
(105,45,cs),
(82,45,o),
(81,122,o),
(105,197,cs),
(139,304,o),
(204,377,o),
(265,377,cs),
(280,377,o),
(308,361,o),
(327,348,c),
(360,397,l),
(340,407,o),
(311,409,o),
(293,409,cs),
(180,409,o),
(65,310,o),
(21,170,cs),
(-7,81,o),
(8,-15,o),
(63,-15,cs)
);
},
{
closed = 1;
nodes = (
(328,-14,o),
(396,25,o),
(424,79,c),
(403,97,l),
(380,62,o),
(347,38,o),
(323,38,cs),
(310,38,o),
(307,64,o),
(318,105,cs),
(347,216,o),
(405,429,o),
(435,540,cs),
(442,565,o),
(458,616,o),
(470,645,c),
(294,633,l),
(290,604,l),
(336,607,o),
(352,605,o),
(362,592,cs),
(371,581,o),
(365,561,o),
(356,523,c),
(299,309,l),
(265,177,o),
(239,79,o),
(239,72,cs),
(230,23,o),
(240,-14,o),
(264,-14,cs)
);
},
{
closed = 1;
nodes = (
(125,-15,o),
(227,71,o),
(288,191,c),
(282,242,l),
(228,132,o),
(146,45,o),
(103,45,cs),
(80,45,o),
(80,93,o),
(99,167,cs),
(127,274,o),
(205,370,o),
(266,370,cs),
(286,370,o),
(308,359,o),
(328,341,c),
(359,390,l),
(339,400,o),
(309,402,o),
(291,402,cs),
(178,402,o),
(57,280,o),
(19,140,cs),
(-5,51,o),
(5,-15,o),
(60,-15,cs)
);
}
);
};
layerId = m004;
shapes = (
{
closed = 1;
nodes = (
(130,-10,o),
(198,53,o),
(276,208,c),
(266,249,l),
(208,132,o),
(142,46,o),
(101,46,cs),
(73,46,o),
(68,96,o),
(83,155,cs),
(117,283,o),
(189,363,o),
(253,363,cs),
(274,363,o),
(285,355,o),
(295,333,c),
(322,388,l),
(306,396,o),
(293,402,o),
(278,402,cs),
(169,402,o),
(60,286,o),
(14,121,cs),
(-7,44,o),
(14,-10,o),
(65,-10,cs)
);
},
{
closed = 1;
nodes = (
(271,-6,o),
(332,39,o),
(382,106,c),
(363,124,l),
(329,87,o),
(300,56,o),
(290,56,cs),
(279,56,o),
(278,95,o),
(291,152,cs),
(295,170,o),
(299,195,o),
(306,217,cs),
(332,308,l),
(401,538,ls),
(416,589,o),
(429,624,o),
(436,648,c),
(388,640,o),
(335,636,o),
(287,636,c),
(280,611,l),
(318,608,o),
(333,606,o),
(340,595,cs),
(345,589,o),
(343,574,o),
(329,521,cs),
(311,455,o),
(302,414,o),
(281,348,cs),
(260,281,l),
(238,201,ls),
(204,78,o),
(197,-6,o),
(238,-6,cs)
);
}
);
width = 396;
},
{
associatedMasterId = m004;
layerId = "BD39C059-D74C-4177-B5EC-2C9B3F4B4094";
name = "7. Nov. 24, 00:11";
shapes = (
{
closed = 1;
nodes = (
(98,-3,o),
(197,77,o),
(303,190,c),
(286,208,l),
(216,136,o),
(150,85,o),
(127,85,cs),
(108,85,o),
(107,127,o),
(125,186,cs),
(175,348,o),
(261,463,o),
(334,463,cs),
(348,463,o),
(373,451,o),
(396,435,c),
(434,484,l),
(412,501,o),
(382,513,o),
(362,513,cs),
(230,513,o),
(91,363,o),
(26,152,cs),
(-2,61,o),
(14,-3,o),
(63,-3,cs)
);
},
{
closed = 1;
nodes = (
(326,-6,o),
(410,88,o),
(463,220,c),
(433,220,l),
(402,142,o),
(359,87,o),
(330,87,cs),
(318,87,o),
(325,128,o),
(347,187,cs),
(369,248,o),
(481,573,o),
(531,701,c),
(456,701,l),
(255,145,l),
(222,57,o),
(225,-6,o),
(262,-6,cs)
);
},
{
closed = 1;
nodes = (
(336,648,l),
(391,651,o),
(437,635,o),
(447,610,c),
(456,701,l),
(342,702,l)
);
}
);
width = 463;
}
);
metricLeft = o;
metricRight = a;
metricWidth = a;
unicode = 100;
},
{
glyphname = e;
lastChange = "2025-04-15 19:41:24 +0000";
layers = (
{
anchors = (
{
name = bottom;
pos = (126,0);
},
{
name = ogonek;
pos = (274,10);
},
{
name = top;
pos = (220,402);
}
);
layerId = m003;
shapes = (
{
closed = 1;
nodes = (
(181,-8,o),
(247,32,o),
(287,95,c),
(270,109,l),
(235,73,o),
(190,39,o),
(147,39,cs),
(92,39,o),
(73,117,o),
(101,222,cs),
(123,306,o),
(190,379,o),
(227,379,cs),
(252,379,o),
(269,343,o),
(259,308,cs),
(243,251,o),
(163,194,o),
(82,185,c),
(79,157,l),
(199,169,o),
(300,238,o),
(323,322,cs),
(335,375,o),
(313,413,o),
(255,413,cs),
(167,413,o),
(70,325,o),
(37,201,cs),
(6,85,o),
(40,-8,o),
(116,-8,cs)
);
}
);
width = 342;
},
{
anchors = (
{
name = bottom;
pos = (126,0);
},
{
name = ogonek;
pos = (274,10);
},
{
name = top;
pos = (220,402);
}
);
layerId = m005;
shapes = (
{
closed = 1;
nodes = (
(181,-8,o),
(247,32,o),
(287,95,c),
(270,109,l),
(235,73,o),
(190,39,o),
(147,39,cs),
(92,39,o),
(73,117,o),
(101,222,cs),
(123,306,o),
(190,379,o),
(227,379,cs),
(252,379,o),
(269,343,o),
(259,308,cs),
(243,251,o),
(163,194,o),
(82,185,c),
(79,157,l),
(199,169,o),
(300,238,o),
(323,322,cs),
(335,375,o),
(313,413,o),
(255,413,cs),
(167,413,o),
(70,325,o),
(37,201,cs),
(6,85,o),
(40,-8,o),
(116,-8,cs)
);
}
);
width = 342;
},
{
anchors = (
{
name = bottom;
pos = (126,0);
},
{
name = ogonek;
pos = (274,10);
},
{
name = top;
pos = (220,402);
}
);
layerId = m006;
shapes = (
{
closed = 1;
nodes = (
(193,-8,o),
(267,35,o),
(305,95,c),
(288,109,l),
(248,68,o),
(194,39,o),
(157,39,cs),
(96,39,o),
(72,115,o),
(101,222,cs),
(125,314,o),
(181,379,o),
(237,379,cs),
(272,379,o),
(289,350,o),
(277,308,cs),
(260,247,o),
(179,196,o),
(82,185,c),
(79,157,l),
(210,170,o),
(318,238,o),
(341,322,cs),
(353,375,o),
(322,413,o),
(265,413,cs),
(165,413,o),
(70,325,o),
(37,201,cs),
(4,79,o),
(41,-8,o),
(126,-8,cs)
);
}
);
width = 360;
},
{
anchors = (
{
name = bottom;
pos = (126,0);
},
{
name = ogonek;
pos = (274,10);
},
{
name = top;
pos = (220,402);
}
);
layerId = m004;
shapes = (
{
closed = 1;
nodes = (
(163,-8,o),
(231,35,o),
(269,95,c),
(252,109,l),
(212,68,o),
(164,39,o),
(137,39,cs),
(87,39,o),
(72,115,o),
(101,222,cs),
(125,314,o),
(173,379,o),
(217,379,cs),
(243,379,o),
(253,350,o),
(241,308,cs),
(223,244,o),
(157,193,o),
(82,185,c),
(79,157,l),
(188,168,o),
(282,236,o),
(305,322,cs),
(317,375,o),
(292,413,o),
(245,413,cs),
(156,413,o),
(70,325,o),
(37,201,cs),
(4,79,o),
(33,-8,o),
(106,-8,cs)
);
}
);
width = 324;
}
);
unicode = 101;
},
{
glyphname = f;
lastChange = "2025-04-15 19:41:54 +0000";
layers = (
{
anchors = (
{
name = bottom;
pos = (104,0);
},
{
name = top;
pos = (298,637);
}
);
background = {
shapes = (
{
closed = 0;
nodes = (
(66,81,ls),
(55,33,o),
(26,-90,o),
(-16,-138,cs),
(-26,-150,o),
(-37,-157,o),
(-49,-157,cs),
(-68,-158,o),
(-65,-135,o),
(-84,-134,cs),
(-117,-134,o),
(-147,-163,o),
(-156,-205,cs),
(-160,-220,o),
(-145,-232,o),
(-119,-232,cs),
(-85,-232,o),
(-20,-190,o),
(4,-164,cs),
(67,-96,o),
(129,29,o),
(154,148,cs)
);
}
);
};
layerId = m003;
shapes = (
{
closed = 1;
nodes = (
(-110,-234,o),
(-59,-211,o),
(-24,-179,cs),
(62,-98,o),
(127,118,o),
(155,241,cs),
(172,323,o),
(191,414,o),
(217,498,cs),
(240,574,o),
(294,620,o),
(335,620,cs),
(379,620,o),
(398,581,o),
(386,542,cs),
(381,529,o),
(387,520,o),
(397,520,cs),
(428,520,o),
(457,538,o),
(463,561,cs),
(476,610,o),
(432,643,o),
(357,643,cs),
(256,643,o),
(162,559,o),
(134,434,cs),
(123,383,o),
(106,318,o),
(94,254,cs),
(73,149,o),
(21,-79,o),
(-34,-141,cs),
(-44,-153,o),
(-66,-165,o),
(-75,-165,cs),
(-83,-165,o),
(-86,-161,o),
(-91,-154,cs),
(-95,-148,o),
(-99,-142,o),
(-110,-142,cs),
(-142,-142,o),
(-165,-163,o),
(-174,-205,cs),
(-177,-220,o),
(-162,-234,o),
(-135,-234,cs)
);
},
{
closed = 1;
nodes = (
(261,357,l),
(281,406,l),
(101,402,l),
(14,382,l),
(10,369,l)
);
}
);
width = 234;
},
{
anchors = (
{
name = bottom;
pos = (104,0);
},
{
name = top;
pos = (298,637);
}
);
background = {
shapes = (
{
closed = 0;
nodes = (
(66,81,ls),
(55,33,o),
(26,-90,o),
(-16,-138,cs),
(-26,-150,o),
(-37,-157,o),
(-49,-157,cs),
(-68,-158,o),
(-65,-135,o),
(-84,-134,cs),
(-117,-134,o),
(-147,-163,o),
(-156,-205,cs),
(-160,-220,o),
(-145,-232,o),
(-119,-232,cs),
(-85,-232,o),
(-20,-190,o),
(4,-164,cs),
(67,-96,o),
(129,29,o),
(154,148,cs)
);
}
);
};
layerId = m005;
shapes = (
{
closed = 1;
nodes = (
(-110,-234,o),
(-59,-211,o),
(-24,-179,cs),
(62,-98,o),
(127,118,o),
(155,241,cs),
(172,323,o),
(191,414,o),
(217,498,cs),
(240,574,o),
(294,620,o),
(335,620,cs),
(379,620,o),
(398,581,o),
(386,542,cs),
(381,529,o),
(387,520,o),
(397,520,cs),
(428,520,o),
(457,538,o),
(463,561,cs),
(476,610,o),
(432,643,o),
(357,643,cs),
(256,643,o),
(162,559,o),
(134,434,cs),
(123,383,o),
(106,318,o),
(94,254,cs),
(73,149,o),
(21,-79,o),
(-34,-141,cs),
(-44,-153,o),
(-66,-165,o),
(-75,-165,cs),
(-83,-165,o),
(-86,-161,o),
(-91,-154,cs),
(-95,-148,o),
(-99,-142,o),
(-110,-142,cs),
(-142,-142,o),
(-165,-163,o),
(-174,-205,cs),
(-177,-220,o),
(-162,-234,o),
(-135,-234,cs)
);
},
{
closed = 1;
nodes = (
(261,357,l),
(281,406,l),
(101,402,l),
(14,382,l),
(10,369,l)
);
}
);
width = 234;
},
{
anchors = (
{
name = bottom;
pos = (114,0);
},
{
name = top;
pos = (308,637);
}
);
background = {
shapes = (
{
closed = 0;
nodes = (
(76,81,ls),
(65,33,o),
(36,-90,o),
(-6,-138,cs),
(-16,-150,o),
(-27,-157,o),
(-39,-157,cs),
(-58,-158,o),
(-55,-135,o),
(-74,-134,cs),
(-107,-134,o),
(-137,-163,o),
(-146,-205,cs),
(-150,-220,o),
(-135,-232,o),
(-109,-232,cs),
(-75,-232,o),
(-10,-190,o),
(14,-164,cs),
(77,-96,o),
(139,29,o),
(164,148,cs)
);
}
);
};
layerId = m006;
shapes = (
{
closed = 1;
nodes = (
(-100,-234,o),
(-49,-211,o),
(-14,-179,cs),
(72,-98,o),
(137,118,o),
(165,241,cs),
(182,323,o),
(201,414,o),
(227,498,cs),
(250,574,o),
(304,620,o),
(345,620,cs),
(389,620,o),
(408,581,o),
(396,542,cs),
(391,529,o),
(397,520,o),
(407,520,cs),
(438,520,o),
(467,538,o),
(473,561,cs),
(486,610,o),
(442,643,o),
(367,643,cs),
(266,643,o),
(172,559,o),
(144,434,cs),
(133,383,o),
(116,318,o),
(104,254,cs),
(83,149,o),
(31,-79,o),
(-24,-141,cs),
(-34,-153,o),
(-56,-165,o),
(-65,-165,cs),
(-73,-165,o),
(-76,-161,o),
(-81,-154,cs),
(-85,-148,o),
(-89,-142,o),
(-100,-142,cs),
(-132,-142,o),
(-155,-163,o),
(-164,-205,cs),
(-167,-220,o),
(-152,-234,o),
(-125,-234,cs)
);
},
{
closed = 1;
nodes = (
(271,357,l),
(291,406,l),
(111,402,l),
(24,382,l),
(20,369,l)
);
}
);
width = 252;
},
{
anchors = (
{
name = bottom;
pos = (94,0);
},
{
name = top;
pos = (288,637);
}
);
background = {
shapes = (
{
closed = 0;
nodes = (
(56,81,ls),
(45,33,o),
(16,-90,o),
(-26,-138,cs),
(-36,-150,o),
(-47,-157,o),
(-59,-157,cs),
(-78,-158,o),
(-75,-135,o),
(-94,-134,cs),
(-127,-134,o),
(-157,-163,o),
(-166,-205,cs),
(-170,-220,o),
(-155,-232,o),
(-129,-232,cs),
(-95,-232,o),
(-30,-190,o),
(-6,-164,cs),
(57,-96,o),
(119,29,o),
(144,148,cs)
);
}
);
};
layerId = m004;
shapes = (
{
closed = 1;
nodes = (
(-120,-234,o),
(-69,-211,o),
(-34,-179,cs),
(52,-98,o),
(117,118,o),
(145,241,cs),
(162,323,o),
(181,414,o),
(207,498,cs),
(230,574,o),
(284,620,o),
(325,620,cs),
(369,620,o),
(388,581,o),
(376,542,cs),
(371,529,o),
(377,520,o),
(387,520,cs),
(418,520,o),
(447,538,o),
(453,561,cs),
(466,610,o),
(422,643,o),
(347,643,cs),
(246,643,o),
(152,559,o),
(124,434,cs),
(113,383,o),
(96,318,o),
(84,254,cs),
(63,149,o),
(11,-79,o),
(-44,-141,cs),
(-54,-153,o),
(-76,-165,o),
(-85,-165,cs),
(-93,-165,o),
(-96,-161,o),
(-101,-154,cs),
(-105,-148,o),
(-109,-142,o),
(-120,-142,cs),
(-152,-142,o),
(-175,-163,o),
(-184,-205,cs),
(-187,-220,o),
(-172,-234,o),
(-145,-234,cs)
);
},
{
closed = 1;
nodes = (
(251,357,l),
(271,406,l),
(91,402,l),
(4,382,l),
(0,369,l)
);
}
);
width = 216;
}
);
unicode = 102;
},
{
glyphname = g;
lastChange = "2025-04-15 19:44:23 +0000";
layers = (
{
anchors = (
{
name = bottom;
pos = (85,-230);
},
{
name = top;
pos = (278,402);
}
);
layerId = m003;
shapes = (
{
closed = 1;
nodes = (
(221,-193,o),
(326,-145,o),
(333,-81,cs),
(338,-32,o),
(306,10,o),
(192,50,cs),
(145,67,o),
(124,88,o),
(119,103,cs),
(111,126,o),
(147,140,o),
(182,142,c),
(182,146,l),
(137,154,l),
(97,148,o),
(69,123,o),
(62,101,cs),
(50,64,o),
(106,11,o),
(184,-20,cs),
(239,-42,o),
(278,-64,o),
(277,-86,cs),
(275,-128,o),
(208,-157,o),
(143,-157,cs),
(27,-157,o),
(-41,-97,o),
(13,-10,cs),
(25,9,o),
(58,34,o),
(124,34,c),
(97,60,l),
(21,60,o),
(-49,-2,o),
(-60,-55,cs),
(-80,-136,o),
(-13,-193,o),
(102,-193,cs)
);
},
{
closed = 1;
nodes = (
(242,127,o),
(313,184,o),
(335,264,cs),
(360,351,o),
(321,414,o),
(242,414,cs),
(168,414,o),
(101,359,o),
(79,281,cs),
(55,192,o),
(91,127,o),
(165,127,cs)
);
},
{
closed = 1;
nodes = (
(144,154,o),
(122,208,o),
(149,288,cs),
(167,346,o),
(215,386,o),
(241,386,cs),
(272,386,o),
(285,332,o),
(263,253,cs),
(247,194,o),
(208,154,o),
(176,154,cs)
);
},
{
closed = 1;
nodes = (
(312,284,o),
(361,358,o),
(393,358,cs),
(396,358,o),
(400,357,o),
(404,356,cs),
(408,355,o),
(412,354,o),
(414,354,cs),
(425,354,o),
(440,368,o),
(447,386,cs),
(453,403,o),
(442,414,o),
(424,414,cs),
(380,414,o),
(313,332,o),
(263,220,c),
(277,178,l)
);
}
);
width = 396;
},
{
associatedMasterId = m003;
background = {
shapes = (
{
closed = 0;
nodes = (
(-67,-200,l),
(278,700,l)
);
},
{
closed = 0;
nodes = (
(8,-200,l),
(353,700,l)
);
},
{
closed = 0;
nodes = (
(148,-200,l),
(493,700,l)
);
},
{
closed = 0;
nodes = (
(223,-200,l),
(568,700,l)
);
},
{
closed = 0;
nodes = (
(-172,-200,l),
(173,700,l)
);
},
{
closed = 0;
nodes = (
(-142,-200,l),
(203,700,l)
);
},
{
closed = 0;
nodes = (
(298,-200,l),
(643,700,l)
);
},
{
closed = 0;
nodes = (
(328,-200,l),
(673,700,l)
);
}
);
};
layerId = "CD19AF2B-D444-4E18-A45E-DA9D7905EDAB";
name = "6. Nov. 24, 23:26";
shapes = (
{
closed = 1;
nodes = (
(199,-248,o),
(311,-189,o),
(339,-100,cs),
(353,-51,o),
(314,-3,o),
(245,16,cs),
(162,38,o),
(104,68,o),
(104,88,cs),
(104,101,o),
(126,128,o),
(157,154,c),
(123,163,l),
(88,130,o),
(60,97,o),
(55,83,cs),
(39,39,o),
(55,0,o),
(93,-11,cs),
(202,-41,o),
(271,-89,o),
(261,-126,cs),
(250,-165,o),
(192,-196,o),
(120,-201,cs),
(-1,-209,o),
(-69,-161,o),
(-44,-85,cs),
(-31,-48,o),
(30,-6,o),
(103,18,c),
(81,45,l),
(-35,9,o),
(-124,-51,o),
(-134,-101,cs),
(-153,-191,o),
(-69,-249,o),
(68,-241,cs)
);
},
{
closed = 1;
nodes = (
(229,132,o),
(298,192,o),
(328,279,cs),
(367,399,o),
(333,482,o),
(244,479,cs),
(166,476,o),
(88,411,o),
(57,323,cs),
(16,206,o),
(58,128,o),
(160,135,cs)
);
},
{
closed = 1;
nodes = (
(125,182,o),
(111,246,o),
(140,339,cs),
(157,394,o),
(188,434,o),
(216,435,cs),
(263,437,o),
(274,366,o),
(243,264,cs),
(228,215,o),
(199,182,o),
(171,184,cs)
);
},
{
closed = 1;
nodes = (
(337,397,o),
(345,432,o),
(367,434,cs),
(384,435,o),
(430,405,o),
(441,389,c),
(470,411,l),
(463,454,o),
(444,484,o),
(424,484,cs),
(378,484,o),
(323,451,o),
(292,404,c),
(310,377,l)
);
}
);
width = 414;
},
{
anchors = (
{
name = bottom;
pos = (85,-230);
},
{
name = top;
pos = (278,402);
}
);
layerId = m005;
shapes = (
{
closed = 1;
nodes = (
(221,-193,o),
(326,-145,o),
(333,-81,cs),
(338,-32,o),
(306,10,o),
(192,50,cs),
(145,67,o),
(124,88,o),
(119,103,cs),
(111,126,o),
(147,140,o),
(182,142,c),
(182,146,l),
(137,154,l),
(97,148,o),
(69,123,o),
(62,101,cs),
(50,64,o),
(106,11,o),
(184,-20,cs),
(239,-42,o),
(278,-64,o),
(277,-86,cs),
(275,-128,o),
(208,-157,o),
(143,-157,cs),
(27,-157,o),
(-41,-97,o),
(13,-10,cs),
(25,9,o),
(58,34,o),
(124,34,c),
(97,60,l),
(21,60,o),
(-49,-2,o),
(-60,-55,cs),
(-80,-136,o),
(-13,-193,o),
(102,-193,cs)
);
},
{
closed = 1;
nodes = (
(242,127,o),
(313,184,o),
(335,264,cs),
(360,351,o),
(321,414,o),
(242,414,cs),
(168,414,o),
(101,359,o),
(79,281,cs),
(55,192,o),
(91,127,o),
(165,127,cs)
);
},
{
closed = 1;
nodes = (
(144,154,o),
(122,208,o),
(149,288,cs),
(167,346,o),
(215,386,o),
(241,386,cs),
(272,386,o),
(285,332,o),
(263,253,cs),
(247,194,o),
(208,154,o),
(176,154,cs)
);
},
{
closed = 1;
nodes = (
(312,284,o),
(361,358,o),
(393,358,cs),
(396,358,o),
(400,357,o),
(404,356,cs),
(408,355,o),
(412,354,o),
(414,354,cs),
(425,354,o),
(440,368,o),
(447,386,cs),
(453,403,o),
(442,414,o),
(424,414,cs),
(380,414,o),
(313,332,o),
(263,220,c),
(277,178,l)
);
}
);
width = 396;
},
{
associatedMasterId = m005;
background = {
shapes = (
{
closed = 0;
nodes = (
(-67,-200,l),
(278,700,l)
);
},
{
closed = 0;
nodes = (
(8,-200,l),
(353,700,l)
);
},
{
closed = 0;
nodes = (
(148,-200,l),
(493,700,l)
);
},
{
closed = 0;
nodes = (
(223,-200,l),
(568,700,l)
);
},
{
closed = 0;
nodes = (
(-172,-200,l),
(173,700,l)
);
},
{
closed = 0;
nodes = (
(-142,-200,l),
(203,700,l)
);
},
{
closed = 0;
nodes = (
(298,-200,l),
(643,700,l)
);
},
{
closed = 0;
nodes = (
(328,-200,l),
(673,700,l)
);
}
);
};
layerId = "02DC47BF-F417-4C5C-8C70-E399FE0532E1";
name = "6. Nov. 24, 23:26";
shapes = (
{
closed = 1;
nodes = (
(199,-248,o),
(311,-189,o),
(339,-100,cs),
(353,-51,o),
(314,-3,o),
(245,16,cs),
(162,38,o),
(104,68,o),
(104,88,cs),
(104,101,o),
(126,128,o),
(157,154,c),
(123,163,l),
(88,130,o),
(60,97,o),
(55,83,cs),
(39,39,o),
(55,0,o),
(93,-11,cs),
(202,-41,o),
(271,-89,o),
(261,-126,cs),
(250,-165,o),
(192,-196,o),
(120,-201,cs),
(-1,-209,o),
(-69,-161,o),
(-44,-85,cs),
(-31,-48,o),
(30,-6,o),
(103,18,c),
(81,45,l),
(-35,9,o),
(-124,-51,o),
(-134,-101,cs),
(-153,-191,o),
(-69,-249,o),
(68,-241,cs)
);
},
{
closed = 1;
nodes = (
(229,132,o),
(298,192,o),
(328,279,cs),
(367,399,o),
(333,482,o),
(244,479,cs),
(166,476,o),
(88,411,o),
(57,323,cs),
(16,206,o),
(58,128,o),
(160,135,cs)
);
},
{
closed = 1;
nodes = (
(125,182,o),
(111,246,o),
(140,339,cs),
(157,394,o),
(188,434,o),
(216,435,cs),
(263,437,o),
(274,366,o),
(243,264,cs),
(228,215,o),
(199,182,o),
(171,184,cs)
);
},
{
closed = 1;
nodes = (
(337,397,o),
(345,432,o),
(367,434,cs),
(384,435,o),
(430,405,o),
(441,389,c),
(470,411,l),
(463,454,o),
(444,484,o),
(424,484,cs),
(378,484,o),
(323,451,o),
(292,404,c),
(310,377,l)
);
}
);
width = 414;
},
{
anchors = (
{
name = bottom;
pos = (85,-230);
},
{
name = top;
pos = (278,402);
}
);
layerId = m006;
shapes = (
{
closed = 1;
nodes = (
(229,-193,o),
(344,-145,o),
(351,-81,cs),
(356,-32,o),
(314,10,o),
(200,50,cs),
(153,67,o),
(124,88,o),
(119,103,cs),
(111,126,o),
(147,140,o),
(182,142,c),
(182,146,l),
(137,154,l),
(97,148,o),
(69,123,o),
(62,101,cs),
(50,64,o),
(114,11,o),
(192,-20,cs),
(247,-42,o),
(296,-64,o),
(295,-86,cs),
(293,-128,o),
(216,-157,o),
(151,-157,cs),
(35,-157,o),
(-41,-97,o),
(13,-10,cs),
(25,9,o),
(58,34,o),
(124,34,c),
(97,60,l),
(21,60,o),
(-49,-2,o),
(-60,-55,cs),
(-80,-136,o),
(-5,-193,o),
(110,-193,cs)
);
},
{
closed = 1;
nodes = (
(250,127,o),
(331,184,o),
(353,264,cs),
(378,351,o),
(329,414,o),
(250,414,cs),
(176,414,o),
(101,359,o),
(79,281,cs),
(55,192,o),
(99,127,o),
(173,127,cs)
);
},
{
closed = 1;
nodes = (
(152,154,o),
(122,208,o),
(149,288,cs),
(167,346,o),
(223,386,o),
(249,386,cs),
(280,386,o),
(303,332,o),
(281,253,cs),
(265,194,o),
(216,154,o),
(184,154,cs)
);
},
{
closed = 1;
nodes = (
(330,284,o),
(379,358,o),
(411,358,cs),
(414,358,o),
(418,357,o),
(422,356,cs),
(426,355,o),
(430,354,o),
(432,354,cs),
(443,354,o),
(458,368,o),
(465,386,cs),
(471,403,o),
(460,414,o),
(442,414,cs),
(398,414,o),
(331,332,o),
(281,220,c),
(295,178,l)
);
}
);
width = 432;
},
{
associatedMasterId = m006;
background = {
shapes = (
{
closed = 0;
nodes = (
(-67,-200,l),
(278,700,l)
);
},
{
closed = 0;
nodes = (
(8,-200,l),
(353,700,l)
);
},
{
closed = 0;
nodes = (
(148,-200,l),
(493,700,l)
);
},
{
closed = 0;
nodes = (
(223,-200,l),
(568,700,l)
);
},
{
closed = 0;
nodes = (
(-172,-200,l),
(173,700,l)
);
},
{
closed = 0;
nodes = (
(-142,-200,l),
(203,700,l)
);
},
{
closed = 0;
nodes = (
(298,-200,l),
(643,700,l)
);
},
{
closed = 0;
nodes = (
(328,-200,l),
(673,700,l)
);
}
);
};
layerId = "95DAC940-3DA8-41AC-91C7-82F81F4EFF60";
name = "6. Nov. 24, 23:26";
shapes = (
{
closed = 1;
nodes = (
(199,-248,o),
(311,-189,o),
(339,-100,cs),
(353,-51,o),
(314,-3,o),
(245,16,cs),
(162,38,o),
(104,68,o),
(104,88,cs),
(104,101,o),
(126,128,o),
(157,154,c),
(123,163,l),
(88,130,o),
(60,97,o),
(55,83,cs),
(39,39,o),
(55,0,o),
(93,-11,cs),
(202,-41,o),
(271,-89,o),
(261,-126,cs),
(250,-165,o),
(192,-196,o),
(120,-201,cs),
(-1,-209,o),
(-69,-161,o),
(-44,-85,cs),
(-31,-48,o),
(30,-6,o),
(103,18,c),
(81,45,l),
(-35,9,o),
(-124,-51,o),
(-134,-101,cs),
(-153,-191,o),
(-69,-249,o),
(68,-241,cs)
);
},
{
closed = 1;
nodes = (
(229,132,o),
(298,192,o),
(328,279,cs),
(367,399,o),
(333,482,o),
(244,479,cs),
(166,476,o),
(88,411,o),
(57,323,cs),
(16,206,o),
(58,128,o),
(160,135,cs)
);
},
{
closed = 1;
nodes = (
(125,182,o),
(111,246,o),
(140,339,cs),
(157,394,o),
(188,434,o),
(216,435,cs),
(263,437,o),
(274,366,o),
(243,264,cs),
(228,215,o),
(199,182,o),
(171,184,cs)
);
},
{
closed = 1;
nodes = (
(337,397,o),
(345,432,o),
(367,434,cs),
(384,435,o),
(430,405,o),
(441,389,c),
(470,411,l),
(463,454,o),
(444,484,o),
(424,484,cs),
(378,484,o),
(323,451,o),
(292,404,c),
(310,377,l)
);
}
);
width = 414;
},
{
anchors = (
{
name = bottom;
pos = (85,-230);
},
{
name = top;
pos = (278,402);
}
);
layerId = m004;
shapes = (
{
closed = 1;
nodes = (
(211,-193,o),
(308,-145,o),
(315,-81,cs),
(320,-32,o),
(296,10,o),
(182,50,cs),
(135,67,o),
(124,88,o),
(119,103,cs),
(111,126,o),
(147,140,o),
(182,142,c),
(182,146,l),
(137,154,l),
(97,148,o),
(69,123,o),
(62,101,cs),
(50,64,o),
(96,11,o),
(174,-20,cs),
(229,-42,o),
(260,-64,o),
(259,-86,cs),
(257,-128,o),
(198,-157,o),
(133,-157,cs),
(17,-157,o),
(-41,-97,o),
(13,-10,cs),
(25,9,o),
(58,34,o),
(124,34,c),
(97,60,l),
(21,60,o),
(-49,-2,o),
(-60,-55,cs),
(-80,-136,o),
(-23,-193,o),
(92,-193,cs)
);
},
{
closed = 1;
nodes = (
(234,127,o),
(295,184,o),
(317,264,cs),
(342,351,o),
(313,414,o),
(234,414,cs),
(160,414,o),
(101,359,o),
(79,281,cs),
(55,192,o),
(83,127,o),
(157,127,cs)
);
},
{
closed = 1;
nodes = (
(136,154,o),
(122,208,o),
(149,288,cs),
(167,346,o),
(207,386,o),
(233,386,cs),
(264,386,o),
(267,332,o),
(245,253,cs),
(229,194,o),
(200,154,o),
(168,154,cs)
);
},
{
closed = 1;
nodes = (
(294,284,o),
(343,358,o),
(375,358,cs),
(378,358,o),
(382,357,o),
(386,356,cs),
(390,355,o),
(394,354,o),
(396,354,cs),
(407,354,o),
(422,368,o),
(429,386,cs),
(435,403,o),
(424,414,o),
(406,414,cs),
(362,414,o),
(295,332,o),
(245,220,c),
(259,178,l)
);
}
);
width = 378;
},
{
associatedMasterId = m004;
background = {
shapes = (
{
closed = 0;
nodes = (
(-67,-200,l),
(278,700,l)
);
},
{
closed = 0;
nodes = (
(8,-200,l),
(353,700,l)
);
},
{
closed = 0;
nodes = (
(148,-200,l),
(493,700,l)
);
},
{
closed = 0;
nodes = (
(223,-200,l),
(568,700,l)
);
},
{
closed = 0;
nodes = (
(-172,-200,l),
(173,700,l)
);
},
{
closed = 0;
nodes = (
(-142,-200,l),
(203,700,l)
);
},
{
closed = 0;
nodes = (
(298,-200,l),
(643,700,l)
);
},
{
closed = 0;
nodes = (
(328,-200,l),
(673,700,l)
);
}
);
};
layerId = "59494BD9-3039-4A5C-AA75-3F7C608130B9";
name = "6. Nov. 24, 23:26";
shapes = (
{
closed = 1;
nodes = (
(199,-248,o),
(311,-189,o),
(339,-100,cs),
(353,-51,o),
(314,-3,o),
(245,16,cs),
(162,38,o),
(104,68,o),
(104,88,cs),
(104,101,o),
(126,128,o),
(157,154,c),
(123,163,l),
(88,130,o),
(60,97,o),
(55,83,cs),
(39,39,o),
(55,0,o),
(93,-11,cs),
(202,-41,o),
(271,-89,o),
(261,-126,cs),
(250,-165,o),
(192,-196,o),
(120,-201,cs),
(-1,-209,o),
(-69,-161,o),
(-44,-85,cs),
(-31,-48,o),
(30,-6,o),
(103,18,c),
(81,45,l),
(-35,9,o),
(-124,-51,o),
(-134,-101,cs),
(-153,-191,o),
(-69,-249,o),
(68,-241,cs)
);
},
{
closed = 1;
nodes = (
(229,132,o),
(298,192,o),
(328,279,cs),
(367,399,o),
(333,482,o),
(244,479,cs),
(166,476,o),
(88,411,o),
(57,323,cs),
(16,206,o),
(58,128,o),
(160,135,cs)
);
},
{
closed = 1;
nodes = (
(125,182,o),
(111,246,o),
(140,339,cs),
(157,394,o),
(188,434,o),
(216,435,cs),
(263,437,o),
(274,366,o),
(243,264,cs),
(228,215,o),
(199,182,o),
(171,184,cs)
);
},
{
closed = 1;
nodes = (
(337,397,o),
(345,432,o),
(367,434,cs),
(384,435,o),
(430,405,o),
(441,389,c),
(470,411,l),
(463,454,o),
(444,484,o),
(424,484,cs),
(378,484,o),
(323,451,o),
(292,404,c),
(310,377,l)
);
}
);
width = 414;
}
);
unicode = 103;
},
